<?xml version="1.0" encoding="UTF-8"?>
<svg width="30px" height="30px" viewBox="0 0 30 30" version="1.1" xmlns="http://www.w3.org/2000/svg" xmlns:xlink="http://www.w3.org/1999/xlink">
    <!-- Generator: Sketch 52.5 (67469) - http://www.bohemiancoding.com/sketch -->
    <title>密码 (1)</title>
    <desc>Created with Sketch.</desc>
    <defs>
        <linearGradient x1="50%" y1="0%" x2="50%" y2="100%" id="linearGradient-1">
            <stop stop-color="#F5515F" offset="0%"></stop>
            <stop stop-color="#9F041B" offset="100%"></stop>
        </linearGradient>
    </defs>
    <g id="Page-1" stroke="none" stroke-width="1" fill="none" fill-rule="evenodd">
        <g id="登录_忘记密码" transform="translate(-210.000000, -465.000000)" fill="url(#linearGradient-1)" fill-rule="nonzero">
            <g id="密码-(1)" transform="translate(210.000000, 465.000000)">
                <path d="M16.3336705,2.79534157 C12.5793762,-0.929401607 6.51141295,-0.905349342 2.78668845,2.84865398 C-0.940263181,6.60502148 -0.914188393,12.6705434 2.84007157,16.3952523 C5.79540047,19.3270931 10.1701109,19.898557 13.7220426,18.1954717 L16.4049736,20.8572899 L20.920817,20.8394048 L20.9386685,25.3549262 L25.4553685,25.3382061 L25.4732199,29.8537617 L29.988755,29.8358767 L29.9710748,25.3203896 L18.2199318,13.6620996 C19.8949219,10.0971224 19.2889651,5.72714812 16.3336705,2.79534157 Z M9.58690527,9.59524554 C8.19017213,11.0030567 5.91686595,11.0142263 4.50680414,9.61532334 C3.09670808,8.2164889 3.09002662,5.94310453 4.48675975,4.53543037 C5.88349289,3.12765342 8.15676482,3.11658663 9.5668266,4.51542107 C10.9768542,5.9142898 10.9837069,8.18746858 9.58690527,9.59524554 Z" id="Shape"></path>
            </g>
        </g>
    </g>
</svg>