<?xml version="1.0" encoding="UTF-8"?>
<svg width="22px" height="30px" viewBox="0 0 22 30" version="1.1" xmlns="http://www.w3.org/2000/svg" xmlns:xlink="http://www.w3.org/1999/xlink">
    <!-- Generator: Sketch 52.5 (67469) - http://www.bohemiancoding.com/sketch -->
    <title>手机</title>
    <desc>Created with Sketch.</desc>
    <defs>
        <linearGradient x1="20.6419271%" y1="0%" x2="22.3776042%" y2="100%" id="linearGradient-1">
            <stop stop-color="#13A2BA" offset="0%"></stop>
            <stop stop-color="#087C95" offset="100%"></stop>
        </linearGradient>
    </defs>
    <g id="Page-1" stroke="none" stroke-width="1" fill="none" fill-rule="evenodd">
        <g id="登录_忘记密码" transform="translate(-30.000000, -310.000000)" fill="url(#linearGradient-1)" fill-rule="nonzero">
            <g id="手机" transform="translate(30.000000, 310.000000)">
                <path d="M21.9245526,21.7721126 L21.9245526,2.47742965 C21.9245526,1.11871156 20.8231234,0.0172823461 19.4644053,0.0172823461 L2.46455935,0.0172823461 C1.10584126,0.0172823461 0.00441204994,1.11871156 0.00441204994,2.47742965 L0.00441204994,21.7721126 L21.9245526,21.7721126 Z M0.00441204994,22.8962224 L0.00441204994,26.9823614 C0.00441204994,28.3410795 1.10584126,29.4425087 2.46455935,29.4425087 L19.4644053,29.4425087 C20.8231234,29.4425087 21.9245526,28.3410795 21.9245526,26.9823614 L21.9245526,22.8962224 L0.00441204994,22.8962224 Z M10.9644823,28.1861507 C9.85065488,28.1861507 8.94769715,27.283193 8.94769715,26.1693656 C8.94769715,25.0555381 9.85065485,24.1525804 10.9644823,24.1525804 C12.0783098,24.1525804 12.9812675,25.0555381 12.9812675,26.1693656 C12.9812675,27.2831931 12.0783098,28.1861508 10.9644823,28.1861507 Z" id="Shape"></path>
            </g>
        </g>
    </g>
</svg>