<?xml version="1.0" encoding="UTF-8"?>
<svg width="195px" height="100px" viewBox="0 0 195 100" version="1.1" xmlns="http://www.w3.org/2000/svg" xmlns:xlink="http://www.w3.org/1999/xlink">
    <!-- Generator: Sketch 51.2 (57519) - http://www.bohemiancoding.com/sketch -->
    <title>login_logo</title>
    <desc>Created with Sketch.</desc>
    <defs>
        <linearGradient x1="20.6648536%" y1="1.32089957%" x2="22.3776042%" y2="100%" id="linearGradient-1">
            <stop stop-color="#2BC3DD" offset="0%"></stop>
            <stop stop-color="#087C95" offset="100%"></stop>
        </linearGradient>
        <linearGradient x1="50%" y1="0%" x2="50%" y2="100%" id="linearGradient-2">
            <stop stop-color="#FCDB43" offset="0%"></stop>
            <stop stop-color="#FBBC38" offset="100%"></stop>
        </linearGradient>
        <linearGradient x1="20.6419271%" y1="0%" x2="22.3776042%" y2="100%" id="linearGradient-3">
            <stop stop-color="#30CAE4" offset="0%"></stop>
            <stop stop-color="#087C95" offset="100%"></stop>
        </linearGradient>
        <path d="M8.5605557,55.3310226 C7.81629046,54.5104028 7.11286068,53.6534435 6.45338818,52.7632031 C6.88047875,50.7551882 10.9322194,46.8672225 18.60861,41.0993061 C18.7903101,40.5245025 18.9761537,39.3642212 19.1661409,37.6184621 C16.0458656,39.2586218 11.2725327,43.5144098 4.84614221,50.3858262 C4.0184584,49.0396415 3.28536261,47.6313297 2.6558677,46.1697201 C3.52467669,44.2243938 7.60780098,40.5065562 14.9052422,35.0162107 C13.9244093,34.2261189 12.3425644,32.9517789 10.1597075,31.1931907 C6.17044701,33.863401 2.95241422,36.4666863 0.505609103,39.0030464 C0.173262805,37.1352733 0,35.2139649 0,33.253012 C0,14.8878806 15.1970443,0 33.9435484,0 C39.7459669,0 45.2083378,1.4262984 49.985277,3.94053762 C49.0087,6.10576324 45.7567379,9.34144285 40.2293907,13.6475765 C41.281328,16.7435977 42.1245046,19.1485517 42.7589204,20.8624385 C48.9736876,16.7327368 53.4148434,12.4604697 56.0823878,8.04563734 C58.1046125,9.75171581 59.9192894,11.6873527 61.4842683,13.811255 C57.7098262,19.3291199 53.1392039,23.3813979 47.7724014,25.9680892 C49.3258557,26.6209698 51.0602939,27.032453 52.9757161,27.2025387 C58.5556846,23.4918819 62.1178328,20.1489459 63.6621607,17.1737307 C64.2613147,18.2342566 64.8030371,19.3302511 65.2832161,20.457686 C61.4890801,24.4856509 59.0045911,26.8364683 57.8297491,27.5101382 C58.3822157,27.9852156 58.8862903,28.2227543 59.341973,28.2227543 L62.1139742,28.2227543 C64.1551161,26.6343615 65.6527909,25.2853597 66.6069986,24.1757487 C67.440862,27.0611239 67.8870968,30.1060163 67.8870968,33.253012 C67.8870968,51.6181435 52.6900525,66.5060241 33.9435484,66.5060241 C24.7295272,66.5060241 16.3729782,62.9094359 10.256903,57.0711257 C10.8143503,55.7513588 13.2236496,53.3308534 17.4848008,49.8096095 C17.5629135,48.5444905 17.5629135,47.4613842 17.4848008,46.5602906 C16.6329647,46.6341253 13.6582163,49.5577026 8.5605557,55.3310226 Z M35.2759137,12.3159304 L29.1757616,28.9679944 L10.0573477,26.7677546 L25.5247246,36.4981214 L21.7318879,52.6923972 L34.8660142,42.7293026 L48.9921249,52.4688402 L43.7309547,40.2378525 L55.3241596,33.2178323 L40.4345706,30.7668238 L35.2759137,12.3159304 Z" id="path-4"></path>
    </defs>
    <g id="Page-1" stroke="none" stroke-width="1" fill="none" fill-rule="evenodd">
        <g id="登录输入" transform="translate(-90.000000, -110.000000)">
            <g id="login_logo" transform="translate(89.000000, 110.000000)">
                <g id="Group-6" transform="translate(0.000000, 78.000000)">
                    <path d="M43.0978376,5.81453536 L41.1656138,12.4470852 L45.8408744,12.4470852 L47.7730982,5.81453536 L43.0978376,5.81453536 Z M45.2405015,15.1222136 L50.5421129,15.1222136 L51.6027133,21.0030745 L46.301102,21.0030745 L45.2405015,15.1222136 Z M35.1294115,15.1222136 L40.4310229,15.1222136 L35.9439456,21.0030745 L30.6199646,21.0030745 L35.1294115,15.1222136 Z M39.4420097,0.0884339979 L44.7659908,0.0884339979 L43.5873343,4.1342894 L48.2625949,4.1342894 L49.4412514,0.0884339979 L54.7652325,0.0884339979 L53.5865759,4.1342894 L55.8682821,4.1342894 L55.3787854,5.81453536 L53.0970793,5.81453536 L51.1648555,12.4470852 L54.095282,12.4470852 L53.6057853,14.1273312 L32.4440792,14.1273312 L32.9335759,12.4470852 L35.8416328,12.4470852 L37.7738565,5.81453536 L35.4921504,5.81453536 L35.9816471,4.1342894 L38.2633532,4.1342894 L39.4420097,0.0884339979 Z M73.1868812,0.0663254984 L78.4884925,0.0663254984 L77.8766217,2.16663295 L84.3190861,2.16663295 L83.8295894,3.84687891 L67.9694947,3.84687891 L62.9714758,21.0030745 L57.8935611,21.0030745 L63.3810767,2.16663295 L72.5750103,2.16663295 L73.1868812,0.0663254984 Z M63.7066274,20.936749 L64.1961241,19.256503 L65.5606739,19.256503 L68.0786779,17.9078846 L65.2612029,15.9844451 L65.5767994,14.9011286 L71.2810648,14.9011286 L72.3724017,15.6086006 L74.8904057,14.2599822 L65.7412114,14.2599822 L66.2307081,12.5797362 L80.7933621,12.5797362 L79.9238614,15.5643836 L75.7548674,17.8194506 L77.9982094,19.256503 L79.3403895,19.256503 L78.8508928,20.936749 L72.565016,20.936749 L71.4258924,20.1629515 L70.0148739,20.936749 L63.7066274,20.936749 Z M67.2761842,8.06960231 L67.7656809,6.38935635 L68.7499463,6.38935635 L69.21368,4.79754439 L74.1797464,4.79754439 L73.7160126,6.38935635 L77.1385719,6.38935635 L77.6023056,4.79754439 L82.5907416,4.79754439 L82.1270079,6.38935635 L83.0889036,6.38935635 L82.5994069,8.06960231 L81.6375112,8.06960231 L80.6005511,11.6290707 C80.0935053,11.6290707 79.5342636,11.6290707 78.922826,11.6290707 L67.2234895,11.6290707 L68.2604496,8.06960231 L67.2761842,8.06960231 Z M72.6790526,9.94882476 L75.4752611,9.94882476 C75.8108061,9.94882476 76.1789007,9.68352277 76.2819527,9.32978678 L76.6490752,8.06960231 L73.226516,8.06960231 L72.6790526,9.94882476 Z M96.1527692,4.3332659 L95.1237645,4.3332659 L91.8831627,12.9997977 L92.1214047,13.6409442 L92.867774,12.8450382 L96.1527692,4.3332659 Z M101.098953,1.79078846 L101.466075,0.530603987 L112.181146,0.530603987 L107.059828,8.5117723 L106.712028,9.70563127 L109.597715,9.70563127 L109.108219,11.3858772 L106.222531,11.3858772 L103.401485,21.0694 C102.715482,21.0694 101.954913,21.0694 101.119779,21.0694 L96.6234752,21.0694 L97.1065312,19.4112625 L98.5158203,19.4112625 C98.9184743,19.4112625 99.2930097,19.123852 99.3960616,18.7701161 L101.547271,11.3858772 L98.2812992,11.3858772 L98.7707959,9.70563127 L102.036767,9.70563127 L102.448975,8.2906873 L106.780848,1.79078846 L101.098953,1.79078846 Z M89.9787408,4.3332659 L90.4746782,2.63091144 L91.6826403,2.63091144 L92.6727858,0 L96.766435,0 L95.7762896,2.63091144 L100.429181,2.63091144 L96.3621535,13.5967272 L93.287198,16.7803511 L94.8467833,21.025183 L90.551807,21.025183 L90.183432,19.9860835 L89.1872572,21.025183 L85.0936079,21.025183 L89.0559374,16.8687851 L87.7379874,13.1766657 L91.0524849,4.3332659 L89.9787408,4.3332659 Z M118.602724,17.8194506 L120.47054,11.4079857 L119.262578,11.4079857 L117.20798,18.4605971 L117.677743,18.4605971 C118.080397,18.4605971 118.499672,18.1731866 118.602724,17.8194506 Z M121.806673,2.67512844 L119.752075,9.72773977 L120.960037,9.72773977 L123.014635,2.67512844 L121.806673,2.67512844 Z M126.606121,7.16315383 L130.341855,7.16315383 L128.386159,15.7191431 L124.672794,15.7191431 L126.606121,7.16315383 Z M127.023797,4.73121889 L127.506853,3.07308143 L133.12164,3.07308143 L134.016904,0 L139.027709,0 L138.132446,3.07308143 L138.893014,3.07308143 L138.409958,4.73121889 L137.64939,4.73121889 L132.928323,20.936749 C132.287059,20.936749 131.578686,20.936749 130.803204,20.936749 L125.277896,20.936749 L125.767393,19.256503 L127.758294,19.256503 C127.996903,19.256503 128.213143,19.256503 128.407014,19.256503 L132.638584,4.73121889 L127.023797,4.73121889 Z M118.336738,0.994882476 L127.485933,0.994882476 L121.901806,20.1629515 C121.171063,20.1629515 120.343386,20.1629515 119.418773,20.1629515 L112.752612,20.1629515 L118.336738,0.994882476 Z M146.447155,1.19385897 L151.211894,1.19385897 L150.17785,7.73797482 L145.413111,7.73797482 L146.447155,1.19385897 Z M161.054548,1.19385897 L165.819288,1.19385897 L162.950931,7.73797482 L158.186192,7.73797482 L161.054548,1.19385897 Z M153.793268,0.0884339979 L159.117249,0.0884339979 L156.392814,9.44032928 L164.311676,9.44032928 L163.822179,11.1205752 L160.086445,11.1205752 L157.71625,19.256503 L161.474355,19.256503 L160.991299,20.9146405 L151.931583,20.9146405 L154.784833,11.1205752 L151.518862,11.1205752 L145.456915,21.025183 L140.155303,21.025183 L146.23962,11.1205752 L142.660473,11.1205752 L143.14997,9.44032928 L151.068832,9.44032928 L153.793268,0.0884339979 Z" id="共度好时光" fill="url(#linearGradient-1)"></path>
                    <polygon id="Star-Copy-2" fill="url(#linearGradient-2)" transform="translate(6.954089, 11.076659) rotate(15.000000) translate(-6.954089, -11.076659) " points="6.95408934 14.6027839 3.40822363 16.4694792 4.10879566 12.5596922 1.2167581 9.8035863 5.19560114 9.25390032 6.95408934 5.68383793 8.71257754 9.25390032 12.6914206 9.8035863 9.79938302 12.5596922 10.499955 16.4694792"></polygon>
                    <polygon id="Star-Copy-3" fill="url(#linearGradient-2)" transform="translate(189.485163, 11.076659) rotate(15.000000) translate(-189.485163, -11.076659) " points="189.485163 14.6027839 185.939297 16.4694792 186.639869 12.5596922 183.747832 9.8035863 187.726675 9.25390032 189.485163 5.68383793 191.243651 9.25390032 195.222494 9.8035863 192.330456 12.5596922 193.031028 16.4694792"></polygon>
                </g>
                <g id="Group-5" transform="translate(9.000000, 0.000000)">
                    <g id="Group-7">
                        <g id="tab_icon_home_selected">
                            <mask id="mask-5" fill="white">
                                <use xlink:href="#path-4"></use>
                            </mask>
                            <use id="Mask" fill="url(#linearGradient-3)" xlink:href="#path-4"></use>
                            <path d="M55.7027047,33.253012 L70.0770031,46.4404027 C60.2361872,64.1081949 52.2951045,72.9420909 46.2537551,72.9420909 C40.2124057,72.9420909 34.8794419,72.4888085 30.2548636,71.5822437 L21.8990635,53.0975515 L30.2548636,40.1363466 L41.8144564,38.1832551 L55.7027047,33.253012 Z" id="Path-14" fill="#26718B" mask="url(#mask-5)"></path>
                            <text id="聚星" mask="url(#mask-5)" font-family="PingFangSC-Regular, PingFang SC" font-size="10" font-weight="normal" letter-spacing="0.12" fill="#132235">
                                <tspan x="24.2820552" y="60">聚星</tspan>
                            </text>
                        </g>
                        <g id="Group-4" transform="translate(77.000000, 3.000000)" fill="#13A2BA" font-family="PingFangSC-Regular, PingFang SC" font-size="44" font-weight="normal" letter-spacing="0.4455">
                            <text id="聚星">
                                <tspan x="7.0545" y="47">聚星</tspan>
                            </text>
                        </g>
                    </g>
                </g>
            </g>
        </g>
    </g>
</svg>