<?xml version="1.0" encoding="UTF-8"?>
<svg width="17px" height="23px" viewBox="0 0 17 23" version="1.1" xmlns="http://www.w3.org/2000/svg">
  <!-- Generator: Sketch 51.2 (57519) - http://www.bohemiancoding.com/sketch -->
  <title>login_icon_password</title>
  <desc>Created with Sketch.</desc>
  <defs/>
  <g id="Page-1" stroke="none" stroke-width="1" fill="none" fill-rule="evenodd">
    <g id="登录" transform="translate(-35.000000, -299.000000)" fill="#878E97">
      <g id="Group" transform="translate(35.000000, 239.000000)">
        <g id="login_icon_password" transform="translate(0.000000, 60.000000)">
          <path
            d="M11.2929489,6.98402667 L11.2929489,4.70815111 C11.2929489,3.58564889 10.4059922,2.67819667 9.30741,2.67819667 L7.09634333,2.67819667 C6.00108333,2.67819667 5.11054889,3.58564889 5.11054889,4.70815111 L5.11054889,6.98402667 L2.50038111,6.98402667 L2.50038111,4.70815111 C2.50360111,2.11515667 4.56125778,0.00996666667 7.09631778,0.00996666667 L9.30738444,0.00996666667 C11.8458178,0.00996666667 13.9033467,2.11515667 13.9033467,4.70815111 L13.9033467,6.98402667 L11.2929489,6.98402667 Z M9.12295,22.9900333 L6.97679444,22.9900333 C3.12797444,22.9900333 0.00610777778,19.7996778 0.00610777778,15.8655533 L0.00610777778,8.40696 L16.0938922,8.40696 L16.0938922,15.8655533 C16.0938922,19.7997033 12.9716933,22.9900333 9.12295,22.9900333 Z M8.37905333,11.4777156 C7.37599778,11.4777156 6.56404667,12.3068144 6.56404667,13.3303144 C6.56404667,14.1015811 7.02463444,14.76347 7.67982778,15.03993 L7.67982778,18.3052911 C7.67982778,18.6975689 7.99365,19.0148922 8.37583333,19.0148922 C8.75788889,19.0148922 9.07178778,18.6975944 9.07178778,18.3052911 L9.07178778,15.0432778 C9.72698111,14.76347 10.1911211,14.1015556 10.1911211,13.3302889 C10.1911211,12.3068144 9.37878667,11.47769 8.37905333,11.47769 L8.37905333,11.4777156 Z"
            id="Shape"/>
        </g>
      </g>
    </g>
  </g>
</svg>
