<?xml version="1.0" encoding="UTF-8"?>
<svg width="20px" height="23px" viewBox="0 0 20 23" version="1.1" xmlns="http://www.w3.org/2000/svg">
  <!-- Generator: Sketch 51.2 (57519) - http://www.bohemiancoding.com/sketch -->
  <title>login_icon_account</title>
  <desc>Created with Sketch.</desc>
  <defs/>
  <g id="Page-1" stroke="none" stroke-width="1" fill="none" fill-rule="evenodd">
    <g id="登录" transform="translate(-35.000000, -243.000000)" fill="#878E97">
      <g id="Group" transform="translate(35.000000, 239.000000)">
        <g id="login_icon_account" transform="translate(0.000000, 4.000000)">
          <path
            d="M9.77017956,11.9626542 C13.1355504,11.9626542 15.8734114,9.27875096 15.8734114,5.9813271 C15.8734114,2.68390323 13.1375488,0 9.77017956,0 C6.40680719,0 3.66894614,2.68390321 3.66894614,5.9813271 C3.66894614,9.27875098 6.40680719,11.9626542 9.77017956,11.9626542 Z M7.43200625,13.0577986 C3.17932864,13.0577986 0.00780639344,15.9235597 0.00780639344,20.0863076 L0.00780639344,20.5339578 C0.00780639344,22.7102576 3.40914909,22.7102576 7.71378611,22.7102576 L12.2862139,22.7102576 C16.422982,22.7102576 19.9921936,22.7102576 19.9921936,20.5339578 L19.9921936,20.0863076 C19.9921936,15.9235597 16.8186729,13.0577986 12.5699922,13.0577986 L7.4300078,13.0577986 L7.43200625,13.0577986 Z"
            id="Shape"/>
        </g>
      </g>
    </g>
  </g>
</svg>
