<?xml version="1.0" encoding="UTF-8"?>
<svg width="375px" height="203px" viewBox="0 0 375 203" version="1.1" xmlns="http://www.w3.org/2000/svg"
     xmlns:xlink="http://www.w3.org/1999/xlink">
  <!-- Generator: Sketch 51.2 (57519) - http://www.bohemiancoding.com/sketch -->
  <title>login_background</title>
  <desc>Created with Sketch.</desc>
  <defs>
    <linearGradient x1="47.7911205%" y1="59.8860294%" x2="47.7911205%" y2="14.230671%" id="linearGradient-1">
      <stop stop-color="#000000" stop-opacity="0" offset="0%"/>
      <stop stop-color="#000000" offset="100%"/>
    </linearGradient>
    <rect id="path-2" x="0" y="0" width="453" height="425"/>
    <linearGradient x1="96.0457475%" y1="50%" x2="65.8130749%" y2="13.7705836%" id="linearGradient-4">
      <stop stop-color="#243F64" offset="0%"/>
      <stop stop-color="#0C192C" offset="100%"/>
    </linearGradient>
    <linearGradient x1="20.6419271%" y1="0%" x2="22.3776042%" y2="100%" id="linearGradient-5">
      <stop stop-color="#13A2BA" offset="0%"/>
      <stop stop-color="#087C95" offset="100%"/>
    </linearGradient>
    <linearGradient x1="92.3221156%" y1="38.9625342%" x2="9.84999756%" y2="64.7591486%" id="linearGradient-6">
      <stop stop-color="#0D6472" offset="0%"/>
      <stop stop-color="#087C95" offset="100%"/>
    </linearGradient>
    <ellipse id="path-7" cx="11.1999747" cy="11.3536707" rx="11.1999747" ry="11.3536707"/>
    <linearGradient x1="43.9006742%" y1="9.47337415%" x2="80.0759728%" y2="74.01242%" id="linearGradient-9">
      <stop stop-color="#087C95" offset="0%"/>
      <stop stop-color="#13A2BA" offset="100%"/>
    </linearGradient>
    <linearGradient x1="17.2324603%" y1="26.9574399%" x2="83.6021688%" y2="60.6526262%" id="linearGradient-10">
      <stop stop-color="#13A2BA" offset="0%"/>
      <stop stop-color="#087C95" offset="100%"/>
    </linearGradient>
    <linearGradient x1="92.2503959%" y1="41.412231%" x2="-6.68627417%" y2="64.9614886%" id="linearGradient-11">
      <stop stop-color="#E99652" offset="0%"/>
      <stop stop-color="#BA60DF" offset="100%"/>
    </linearGradient>
    <linearGradient x1="11.9841884%" y1="25.0600285%" x2="100%" y2="67.3129274%" id="linearGradient-12">
      <stop stop-color="#E99652" offset="0%"/>
      <stop stop-color="#BA60DF" offset="100%"/>
    </linearGradient>
    <linearGradient x1="100%" y1="61.9376506%" x2="-25.6278171%" y2="77.9037708%" id="linearGradient-13">
      <stop stop-color="#204066" offset="0%"/>
      <stop stop-color="#102642" offset="47.6577522%"/>
      <stop stop-color="#0C192C" offset="100%"/>
    </linearGradient>
    <linearGradient x1="-12.0810583%" y1="50%" x2="114.853085%" y2="50%" id="linearGradient-14">
      <stop stop-color="#204066" offset="0%"/>
      <stop stop-color="#0C192C" offset="100%"/>
    </linearGradient>
    <linearGradient x1="100%" y1="0%" x2="1.55203683%" y2="96.8702747%" id="linearGradient-15">
      <stop stop-color="#2BCFDE" offset="0%"/>
      <stop stop-color="#0C192C" offset="100%"/>
    </linearGradient>
    <linearGradient x1="100%" y1="0%" x2="12.2214674%" y2="90.9924523%" id="linearGradient-16">
      <stop stop-color="#2BCFDE" offset="0%"/>
      <stop stop-color="#0C192C" offset="100%"/>
    </linearGradient>
    <linearGradient x1="3.42447917%" y1="80.0537109%" x2="104.891493%" y2="44.5556641%" id="linearGradient-17">
      <stop stop-color="#13A2BA" offset="0%"/>
      <stop stop-color="#087C95" offset="100%"/>
    </linearGradient>
    <linearGradient x1="20.6419271%" y1="0%" x2="22.3776042%" y2="100%" id="linearGradient-18">
      <stop stop-color="#E99652" offset="0%"/>
      <stop stop-color="#BA60DF" offset="100%"/>
    </linearGradient>
    <ellipse id="path-19" cx="11.3409809" cy="11.2061121" rx="11.3409809" ry="11.2061121"/>
    <linearGradient x1="100%" y1="27.5130208%" x2="50%" y2="100%" id="linearGradient-21">
      <stop stop-color="#FCDB43" offset="0%"/>
      <stop stop-color="#FBBC38" offset="100%"/>
    </linearGradient>
    <linearGradient x1="42.2352366%" y1="0%" x2="64.6104601%" y2="100%" id="linearGradient-22">
      <stop stop-color="#2E6FDF" offset="0%"/>
      <stop stop-color="#5E53E2" offset="100%"/>
    </linearGradient>
    <linearGradient x1="20.6419271%" y1="0%" x2="100%" y2="80.6274414%" id="linearGradient-23">
      <stop stop-color="#13A2BA" offset="0%"/>
      <stop stop-color="#087C95" offset="100%"/>
    </linearGradient>
    <linearGradient x1="50%" y1="0%" x2="50%" y2="100%" id="linearGradient-27">
      <stop stop-color="#FCDB43" offset="0%"/>
      <stop stop-color="#FBBC38" offset="100%"/>
    </linearGradient>
    <radialGradient cx="50%" cy="31.1740451%" fx="50%" fy="31.1740451%" r="70.4329785%"
                    gradientTransform="translate(0.500000,0.311740),scale(0.976655,1.000000),rotate(77.737191),translate(-0.500000,-0.311740)"
                    id="radialGradient-28">
      <stop stop-color="#2E6FDF" offset="0%"/>
      <stop stop-color="#5E53E2" offset="100%"/>
    </radialGradient>
    <ellipse id="path-29" cx="8.71283689" cy="8.50943662" rx="8.71283689" ry="8.50943662"/>
    <ellipse id="path-31" cx="11.1999747" cy="11.3536707" rx="11.1999747" ry="11.3536707"/>
    <ellipse id="path-33" cx="11.3409809" cy="11.2061121" rx="11.3409809" ry="11.2061121"/>
    <radialGradient cx="50%" cy="31.1740451%" fx="50%" fy="31.1740451%" r="70.3625242%"
                    gradientTransform="translate(0.500000,0.311740),scale(0.999048,1.000000),rotate(78.003998),translate(-0.500000,-0.311740)"
                    id="radialGradient-35">
      <stop stop-color="#2E6FDF" offset="0%"/>
      <stop stop-color="#5E53E2" offset="100%"/>
    </radialGradient>
    <linearGradient x1="50%" y1="31.1740451%" x2="64.6104601%" y2="100%" id="linearGradient-36">
      <stop stop-color="#2E6FDF" offset="0%"/>
      <stop stop-color="#5E53E2" offset="100%"/>
    </linearGradient>
  </defs>
  <g id="Page-1" stroke="none" stroke-width="1" fill="none" fill-rule="evenodd">
    <g id="登录">
      <g id="login_background" transform="translate(-31.000000, -149.000000)">
        <g id="插画-copy" transform="translate(0.000000, 149.000000)">
          <g id="插画">
            <g transform="translate(-216.000000, -10.000000)">
              <path
                d="M275.338229,2.41116772 L115.57142,93.4617246 C113.172251,94.8290027 112.335739,97.8823114 113.703017,100.28148 C114.147009,101.060555 114.792346,101.705892 115.57142,102.149884 L204.319061,152.72686 C208.922847,155.350542 214.569333,155.350542 219.173118,152.72686 L378.939926,61.6763036 C381.339095,60.3090254 382.175608,57.2557168 380.80833,54.8565478 C380.364337,54.077473 379.719001,53.4321364 378.939926,52.9881443 L290.192285,2.41116772 C285.5885,-0.212513758 279.942014,-0.212513758 275.338229,2.41116772 Z"
                id="Rectangle-3_Top_Isometric-Copy-8" stroke="url(#linearGradient-4)" stroke-width="1"
                fill="none"/>
              <path
                d="M162.929757,211.96328 L3.16294839,303.013837 C0.76377946,304.381115 -0.0727332911,307.434424 1.29454487,309.833593 C1.73853697,310.612668 2.38387352,311.258004 3.16294839,311.701997 L91.9105892,362.278973 C96.5143745,364.902655 102.160861,364.902655 106.764646,362.278973 L266.531454,271.228416 C268.930623,269.861138 269.767136,266.807829 268.399858,264.408661 C267.955865,263.629586 267.310529,262.984249 266.531454,262.540257 L177.783813,211.96328 C173.180028,209.339599 167.533542,209.339599 162.929757,211.96328 Z"
                id="Rectangle-3_Top_Isometric-Copy-9" stroke="url(#linearGradient-4)" stroke-width="1"
                fill="none"/>
              <path
                d="M465.633233,10.5428443 L167.671324,180.746639 C165.273528,182.116324 164.44008,185.170471 165.809765,187.568267 C166.252849,188.343939 166.895652,188.986741 167.671324,189.429826 L338.475974,286.998001 C343.08645,289.631628 348.745701,289.631628 353.356177,286.998001 L651.318086,116.794206 C653.715882,115.424521 654.54933,112.370374 653.179645,109.972578 C652.73656,109.196906 652.093758,108.554104 651.318086,108.111019 L480.513436,10.5428443 C475.90296,7.90921715 470.243709,7.90921715 465.633233,10.5428443 Z"
                id="Rectangle-3_Top_Isometric-Copy-10" stroke="url(#linearGradient-4)" stroke-width="1"
                fill="none"/>
              <g id="Group-2" stroke="none" stroke-width="1" fill="none" fill-rule="evenodd"
                 transform="translate(408.915280, 69.464789)">
                <ellipse id="Oval-2-Copy" stroke="#254167" cx="11.5885023" cy="6.94647887" rx="11.5885023"
                         ry="6.94647887"/>
                <ellipse id="Oval-2-Copy-8" fill="url(#linearGradient-5)" cx="11.5885023" cy="6.94647887"
                         rx="5.48929055" ry="3.47323944"/>
                <path
                  d="M8.53889641,4.63098592 L8.53889641,8.01250447 C9.21612334,8.78593716 10.2417916,9.1726535 11.6159011,9.1726535 C12.9900106,9.1726535 14.0026743,8.78593716 14.6538922,8.01250447 L14.6538922,4.63098592 L8.53889641,4.63098592 Z"
                  id="Path-6" fill="url(#linearGradient-6)"/>
                <ellipse id="Oval-2-Copy-7" fill="url(#linearGradient-5)" cx="11.5885023" cy="4.63098592"
                         rx="3.04960586" ry="2.31549296"/>
              </g>
              <ellipse id="Oval-2-Copy-4" stroke="#254167" stroke-width="1" fill="none" cx="401.962179"
                       cy="112.880282" rx="22.0181543" ry="12.156338"/>
              <ellipse id="Oval-2-Copy-3" stroke="none" fill="url(#linearGradient-27)" fill-rule="evenodd"
                       cx="402.541604" cy="112.880282" rx="11.0090772" ry="6.36760563"/>
              <ellipse id="Oval-2-Copy-12" stroke="#254167" stroke-width="1" fill="none" cx="309.25416"
                       cy="139.508451" rx="9.27080182" ry="5.20985915"/>
              <ellipse id="Oval-2-Copy-11" stroke="none" fill="url(#linearGradient-18)" fill-rule="evenodd"
                       cx="309.833585" cy="139.508451" rx="4.05597579" ry="1.73661972"/>
              <g id="4" stroke="none" stroke-width="1" fill="none" fill-rule="evenodd"
                 transform="translate(439.045386, 41.678873)">
                <ellipse id="Oval-2-Copy-2" stroke="#254167" cx="16.8033283" cy="13.3719718"
                         rx="16.8033283" ry="10.9407042"/>
                <g id="Oval-3-+-Oval-3-Copy-+-Oval-3-Copy-2-+-Oval-3-Copy-3-Mask"
                   transform="translate(8.712837, 0.000000)">
                  <mask id="mask-30" fill="white">
                    <use xlink:href="#path-29"/>
                  </mask>
                  <use id="Mask" fill="url(#radialGradient-28)" xlink:href="#path-29"/>
                  <ellipse id="Oval-3" fill="#FFFFFF" mask="url(#mask-30)" cx="10.6490229"
                           cy="8.50943662" rx="4.84046494" ry="4.72746479"/>
                  <ellipse id="Oval-3-Copy" fill="#FFFFFF" mask="url(#mask-30)" cx="4.35641845"
                           cy="1.41823944" rx="3.38832546" ry="3.30922535"/>
                  <ellipse id="Oval-3-Copy-2" fill="#FFFFFF" mask="url(#mask-30)" cx="-0.484046494"
                           cy="12.7641549" rx="3.38832546" ry="3.30922535"/>
                  <ellipse id="Oval-3-Copy-3" fill="#FFFFFF" mask="url(#mask-30)" cx="9.19688339"
                           cy="19.3826056" rx="3.38832546" ry="3.30922535"/>
                  <text id="4" mask="url(#mask-30)" font-family="DINAlternate-Bold, DIN Alternate" font-size="8"
                        font-weight="bold" letter-spacing="0.09647055" fill="#2D83FD">
                    <tspan x="8.71283689" y="11.5094366">4</tspan>
                  </text>
                </g>
              </g>
              <g id="6" stroke="none" stroke-width="1" fill="none" fill-rule="evenodd"
                 transform="translate(501.623298, 199.132394)">
                <g id="Rectangle-4_Isometric" stroke="#254167">
                  <path
                    d="M2.70249955,28.1047014 L46.873571,2.18104401 C51.5613144,-0.570156003 57.370607,-0.570156003 62.0583503,2.18104401 L106.229422,28.1047014 C108.610984,29.5024218 109.408546,32.5661357 108.010825,34.947698 C107.578805,35.6838134 106.965537,36.297081 106.229422,36.7291014 L62.0583503,62.6527588 C57.370607,65.4039588 51.5613144,65.4039588 46.873571,62.6527588 L2.70249955,36.7291014 C0.320937249,35.3313811 -0.47662424,32.2676672 0.9210961,29.8861049 C1.3531165,29.1499894 1.96638413,28.5367218 2.70249955,28.1047014 Z"
                    id="Rectangle-4_Top_Isometric"/>
                </g>
                <g id="Group-3" transform="translate(26.466024, 11.601838)">
                  <ellipse id="Oval-2-Copy-5" stroke="#254167" stroke-width="1.5" cx="27.9999367"
                           cy="18.9227846" rx="27.9999367" ry="17.6612656"/>
                  <g id="Oval-3-+-Oval-3-Copy-+-Oval-3-Copy-2-+-Oval-3-Copy-3-Mask-Copy"
                     transform="translate(16.177741, 0.000000)">
                    <mask id="mask-32" fill="white">
                      <use xlink:href="#path-31"/>
                    </mask>
                    <use id="Mask" fill="url(#linearGradient-5)" xlink:href="#path-31"/>
                    <ellipse id="Oval-3-Copy" fill="#FFFFFF" mask="url(#mask-32)" cx="5.59998733"
                             cy="1.89227846" rx="4.3555457" ry="4.4153164"/>
                  </g>
                </g>
              </g>
              <path d="" id="Path-2" stroke="#979797" stroke-width="1" fill="none"/>
              <path d="" id="Path-4" stroke="#979797" stroke-width="1" fill="none"/>
              <g id="方块" stroke="none" stroke-width="1" fill="none" fill-rule="evenodd"
                 transform="translate(266.376702, 152.822535)">
                <path
                  d="M1.21254695,10.2856618 L1.21254695,23.1248695 C1.21254695,23.8604726 1.61635158,24.5367025 2.26395016,24.8855978 L16.8385824,32.7377175 C18.3239213,33.5379475 20.1126632,33.535121 21.5954656,32.7302008 L36.044232,24.8868744 C36.6887326,24.5370155 37.0900754,23.8624891 37.0900754,23.1291527 L37.0900754,9.78037328 L1.21254695,10.2856618 Z"
                  id="Path-5" fill="url(#linearGradient-9)"/>
                <g id="Rectangle-3_Isometric" fill="url(#linearGradient-10)">
                  <path
                    d="M1.68392179,8.77314585 L16.0862705,1.60169892 C18.0513016,0.623239312 20.3615271,0.623239312 22.3265582,1.60169892 L36.7289069,8.77314585 C37.7176789,9.26549096 38.1201125,10.4661736 37.6277673,11.4549456 C37.4338717,11.8443444 37.1183057,12.1599104 36.7289069,12.353806 L22.3265582,19.5252529 C20.3615271,20.5037126 18.0513016,20.5037126 16.0862705,19.5252529 L1.68392179,12.353806 C0.695149783,11.8614609 0.292716273,10.6607783 0.785061382,9.67200625 C0.978957039,9.28260745 1.29452298,8.96704151 1.68392179,8.77314585 Z"
                    id="Rectangle-3_Top_Isometric"/>
                  <path
                    d="M1.68392179,8.77314585 L16.0862705,1.60169892 C18.0513016,0.623239312 20.3615271,0.623239312 22.3265582,1.60169892 L36.7289069,8.77314585 C37.7176789,9.26549096 38.1201125,10.4661736 37.6277673,11.4549456 C37.4338717,11.8443444 37.1183057,12.1599104 36.7289069,12.353806 L22.3265582,19.5252529 C20.3615271,20.5037126 18.0513016,20.5037126 16.0862705,19.5252529 L1.68392179,12.353806 C0.695149783,11.8614609 0.292716273,10.6607783 0.785061382,9.67200625 C0.978957039,9.28260745 1.29452298,8.96704151 1.68392179,8.77314585 Z"
                    id="Rectangle-3_Top_Isometric-Copy"/>
                </g>
              </g>
              <g id="方块-copy-4" stroke="none" stroke-width="1" fill="none" fill-rule="evenodd"
                 transform="translate(566.518911, 75.253521)">
                <path
                  d="M1.21254695,10.2856618 L1.21254695,23.1248695 C1.21254695,23.8604726 1.61635158,24.5367025 2.26395016,24.8855978 L16.8385824,32.7377175 C18.3239213,33.5379475 20.1126632,33.535121 21.5954656,32.7302008 L36.044232,24.8868744 C36.6887326,24.5370155 37.0900754,23.8624891 37.0900754,23.1291527 L37.0900754,9.78037328 L1.21254695,10.2856618 Z"
                  id="Path-5" fill="url(#linearGradient-9)"/>
                <g id="Rectangle-3_Isometric" fill="url(#linearGradient-10)">
                  <path
                    d="M1.68392179,8.77314585 L16.0862705,1.60169892 C18.0513016,0.623239312 20.3615271,0.623239312 22.3265582,1.60169892 L36.7289069,8.77314585 C37.7176789,9.26549096 38.1201125,10.4661736 37.6277673,11.4549456 C37.4338717,11.8443444 37.1183057,12.1599104 36.7289069,12.353806 L22.3265582,19.5252529 C20.3615271,20.5037126 18.0513016,20.5037126 16.0862705,19.5252529 L1.68392179,12.353806 C0.695149783,11.8614609 0.292716273,10.6607783 0.785061382,9.67200625 C0.978957039,9.28260745 1.29452298,8.96704151 1.68392179,8.77314585 Z"
                    id="Rectangle-3_Top_Isometric"/>
                  <path
                    d="M1.68392179,8.77314585 L16.0862705,1.60169892 C18.0513016,0.623239312 20.3615271,0.623239312 22.3265582,1.60169892 L36.7289069,8.77314585 C37.7176789,9.26549096 38.1201125,10.4661736 37.6277673,11.4549456 C37.4338717,11.8443444 37.1183057,12.1599104 36.7289069,12.353806 L22.3265582,19.5252529 C20.3615271,20.5037126 18.0513016,20.5037126 16.0862705,19.5252529 L1.68392179,12.353806 C0.695149783,11.8614609 0.292716273,10.6607783 0.785061382,9.67200625 C0.978957039,9.28260745 1.29452298,8.96704151 1.68392179,8.77314585 Z"
                    id="Rectangle-3_Top_Isometric-Copy"/>
                </g>
              </g>
              <path
                d="M323.359801,155.416961 L331.919939,150.769111 C332.961508,150.203575 334.218522,150.203575 335.260092,150.769111 L343.820229,155.416961 C344.305585,155.680492 344.485409,156.287584 344.221878,156.772939 C344.129633,156.942831 343.990121,157.082343 343.820229,157.174589 L335.260092,161.822439 C334.218522,162.387974 332.961508,162.387974 331.919939,161.822439 L323.359801,157.174589 C322.874446,156.911058 322.694621,156.303965 322.958152,155.81861 C323.050397,155.648718 323.189909,155.509206 323.359801,155.416961 Z"
                id="Rectangle-3_Top_Isometric-Copy-2" stroke="none" fill="url(#linearGradient-10)"
                fill-rule="evenodd"/>
              <path
                d="M282.346868,134.032627 L327.186597,107.856619 C331.859157,105.128927 337.638573,105.128927 342.311134,107.856619 L387.150862,134.032627 C389.53567,135.424802 390.340358,138.486652 388.948183,140.87146 C388.513902,141.615388 387.89479,142.2345 387.150862,142.668781 L342.311134,168.84479 C337.638573,171.572482 331.859157,171.572482 327.186597,168.84479 L282.346868,142.668781 C279.96206,141.276606 279.157372,138.214756 280.549547,135.829948 C280.983829,135.08602 281.602941,134.466909 282.346868,134.032627 Z"
                id="Rectangle-4_Top_Isometric-Copy" stroke="#254167" stroke-width="1" fill="none"/>
              <path
                d="M526.864266,145.610092 L571.703995,119.434084 C576.376555,116.706392 582.155971,116.706392 586.828531,119.434084 L631.66826,145.610092 C634.053068,147.002267 634.857756,150.064117 633.465581,152.448925 C633.0313,153.192853 632.412188,153.811965 631.66826,154.246246 L586.828531,180.422254 C582.155971,183.149946 576.376555,183.149946 571.703995,180.422254 L526.864266,154.246246 C524.479458,152.854071 523.67477,149.792221 525.066945,147.407413 C525.501227,146.663485 526.120339,146.044373 526.864266,145.610092 Z"
                id="Rectangle-4_Top_Isometric-Copy-3" stroke="#254167" stroke-width="1" fill="none"/>
              <g id="方块-copy" stroke="none" stroke-width="1" fill="none" fill-rule="evenodd"
                 transform="translate(338.225416, 92.619718)">
                <path
                  d="M1.21254695,10.366419 L1.21254695,47.1259884 C1.21254695,47.8518297 1.60580123,48.5206976 2.24005798,48.873634 L16.7786261,56.9637165 C18.2953,57.8076797 20.1411553,57.804712 21.6551076,56.9558761 L36.0681791,48.8748209 C36.6992897,48.5209726 37.0900754,47.8538507 37.0900754,47.1303114 L37.0900754,10.366419 L1.21254695,10.366419 Z"
                  id="Path-5" fill="url(#linearGradient-13)"/>
                <g id="Rectangle-3_Isometric">
                  <path
                    d="M1.54665427,9.1338541 L16.004914,1.69798901 C18.0141701,0.664631125 20.3986586,0.664631125 22.4079147,1.69798901 L36.8661745,9.1338541 C37.8484494,9.6390369 38.235209,10.8448597 37.7300262,11.8271346 C37.5392211,12.1981352 37.237175,12.5001813 36.8661745,12.6909864 L22.4079147,20.1268515 C20.3986586,21.1602094 18.0141701,21.1602094 16.004914,20.1268515 L1.54665427,12.6909864 C0.5643793,12.1858036 0.177619679,10.9799809 0.682802479,9.99770589 C0.873607619,9.62670531 1.17565369,9.32465924 1.54665427,9.1338541 Z"
                    id="Rectangle-3_Top_Isometric" fill="url(#linearGradient-10)"/>
                  <path
                    d="M1.54665427,9.1338541 L16.004914,1.69798901 C18.0141701,0.664631125 20.3986586,0.664631125 22.4079147,1.69798901 L36.8661745,9.1338541 C37.8484494,9.6390369 38.235209,10.8448597 37.7300262,11.8271346 C37.5392211,12.1981352 37.237175,12.5001813 36.8661745,12.6909864 L22.4079147,20.1268515 C20.3986586,21.1602094 18.0141701,21.1602094 16.004914,20.1268515 L1.54665427,12.6909864 C0.5643793,12.1858036 0.177619679,10.9799809 0.682802479,9.99770589 C0.873607619,9.62670531 1.17565369,9.32465924 1.54665427,9.1338541 Z"
                    id="Rectangle-3_Top_Isometric-Copy" fill="url(#linearGradient-14)"/>
                </g>
              </g>
              <g id="方块-copy-5" stroke="none" stroke-width="1" fill="none" fill-rule="evenodd"
                 transform="translate(542.183056, 75.253521)">
                <path
                  d="M1.21254695,10.1759351 L1.21254695,72.7178546 C1.21254695,73.4494945 1.61205207,74.1227436 2.25423397,74.4733136 L16.8142,82.4216648 C18.3123462,83.2395096 20.1241866,83.236626 21.619722,82.4140167 L36.0539713,74.4745541 C36.6930352,74.1230413 37.0900754,73.451513 37.0900754,72.7221544 L37.0900754,10.1759351 L1.21254695,10.1759351 Z"
                  id="Path-5" fill="url(#linearGradient-13)"/>
                <g id="Rectangle-3_Isometric">
                  <path
                    d="M1.6274327,8.92598692 L16.0532109,1.64751687 C18.0362881,0.646962998 20.3765406,0.646962998 22.3596179,1.64751687 L36.785396,8.92598692 C37.7715532,9.4235487 38.1676381,10.6263406 37.6700763,11.6124978 C37.4773822,11.9944136 37.1673118,12.304484 36.785396,12.4971781 L22.3596179,19.7756482 C20.3765406,20.776202 18.0362881,20.776202 16.0532109,19.7756482 L1.6274327,12.4971781 C0.64127548,11.9996163 0.245190614,10.7968245 0.742752389,9.81066723 C0.93544649,9.42875148 1.24551695,9.11868102 1.6274327,8.92598692 Z"
                    id="Rectangle-3_Top_Isometric" fill="url(#linearGradient-10)"/>
                  <path
                    d="M1.6274327,8.92598692 L16.0532109,1.64751687 C18.0362881,0.646962998 20.3765406,0.646962998 22.3596179,1.64751687 L36.785396,8.92598692 C37.7715532,9.4235487 38.1676381,10.6263406 37.6700763,11.6124978 C37.4773822,11.9944136 37.1673118,12.304484 36.785396,12.4971781 L22.3596179,19.7756482 C20.3765406,20.776202 18.0362881,20.776202 16.0532109,19.7756482 L1.6274327,12.4971781 C0.64127548,11.9996163 0.245190614,10.7968245 0.742752389,9.81066723 C0.93544649,9.42875148 1.24551695,9.11868102 1.6274327,8.92598692 Z"
                    id="Rectangle-3_Top_Isometric-Copy" fill="url(#linearGradient-14)"/>
                </g>
              </g>
              <g id="方块-copy-2" stroke="none" stroke-width="1" fill="none" fill-rule="evenodd"
                 transform="translate(218.863843, 163.242254)">
                <path
                  d="M1.32826417,10.1784869 L1.2694386,18.2557682 C1.26407592,18.9921119 1.66376808,19.6718411 2.30984984,20.0251245 L16.8030449,27.9501361 C18.3027967,28.770214 20.1175562,28.7673232 21.6146877,27.9424714 L35.9998497,20.0168971 C36.6336607,19.6676958 37.0294052,19.0033603 37.0346753,18.2797373 L37.0936754,10.1784869 L1.32826417,10.1784869 Z"
                  id="Path-5" fill="url(#linearGradient-13)"/>
                <g id="Rectangle-3_Isometric" transform="translate(0.115885, 0.000000)">
                  <path
                    d="M1.62998454,8.92835029 L15.9926494,1.66971534 C17.9779917,0.666358671 20.3220397,0.666358671 22.3073821,1.66971534 L36.6700469,8.92835029 C37.6558724,9.42656894 38.0511559,10.6296244 37.5529372,11.61545 C37.3603997,11.9964241 37.051021,12.3058027 36.6700469,12.4983403 L22.3073821,19.7569752 C20.3220397,20.7603319 17.9779917,20.7603319 15.9926494,19.7569752 L1.62998454,12.4983403 C0.644159026,12.0001216 0.248875564,10.7970661 0.74709422,9.81124061 C0.939631765,9.43026647 1.2490104,9.12088783 1.62998454,8.92835029 Z"
                    id="Rectangle-3_Top_Isometric" fill="url(#linearGradient-10)"/>
                  <path
                    d="M1.62998454,8.92835029 L15.9926494,1.66971534 C17.9779917,0.666358671 20.3220397,0.666358671 22.3073821,1.66971534 L36.6700469,8.92835029 C37.6558724,9.42656894 38.0511559,10.6296244 37.5529372,11.61545 C37.3603997,11.9964241 37.051021,12.3058027 36.6700469,12.4983403 L22.3073821,19.7569752 C20.3220397,20.7603319 17.9779917,20.7603319 15.9926494,19.7569752 L1.62998454,12.4983403 C0.644159026,12.0001216 0.248875564,10.7970661 0.74709422,9.81124061 C0.939631765,9.43026647 1.2490104,9.12088783 1.62998454,8.92835029 Z"
                    id="Rectangle-3_Top_Isometric-Copy" fill="url(#linearGradient-14)"/>
                </g>
              </g>
              <g id="方块-copy-3" stroke="none" stroke-width="1" fill="none" fill-rule="evenodd"
                 transform="translate(309.254160, 38.205634)">
                <path
                  d="M1.32826417,10.2536597 L1.26482921,28.606285 C1.26230218,29.3373891 1.65890441,30.0116125 2.29914364,30.3646186 L16.7876422,38.3530824 C18.2954323,39.1844264 20.1248873,39.1814993 21.6300093,38.3453346 L36.0014785,30.3613208 C36.6342527,30.0097855 37.0276913,29.3437725 37.0301933,28.6199121 L37.0936754,10.2536597 L1.32826417,10.2536597 Z"
                  id="Path-5" fill="url(#linearGradient-13)"/>
                <g id="Rectangle-3_Isometric" transform="translate(0.115885, 0.000000)">
                  <path
                    d="M1.59484653,9.01101143 L15.9717443,1.68463484 C17.968437,0.66713279 20.3315944,0.66713279 22.3282872,1.68463484 L36.7051849,9.01101143 C37.6893364,9.51252882 38.0805886,10.7169014 37.5790712,11.7010528 C37.3873377,12.0773006 37.0814327,12.3832056 36.7051849,12.5749391 L22.3282872,19.9013157 C20.3315944,20.9188178 17.968437,20.9188178 15.9717443,19.9013157 L1.59484653,12.5749391 C0.610695068,12.0734217 0.219442851,10.8690492 0.720960238,9.88489772 C0.912693753,9.50864991 1.21859872,9.20274495 1.59484653,9.01101143 Z"
                    id="Rectangle-3_Top_Isometric" fill="url(#linearGradient-10)"/>
                  <path
                    d="M1.59484653,9.01101143 L15.9717443,1.68463484 C17.968437,0.66713279 20.3315944,0.66713279 22.3282872,1.68463484 L36.7051849,9.01101143 C37.6893364,9.51252882 38.0805886,10.7169014 37.5790712,11.7010528 C37.3873377,12.0773006 37.0814327,12.3832056 36.7051849,12.5749391 L22.3282872,19.9013157 C20.3315944,20.9188178 17.968437,20.9188178 15.9717443,19.9013157 L1.59484653,12.5749391 C0.610695068,12.0734217 0.219442851,10.8690492 0.720960238,9.88489772 C0.912693753,9.50864991 1.21859872,9.20274495 1.59484653,9.01101143 Z"
                    id="Rectangle-3_Top_Isometric-Copy" fill="url(#linearGradient-14)"/>
                </g>
              </g>
              <g id="Rectangle-3_Isometric" stroke="none" stroke-width="1" fill="none" fill-rule="evenodd"
                 transform="translate(282.759455, 159.926761)">
                <path
                  d="M90.8451261,2.76670774 L3.21283784,53.2518243 C0.820082214,54.6302951 -0.00215813287,57.6874781 1.37631262,60.0802337 C1.81602802,60.8434937 2.44957791,61.4770436 3.21283784,61.9167589 L49.1474512,88.3797711 C53.782276,91.0499019 59.4882791,91.0499019 64.1231038,88.3797711 L151.755392,37.8946546 C154.148148,36.5161838 154.970388,33.4590008 153.591917,31.0662451 C153.152202,30.3029852 152.518652,29.6694353 151.755392,29.2297199 L105.820779,2.76670774 C101.185954,0.0965770072 95.4799508,0.0965770072 90.8451261,2.76670774 Z"
                  id="Rectangle-3_Top_Isometric" stroke="#254167"/>
              </g>
              <ellipse id="Oval-2-Copy-9" stroke="#254167" stroke-width="1" fill="none" cx="381.102874"
                       cy="166.13662" rx="3.47655068" ry="1.73661972"/>
              <ellipse id="Oval-2-Copy-10" stroke="#254167" stroke-width="1" fill="none" cx="390.373676"
                       cy="173.083099" rx="3.47655068" ry="1.73661972"/>
              <ellipse id="Oval-2-Copy-14" stroke="#254167" stroke-width="1" fill="none" cx="574.630862"
                       cy="167.294366" rx="3.47655068" ry="1.73661972"/>
              <ellipse id="Oval-2-Copy-13" stroke="#254167" stroke-width="1" fill="none" cx="583.901664"
                       cy="173.083099" rx="3.47655068" ry="1.73661972"/>
              <path d="M380.575184,183.446797 L450.002729,145.353203" id="Line-2-Copy-2"
                    stroke="url(#linearGradient-15)" stroke-width="1" fill="none" stroke-linecap="square"/>
              <path d="M424.616287,177.638579 L475.492639,148.845928" id="Line-2-Copy-3"
                    stroke="url(#linearGradient-15)" stroke-width="1" fill="none" stroke-linecap="square"/>
              <path d="M450.106197,127.874966 L519.533742,89.7813721" id="Line-2-Copy-4"
                    stroke="url(#linearGradient-15)" stroke-width="1" fill="none" stroke-linecap="square"/>
              <g id="5" stroke="none" stroke-width="1" fill="none" fill-rule="evenodd"
                 transform="translate(262.900151, 181.766197)">
                <ellipse id="Oval-2-Copy-5" stroke="url(#linearGradient-17)" stroke-width="1.5"
                         cx="80.0169205" cy="28.6378421" rx="28.3524522" ry="17.43173"/>
                <path d="M100.178664,15.5640446 L129.161171,0.622561786" id="Line-2-Copy" stroke="#13A2BA"
                      stroke-linecap="square"/>
                <path
                  d="M61.0686576,25.0875875 C60.6877081,26.0238757 60.4852313,27.0047806 60.4852313,28.0152804 C60.4852313,30.4584517 61.6688474,32.7286212 63.6968121,34.6134747 C64.2072165,35.0878604 64.7711057,35.5378385 65.3830707,35.9600242"
                  id="Oval-2-Copy-6" stroke="url(#linearGradient-5)" stroke-width="3"
                  opacity="0.418136161"/>
                <path
                  d="M93.7141107,20.2995219 C90.2478169,17.7811006 85.1148911,16.1866064 79.386866,16.1866064 C74.4431516,16.1866064 69.9427254,17.3743423 66.5744792,19.3187046"
                  id="Path" stroke="#254167" stroke-width="3"/>
                <path
                  d="M79.386866,39.8439543 C82.3297273,39.8439543 85.1155092,39.4230797 87.5989001,38.6722668 C88.6484196,38.3549616 89.643931,37.9787282 90.5744659,37.5504304 C92.5868034,36.6242108 94.295268,35.4545037 95.5889318,34.1107281 C95.7546346,33.9386066 95.9135319,33.7636292 96.0653907,33.5859419 C97.4841049,31.9259288 98.2885008,30.0293914 98.2885008,28.0152804"
                  id="Path" stroke="url(#linearGradient-5)" stroke-width="3"/>
                <g id="Oval-3-+-Oval-3-Copy-+-Oval-3-Copy-2-+-Oval-3-Copy-3-Mask-Copy"
                   transform="translate(68.045885, 9.960989)">
                  <mask id="mask-34" fill="white">
                    <use xlink:href="#path-33"/>
                  </mask>
                  <use id="Mask" fill="url(#linearGradient-18)" xlink:href="#path-33"/>
                  <ellipse id="Oval-3" fill="#FFFFFF" mask="url(#mask-34)" cx="13.8611988"
                           cy="11.2061121" rx="6.30054492" ry="6.22561786"/>
                  <ellipse id="Oval-3-Copy" fill="#FFFFFF" mask="url(#mask-34)" cx="5.67049043"
                           cy="1.86768536" rx="4.41038145" ry="4.3579325"/>
                  <ellipse id="Oval-3-Copy-2" fill="#FFFFFF" mask="url(#mask-34)" cx="-0.630054492"
                           cy="16.8091682" rx="4.41038145" ry="4.3579325"/>
                  <text id="5" mask="url(#mask-34)" font-family="DINAlternate-Bold, DIN Alternate" font-size="8"
                        font-weight="bold" letter-spacing="0.09647055" fill="#BB62D9">
                    <tspan x="11.3409809" y="14.2061121">5</tspan>
                  </text>
                </g>
              </g>
              <ellipse id="Oval-4" stroke="none" fill="url(#radialGradient-35)" fill-rule="evenodd"
                       cx="305.77761" cy="78.7267606" rx="5.79425113" ry="5.78873239"/>
              <path
                d="M428.997256,208.637059 L431.839475,207.384284 C432.738837,206.987869 433.763433,206.987869 434.662795,207.384284 L437.505014,208.637059 C438.010384,208.859813 438.23949,209.450074 438.016736,209.955444 C437.916029,210.183922 437.733491,210.36646 437.505014,210.467167 L434.662795,211.719941 C433.763433,212.116356 432.738837,212.116356 431.839475,211.719941 L428.997256,210.467167 C428.491885,210.244413 428.262779,209.654152 428.485533,209.148781 C428.58624,208.920303 428.768778,208.737766 428.997256,208.637059 Z"
                id="Rectangle-3_Top_Isometric-Copy-3" stroke="none" fill="url(#linearGradient-10)"
                fill-rule="evenodd"/>
              <path
                d="M543.538493,187.252143 L553.278807,182.038886 C554.310627,181.486631 555.55019,181.486631 556.582009,182.038886 L566.322324,187.252143 C566.809251,187.512759 566.992713,188.118762 566.732097,188.605689 C566.638945,188.779731 566.496366,188.922311 566.322324,189.015462 L556.582009,194.228719 C555.55019,194.780975 554.310627,194.780975 553.278807,194.228719 L543.538493,189.015462 C543.051566,188.754847 542.868104,188.148844 543.12872,187.661917 C543.221872,187.487874 543.364451,187.345295 543.538493,187.252143 Z"
                id="Rectangle-3_Top_Isometric-Copy-12" stroke="none" fill="url(#linearGradient-18)"
                fill-rule="evenodd"/>
              <path
                d="M536.410543,197.075197 L541.232902,194.732122 C542.198641,194.262891 543.326321,194.262891 544.29206,194.732122 L549.114419,197.075197 C549.611172,197.316558 549.818208,197.914918 549.576847,198.411671 C549.478888,198.613284 549.316033,198.776139 549.114419,198.874098 L544.29206,201.217174 C543.326321,201.686405 542.198641,201.686405 541.232902,201.217174 L536.410543,198.874098 C535.91379,198.632737 535.706754,198.034378 535.948115,197.537625 C536.046074,197.336012 536.20893,197.173157 536.410543,197.075197 Z"
                id="Rectangle-3_Top_Isometric-Copy-11" stroke="none" fill="url(#linearGradient-22)"
                fill-rule="evenodd"/>
              <path
                d="M439.067124,199.39069 L443.889483,197.047615 C444.855222,196.578384 445.982902,196.578384 446.948641,197.047615 L451.771,199.39069 C452.267753,199.632051 452.474789,200.230411 452.233428,200.727163 C452.135469,200.928777 451.972614,201.091632 451.771,201.189591 L446.948641,203.532667 C445.982902,204.001898 444.855222,204.001898 443.889483,203.532667 L439.067124,201.189591 C438.570371,200.94823 438.363335,200.349871 438.604696,199.853118 C438.702655,199.651505 438.86551,199.48865 439.067124,199.39069 Z"
                id="Rectangle-3_Top_Isometric-Copy-6" stroke="#254167" stroke-width="1" fill="none"/>
              <g id="Rectangle-3_Isometric" stroke="none" stroke-width="1" fill="none" fill-rule="evenodd"
                 transform="translate(471.493192, 178.292958)">
                <path
                  d="M24.6582067,1.28385902 C27.6195287,-0.427953008 31.2596667,-0.427953008 34.2209886,1.28385902 L41.893098,5.71877336 C42.3862056,6.00381749 42.7951664,6.41597279 43.0780013,6.91293205 C43.9582311,8.45955304 43.4277318,10.4324781 41.893098,11.3195834 L18.844974,24.6427062 C15.8836521,26.3545182 12.2435141,26.3545182 9.28219213,24.6427062 L1.61008273,20.2077919 C1.11697519,19.9227477 0.708014329,19.5105924 0.425179464,19.0136332 C-0.455050306,17.4670122 0.0754489542,15.4940872 1.61008273,14.6069818 L24.6582067,1.28385902 Z"
                  id="Rectangle-3_Top_Isometric" fill="url(#linearGradient-5)"/>
              </g>
              <g id="Rectangle-3_Isometric-Copy-2" stroke="none" stroke-width="1" fill="none" fill-rule="evenodd"
                 transform="translate(484.240545, 112.301408)">
                <path
                  d="M11.9866283,0.586109554 C13.4261598,-0.195369851 15.1956713,-0.195369851 16.6352028,0.586109554 L20.3647004,2.61074436 C20.6044055,2.7408732 20.8032059,2.92903106 20.9406951,3.15590376 C21.3685845,3.86196987 21.110703,4.76265302 20.3647004,5.1676359 L9.16075127,11.2499311 C7.72121977,12.0314105 5.95170823,12.0314105 4.51217673,11.2499311 L0.782679103,9.22529628 C0.542974049,9.09516744 0.344173632,8.90700959 0.206684461,8.68013688 C-0.22120501,7.97407078 0.036676575,7.07338762 0.782679103,6.66840474 L11.9866283,0.586109554 Z"
                  id="Rectangle-3_Top_Isometric" fill="url(#linearGradient-36)"/>
              </g>
            </g>
          </g>
        </g>
      </g>
    </g>
  </g>
</svg>
