<?xml version="1.0" encoding="UTF-8"?>
<svg width="25px" height="22px" viewBox="0 0 25 22" version="1.1" xmlns="http://www.w3.org/2000/svg" xmlns:xlink="http://www.w3.org/1999/xlink">
    <!-- Generator: Sketch 51.2 (57519) - http://www.bohemiancoding.com/sketch -->
    <title>微信充值</title>
    <desc>Created with Sketch.</desc>
    <defs>
        <linearGradient x1="50%" y1="0%" x2="50%" y2="100%" id="linearGradient-1">
            <stop stop-color="#B4EC51" offset="0%"></stop>
            <stop stop-color="#429321" offset="100%"></stop>
        </linearGradient>
    </defs>
    <g id="Page-1" stroke="none" stroke-width="1" fill="none" fill-rule="evenodd">
        <g id="充值" transform="translate(-265.000000, -171.000000)" fill="url(#linearGradient-1)" fill-rule="nonzero">
            <g id="微信" transform="translate(195.000000, 158.000000)">
                <g id="Group" transform="translate(14.000000, 13.000000)">
                    <g id="微信充值" transform="translate(56.000000, 0.000000)">
                        <path d="M0.0221267874,11.7769907 L0.0221267874,9.15485755 C0.061421878,9.06040172 0.119841826,8.96938961 0.137214085,8.87109035 C0.509164657,6.76554326 1.53421947,5.00956268 3.09184898,3.58387002 C7.62794254,-0.568066277 14.8829004,-1.17243601 20.0342175,2.17189066 C20.8917301,2.728602 21.6597064,3.42315365 22.556391,4.12204071 C22.2142654,4.32079152 22.0451858,4.43261959 21.8648834,4.52181761 C18.2017375,6.33375837 14.5172838,8.10437467 10.8850698,9.97630348 C9.78406902,10.5436842 8.95582791,10.4300727 8.05791335,9.66243463 C7.32025391,9.03174519 6.50040684,8.49720269 5.71696461,7.91998289 C6.31853632,9.57754123 6.98347829,11.1629971 7.74573561,12.7002411 C8.51964616,14.2609453 8.61370226,14.3319409 10.1054709,13.487127 C12.5779875,12.0868624 14.9795085,10.5606567 17.4043053,9.07682081 C19.2452715,7.95023827 21.0776285,6.80957345 22.9099547,5.66897011 C23.3007534,5.42569716 23.5019947,5.53189847 23.729894,5.92820095 C26.1300006,10.1023368 24.9355587,14.5613161 21.7255672,17.3819541 C18.1403043,20.5324188 13.9170957,21.3463316 9.32574917,20.4178849 C8.39053808,20.2287888 7.57963847,20.1842051 6.71197929,20.6295189 C5.86255327,21.0655161 4.94886532,21.3764025 3.95621818,21.7863875 C4.13501397,20.8193222 4.25981742,19.9797968 4.45395612,19.1566598 C4.56735231,18.6758944 4.51173039,18.3710345 4.07250462,18.058211 C2.78465229,17.1410794 1.73589128,15.9770466 1.04822703,14.5513232 C0.621792159,13.6672142 0.358594948,12.7044535 0.0221267874,11.7769907 Z" id="Shape"></path>
                    </g>
                </g>
            </g>
        </g>
    </g>
</svg>