<?xml version="1.0" encoding="UTF-8"?>
<svg width="36px" height="36px" viewBox="0 0 36 36" version="1.1" xmlns="http://www.w3.org/2000/svg" xmlns:xlink="http://www.w3.org/1999/xlink">
    <!-- Generator: Sketch 51.2 (57519) - http://www.bohemiancoding.com/sketch -->
    <title>聊天 (2)</title>
    <desc>Created with Sketch.</desc>
    <defs>
        <linearGradient x1="20.6419271%" y1="0%" x2="22.3776042%" y2="100%" id="linearGradient-1">
            <stop stop-color="#13A2BA" offset="0%"></stop>
            <stop stop-color="#087C95" offset="100%"></stop>
        </linearGradient>
    </defs>
    <g id="Page-1" stroke="none" stroke-width="1" fill="none" fill-rule="evenodd">
        <g id="玩法列表_时时彩" transform="translate(-315.000000, -108.000000)" fill="url(#linearGradient-1)" fill-rule="nonzero">
            <g id="彩票开奖区" transform="translate(15.000000, 75.000000)">
                <g id="聊天-(2)" transform="translate(300.000000, 33.000000)">
                    <path d="M27.3033392,17.8516696 C27.3033392,12.6390158 23.0643234,8.4 17.8516696,8.4 C12.6390158,8.4 8.4,12.6390158 8.4,17.8516696 C8.4,23.0608084 12.6390158,27.3033392 17.8516696,27.3033392 C19.4685413,27.3033392 21.0713533,26.8815465 22.4843585,26.0836555 C22.6776802,25.9746924 22.9096661,25.9465729 23.1240773,26.0133568 L26.0766257,26.8991213 L25.2787346,24.2383128 C25.2049209,23.9887522 25.2506151,23.7181019 25.4087874,23.5107205 C26.6495606,21.8551845 27.3033392,19.9008787 27.3033392,17.8516696 Z M13.7427065,19.085413 C13.0608084,19.085413 12.5089631,18.5335676 12.5089631,17.8516696 C12.5089631,17.1697715 13.0608084,16.6179262 13.7427065,16.6179262 C14.4246046,16.6179262 14.9764499,17.1697715 14.9764499,17.8516696 C14.9764499,18.5335677 14.4246046,19.085413 13.7427065,19.085413 Z M17.8516696,19.085413 C17.1697715,19.085413 16.6179262,18.5335676 16.6179262,17.8516696 C16.6179262,17.1697715 17.1697715,16.6179262 17.8516696,16.6179262 C18.5335677,16.6179262 19.085413,17.1697715 19.085413,17.8516696 C19.085413,18.5335677 18.5335677,19.085413 17.8516696,19.085413 Z M21.9606327,19.085413 C21.2787346,19.085413 20.7268893,18.5335676 20.7268893,17.8516696 C20.7268893,17.1697715 21.2787346,16.6179262 21.9606327,16.6179262 C22.6425308,16.6179262 23.1943761,17.1697715 23.1943761,17.8516696 C23.1943761,18.5335677 22.6425308,19.085413 21.9606327,19.085413 Z" id="Shape"></path>
                    <path d="M17.9964851,0 C8.05623901,0 0,8.05623901 0,17.996485 C0,27.9367311 8.05623901,35.9929701 17.9964851,35.9929701 C27.9367311,35.9929701 35.9929702,27.9367311 35.9929701,17.996485 C35.9929701,8.05623898 27.9367311,0 17.9964851,0 Z M28.2108963,28.0210896 C28.2987698,28.3093146 28.2179262,28.625659 28.0035149,28.8365554 C27.7891037,29.0509666 27.4797891,29.1318102 27.1880492,29.0439367 L23.1001758,27.8172232 C21.5184534,28.6432337 19.7539543,29.0790861 17.9718805,29.0790861 C11.8523726,29.0790861 6.87521967,24.1019332 6.87521967,17.9824253 C6.87521967,11.8629174 11.8523726,6.88576451 17.9718805,6.88576451 C24.0913884,6.88576451 29.0685413,11.8629174 29.0685413,17.9824253 C29.0685413,20.2495607 28.3866432,22.4182777 27.0931459,24.28471 L28.2108963,28.0210896 Z" id="Shape"></path>
                </g>
            </g>
        </g>
    </g>
</svg>