<?xml version="1.0" standalone="no"?><!DOCTYPE svg PUBLIC "-//W3C//DTD SVG 1.1//EN" "http://www.w3.org/Graphics/SVG/1.1/DTD/svg11.dtd"><svg t="1595218555204" class="icon" viewBox="0 0 1024 1024" version="1.1" xmlns="http://www.w3.org/2000/svg" p-id="6632" xmlns:xlink="http://www.w3.org/1999/xlink" width="200" height="200"><defs><style type="text/css"></style></defs><path d="M186.181818 93.090909h651.636364a93.090909 93.090909 0 0 1 93.090909 93.090909v651.636364a93.090909 93.090909 0 0 1-93.090909 93.090909H186.181818a93.090909 93.090909 0 0 1-93.090909-93.090909V186.181818a93.090909 93.090909 0 0 1 93.090909-93.090909z m535.272727 279.272727a69.818182 69.818182 0 1 0 0-139.636363 69.818182 69.818182 0 0 0 0 139.636363zM512 581.818182a69.818182 69.818182 0 1 0 0-139.636364 69.818182 69.818182 0 0 0 0 139.636364zM302.545455 791.272727a69.818182 69.818182 0 1 0 0-139.636363 69.818182 69.818182 0 0 0 0 139.636363z" fill="#a2cce8" p-id="6633"></path></svg>