<?xml version="1.0" encoding="UTF-8"?>
<svg width="30px" height="30px" viewBox="0 0 30 30" version="1.1" xmlns="http://www.w3.org/2000/svg" xmlns:xlink="http://www.w3.org/1999/xlink">
    <!-- Generator: Sketch 52.6 (67491) - http://www.bohemiancoding.com/sketch -->
    <title>withdraw_icon_default</title>
    <desc>Created with Sketch.</desc>
    <defs>
        <linearGradient x1="21.0702051%" y1="0%" x2="58.951029%" y2="126.133942%" id="linearGradient-1">
            <stop stop-color="#EFDAAF" offset="0%"></stop>
            <stop stop-color="#DBB579" offset="100%"></stop>
        </linearGradient>
    </defs>
    <g id="Page-1" stroke="none" stroke-width="1" fill="none" fill-rule="evenodd">
        <g id="银行卡icon" transform="translate(-233.000000, -59.000000)" fill="url(#linearGradient-1)" fill-rule="nonzero">
            <g id="withdraw_icon_default" transform="translate(233.000000, 59.000000)">
                <path d="M14.9999829,0.0216144643 C6.72990998,0.0216144643 0.0257354129,6.72578903 0.0257354129,14.9958619 C0.0257354129,23.2659005 6.72994423,29.9701436 14.9999829,29.9701436 C23.2700557,29.9701436 29.974196,23.2659005 29.974196,14.9958619 C29.9741961,6.72578903 23.2700558,0.0216144643 14.9999829,0.0216144643 Z M6.99397095,8.10149632 C6.99397095,7.56508286 7.42879614,7.13025767 7.9652096,7.13025767 L24.5305383,7.13025767 C25.0669175,7.13025767 25.501777,7.56508286 25.501777,8.10149632 L25.501777,10.0135828 C25.501777,10.5499962 25.0669518,10.9848214 24.5305383,10.9848214 L7.9652096,10.9848214 C7.42883039,10.9848214 6.99397095,10.5499962 6.99397095,10.0135828 L6.99397095,8.10149632 Z M4.39396232,13.2118486 C4.52638681,12.5779927 5.34937169,12.3381553 5.34937169,12.3381553 L21.0375465,12.3808806 C21.0520396,12.3795444 21.0652992,12.379236 21.075852,12.3809834 L21.0375465,12.3808806 C20.9108781,12.3925984 20.6561366,12.5094677 20.6561366,12.5094677 C20.2706836,12.5951239 19.94519,13.0148393 19.94519,13.0148393 C19.5683027,13.4259891 17.3069787,16.3639972 17.3069787,16.3639972 L5.3921998,16.3639972 C4.55276893,16.2012504 4.39396232,15.4903038 4.39396232,15.4903038 L4.39396232,13.2118486 Z M18.9087499,21.7303588 L5.41789664,21.7303588 C5.41789664,21.7303588 4.64202268,21.6918135 4.39396229,20.8652311 L4.39396229,18.5910587 C4.39396229,18.5910587 4.72408132,17.7302138 5.45215912,17.7559106 L16.2362761,17.7559106 C16.2362761,17.7559106 15.8251263,18.1499292 15.7908637,18.6253211 C15.7908637,18.6253211 15.7523185,18.9636632 15.7908637,19.0664506 C15.7908637,19.0664506 15.8379747,19.7388519 16.2362761,20.0386486 C16.2362761,20.0386486 16.5018103,20.2999 16.7759102,20.3213141 L18.9087499,20.3213141 L18.9087499,21.7303588 Z M25.3529407,19.0079303 L23.6226852,19.0478804 C23.6226852,19.0478804 23.0402573,19.1451858 22.9146167,19.7333699 L22.9031731,21.9604656 C22.9031731,21.9604656 22.88032,22.7256497 22.0580204,22.9997496 L20.847424,22.9997496 C20.847424,22.9997496 20.2592399,22.942634 20.213568,22.1088907 L20.2249775,19.7788362 C20.2249775,19.7788362 20.2364211,19.1277805 19.6539589,19.0592555 L18.1007034,19.0364025 C18.1007034,19.0364025 17.4668475,19.0364025 17.661013,18.5224652 L17.9579659,18.042859 L20.6418491,14.2397232 C20.6418491,14.2397232 21.0930175,13.5944578 21.4070675,13.5658829 C21.4070675,13.5658829 21.9323799,13.4231111 22.3378421,13.5658829 C22.3378421,13.5658829 22.5663044,13.6458173 22.7433044,14.0055734 L25.5703019,18.51109 C25.5703019,18.5111243 25.8896968,18.9907991 25.3529407,19.0079303 Z" id="Shape"></path>
            </g>
        </g>
    </g>
</svg>