<?xml version="1.0" encoding="UTF-8"?>
<svg width="20px" height="20px" viewBox="0 0 20 20" version="1.1" xmlns="http://www.w3.org/2000/svg" xmlns:xlink="http://www.w3.org/1999/xlink">
    <!-- Generator: Sketch 51.2 (57519) - http://www.bohemiancoding.com/sketch -->
    <title>支出</title>
    <desc>Created with Sketch.</desc>
    <defs>
        <linearGradient x1="21.8874283%" y1="-331.833227%" x2="64.6104601%" y2="100%" id="linearGradient-1">
            <stop stop-color="#2E6FDF" offset="0%"></stop>
            <stop stop-color="#5E53E2" offset="100%"></stop>
        </linearGradient>
    </defs>
    <g id="Page-1" stroke="none" stroke-width="1" fill="none" fill-rule="evenodd">
        <g id="资金明细" transform="translate(-230.000000, -369.000000)" fill="url(#linearGradient-1)" fill-rule="nonzero">
            <g id="投注支出" transform="translate(195.000000, 349.000000)">
                <g id="Group-4" transform="translate(35.000000, 19.000000)">
                    <g id="支出" transform="translate(0.000000, 1.000000)">
                        <path d="M1.7387887,15.5946056 L16.2286816,15.5946056 C17.1889881,15.5946056 17.9674703,16.3730879 17.9674703,17.3333944 L17.9674703,19.9415735 L0,19.9415735 L0,17.3333944 C-1.17603626e-16,16.3730879 0.77848222,15.5946056 1.7387887,15.5946056 Z" id="Shape"></path>
                        <path d="M18.5470691,17.9129893 L18.5470691,16.1742006 C18.5470691,15.5339966 18.0280813,15.0150088 17.3878773,15.0150088 L2.05466407,15.0150088 C2.19596588,14.1790572 2.91955978,13.5668795 3.76736904,13.5660195 L18.2572619,13.5660195 C19.2175684,13.5660195 19.9960506,14.3445017 19.9960506,15.3048082 L19.9960506,17.9129893 L18.5470613,17.9129873 L18.5470691,17.9129893 Z" id="Shape"></path>
                        <polygon id="Shape" points="3.63493671 2.40097371 17.5936319 6.13530672 17.1687887 7.71905161 3.20979552 3.98471276"></polygon>
                        <path d="M17.9674781,4.8271665 L16.31563,10.986816 C16.1084417,11.7597804 15.3138734,12.2184349 14.5409075,12.0112522 L3.34426485,9.009815 C2.5714452,8.80262255 2.11283132,8.0082546 2.31982863,7.23538267 L3.97022395,1.07572931 C4.17741279,0.302765357 4.97198087,-0.155888545 5.74494645,0.0512942551 L16.9418695,3.05156767 C17.313472,3.15079984 17.6303746,3.39370434 17.822752,3.72676041 C18.0151295,4.05981648 18.0671955,4.45569394 17.9674781,4.8271665 Z M16.0837916,4.02239727 L6.0066407,1.32205842 C5.5428983,1.1978227 5.06623693,1.47299935 4.9419221,1.93672055 L3.59176241,6.97544304 C3.53211174,7.19818126 3.5633905,7.43549305 3.67871719,7.63516847 C3.79404388,7.8348439 3.98397072,7.98052518 4.20671276,8.04016164 L14.28385,10.7404927 C14.7475924,10.8647284 15.2242538,10.5895518 15.3485686,10.1258306 L16.6987381,5.08711587 C16.7583093,4.86406159 16.7267137,4.62647245 16.6109185,4.42673912 C16.4951232,4.22700578 16.3046386,4.08153242 16.0814684,4.02239727 L16.0837916,4.02239727 Z" id="Shape"></path>
                    </g>
                </g>
            </g>
        </g>
    </g>
</svg>