<?xml version="1.0" encoding="UTF-8"?>
<svg width="20px" height="15px" viewBox="0 0 20 15" version="1.1" xmlns="http://www.w3.org/2000/svg" xmlns:xlink="http://www.w3.org/1999/xlink">
    <!-- Generator: Sketch 52.6 (67491) - http://www.bohemiancoding.com/sketch -->
    <title>rechargerecord_icon_recharge_selected</title>
    <desc>Created with Sketch.</desc>
    <g id="Page-1" stroke="none" stroke-width="1" fill="none" fill-rule="evenodd">
        <g id="充值催款" transform="translate(-51.000000, -692.000000)" fill="#FFFFFF" fill-rule="nonzero">
            <g id="Group-4" transform="translate(0.000000, 674.000000)">
                <g id="Group-8" transform="translate(51.000000, 15.000000)">
                    <g id="rechargerecord_icon_recharge_selected" transform="translate(0.000000, 3.000000)">
                        <path d="M18.6666667,0.0104166602 L1.33333334,0.0104166602 C0.6,0.0104166602 0,0.61041666 0,1.34375 L0,13.34375 C0,14.0770833 0.6,14.6770833 1.33333334,14.6770833 L18.6666667,14.6770833 C19.4,14.6770833 20,14.0770833 20,13.34375 L20,1.34375 C20,0.61041666 19.4,0.0104166602 18.6666667,0.0104166602 Z M17.0406667,8.88108334 L16.1516667,11.54775 C16.0610505,11.8199925 15.8062606,12.0035971 15.5193333,12.0034167 L11.5916667,12.0034167 C11.3774297,12.0033611 11.1762725,11.9003509 11.0510076,11.7265517 C10.9257427,11.5527525 10.8916345,11.3293426 10.9593333,11.1260833 L11.8483333,8.45941666 C11.9390092,8.18717123 12.1937178,8.00349104 12.4806667,8.00341666 L16.4086667,8.00341666 C16.6229264,8.00354359 16.8240678,8.10664262 16.9492712,8.28051425 C17.0744746,8.45438588 17.1084799,8.67783816 17.0406667,8.88108334 Z M16.6633333,4.01041666 L3.33,4.01041666 C2.96333334,4.01041666 2.66333334,3.71041666 2.66333334,3.34375 C2.66333334,2.97708334 2.96333334,2.67708334 3.33,2.67708334 L16.6633333,2.67708334 C17.03,2.67708334 17.33,2.97708334 17.33,3.34375 C17.33,3.71041666 17.03,4.01041666 16.6633333,4.01041666 Z" id="Shape"></path>
                    </g>
                </g>
            </g>
        </g>
    </g>
</svg>