<?xml version="1.0" encoding="UTF-8"?>
<svg width="20px" height="17px" viewBox="0 0 20 17" version="1.1" xmlns="http://www.w3.org/2000/svg" xmlns:xlink="http://www.w3.org/1999/xlink">
    <!-- Generator: Sketch 51.2 (57519) - http://www.bohemiancoding.com/sketch -->
    <title>personalpage_icon_record</title>
    <desc>Created with Sketch.</desc>
    <defs>
        <linearGradient x1="20.6419271%" y1="0%" x2="22.3776042%" y2="100%" id="linearGradient-1">
            <stop stop-color="#13A2BA" offset="0%"></stop>
            <stop stop-color="#087C95" offset="100%"></stop>
        </linearGradient>
    </defs>
    <g id="Page-1" stroke="none" stroke-width="1" fill="none" fill-rule="evenodd">
        <g id="首页_个人中心" transform="translate(-35.000000, -502.000000)" fill="url(#linearGradient-1)" fill-rule="nonzero">
            <g id="Group-6" transform="translate(15.000000, 321.000000)">
                <g id="personalpage_icon_record" transform="translate(20.000000, 181.000000)">
                    <path d="M20,4.72222221 L0,4.72222221 L0,3.30555555 C-1.58603289e-16,2.52315215 0.639593215,1.88888888 1.42857143,1.88888888 L3.37380953,1.88888888 C3.34688267,1.81303867 3.33319446,1.73319081 3.33333333,1.65277776 L3.33333333,0.708333333 C3.33333333,0.317131636 3.65312993,0 4.04761904,0 C4.44210815,0 4.76190475,0.317131636 4.76190475,0.708333333 L4.76190475,1.65277776 C4.76190475,1.73541664 4.74761904,1.81522221 4.72142857,1.88888888 L15.2785714,1.88888888 C15.2516446,1.81303867 15.2379564,1.73319081 15.2380952,1.65277776 L15.2380952,0.708333333 C15.2380952,0.317131636 15.5578919,9.43689571e-16 15.952381,9.43689571e-16 C16.3468701,9.43689571e-16 16.6666667,0.317131636 16.6666667,0.708333333 L16.6666667,1.65277776 C16.6666667,1.73541664 16.652381,1.81522221 16.6261905,1.88888888 L18.5714286,1.88888888 C19.3604068,1.88888888 20,2.52315215 20,3.30555555 L20,4.72222221 Z M20,6.13888888 L20,15.5833333 C20,16.3657367 19.3604068,17 18.5714286,17 L1.42857143,17 C0.639593215,17 0,16.3657367 0,15.5833333 L0,6.13888888 L20,6.13888888 Z M3.0952381,8.02777776 C2.700749,8.02777776 2.38095239,8.3449094 2.38095239,8.7361111 C2.38095239,9.12731279 2.700749,9.44444443 3.0952381,9.44444443 L7.38095239,9.44444443 C7.7754415,9.44444443 8.0952381,9.12731279 8.0952381,8.7361111 C8.0952381,8.3449094 7.7754415,8.02777776 7.38095239,8.02777776 L3.0952381,8.02777776 Z" id="Shape"></path>
                </g>
            </g>
        </g>
    </g>
</svg>