<?xml version="1.0" encoding="UTF-8"?>
<svg width="18px" height="18px" viewBox="0 0 18 18" version="1.1" xmlns="http://www.w3.org/2000/svg" xmlns:xlink="http://www.w3.org/1999/xlink">
    <!-- Generator: Sketch 51.2 (57519) - http://www.bohemiancoding.com/sketch -->
    <title>personalpage_icon_setting</title>
    <desc>Created with Sketch.</desc>
    <defs></defs>
    <g id="Page-1" stroke="none" stroke-width="1" fill="none" fill-rule="evenodd">
        <g id="首页_侧滑-" transform="translate(-339.000000, -30.000000)" fill="#878E97" fill-rule="nonzero">
            <g id="icon" transform="translate(339.000000, 30.000000)">
                <g id="personalpage_icon_setting">
                    <path d="M16.8721875,7.29283259 L16.8721473,7.29283259 L15.4297969,6.97250893 C15.3174174,6.61355357 15.1709062,6.26942411 15.0014129,5.93845313 L15.7818616,4.6393192 C16.0733371,4.17324777 16.2198683,3.48856473 15.7818616,3.04967411 L14.986567,2.25520312 C14.772375,2.04008705 14.4844554,1.94972545 14.1938237,1.94972545 C13.8927857,1.94972545 13.5881116,2.0480625 13.3608214,2.20604464 L12.0957589,3.01186607 C11.7674397,2.8415692 11.4250982,2.69584152 11.0686942,2.57996652 L10.7448348,1.1210625 C10.6482857,0.585602679 10.1803259,0.00626785714 9.55978795,0.00626785714 L8.43615402,0.00626785714 C7.81545536,0.00626785714 7.43540625,0.594401786 7.31252009,1.12986161 L6.95165625,2.5711875 C6.57162723,2.69232589 6.20547991,2.84763616 5.85789509,3.03117188 L4.56137277,2.20600446 C4.33313839,2.04800223 4.02938839,1.94968527 3.72742634,1.94968527 C3.43773884,1.94968527 3.1498192,2.04002679 2.93470313,2.25516295 L2.1403125,3.04963393 C1.70140179,3.48850446 1.84887723,4.17322768 2.1403125,4.63925893 L2.96104018,6.00689732 C2.80747768,6.31765848 2.67052902,6.63717857 2.5651808,6.97246875 L1.12377455,7.2928125 C0.588314732,7.38948214 0.00891964286,7.85730134 0.00891964286,8.47797991 L0.00891964286,9.60157366 C0.00891964286,10.2221116 0.597073661,10.6022813 1.13255357,10.7251674 L2.59234152,11.0893862 C2.69337054,11.3993237 2.81880804,11.6968259 2.96198438,11.9847455 L2.14035268,13.3541317 C1.84889732,13.8193393 1.70226563,14.5040424 2.14035268,14.942933 L2.93564732,15.7374241 C3.14985938,15.9524598 3.43775893,16.0437455 3.72827009,16.0437455 C4.02942857,16.0437455 4.33398214,15.9454286 4.56139286,15.7874464 L5.86060714,14.9587835 C6.21080357,15.1439464 6.57867857,15.301125 6.96139955,15.4222634 L7.32133929,16.8601138 C7.44424554,17.3955536 7.82427455,17.9837277 8.44497321,17.9837277 L9.56862723,17.9837277 C10.1891853,17.9837277 10.6571451,17.4043527 10.7536741,16.8689129 L11.0775536,15.4056496 C11.4304219,15.291442 11.7692879,15.147442 12.0932478,14.9798772 L13.3608817,15.7874464 C13.5881518,15.9454687 13.8928661,16.0437857 14.1938839,16.0437857 C14.4845156,16.0437857 14.7724554,15.9524598 14.9866272,15.7374643 L15.7819219,14.9429732 C16.2199286,14.5040826 16.0733973,13.8193795 15.7819219,13.3541317 L15.0006496,12.0532098 C15.1577277,11.7442366 15.2938728,11.4229888 15.4035402,11.0894062 L16.8634487,10.7251473 C17.3989286,10.6023013 17.9870826,10.2221317 17.9870826,9.60155357 L17.9870826,8.47795982 C17.9870223,7.85734152 17.4076875,7.38950223 16.8721875,7.29283259 Z M9.01374107,11.7126362 C7.51522098,11.7126362 6.29499777,10.4959888 6.29499777,9.00196875 C6.29499777,7.50794866 7.51520089,6.29214509 9.01374107,6.29214509 C10.5121607,6.29214509 11.7315603,7.50794866 11.7315603,9.00196875 C11.7315603,10.4959888 10.5121607,11.7126362 9.01374107,11.7126362 Z" id="Shape"></path>
                </g>
            </g>
        </g>
    </g>
</svg>