<?xml version="1.0" encoding="UTF-8"?>
<svg width="30px" height="30px" viewBox="0 0 30 30" version="1.1" xmlns="http://www.w3.org/2000/svg" xmlns:xlink="http://www.w3.org/1999/xlink">
    <!-- Generator: Sketch 56.3 (81716) - https://sketch.com -->
    <title>notice_icon</title>
    <desc>Created with Sketch.</desc>
    <g id="站内信" stroke="none" stroke-width="1" fill="none" fill-rule="evenodd">
        <g id="首页_消息中心_系统公告" transform="translate(-46.000000, -87.000000)">
            <g id="编组" transform="translate(46.000000, 80.000000)">
                <g id="notice_icon" transform="translate(0.000000, 7.000000)">
                    <rect id="矩形" fill="#FF9D4C" x="0" y="0" width="30" height="30" rx="10"></rect>
                    <g id="公告-(3)" transform="translate(6.666667, 8.333333)" fill="#FFFFFF" fill-rule="nonzero">
                        <path d="M15.9156376,5.97200521 L12.7211232,5.97200521 C12.546854,5.97200521 12.3800193,6.04242272 12.2576235,6.16675067 C12.1352977,6.29072763 12.0667213,6.45789019 12.0667213,6.63205645 L12.0667213,6.83782762 C12.0667213,7.20119288 12.3614541,7.49605175 12.7229503,7.49605175 L15.9156376,7.49605175 C16.2771967,7.49605175 16.5700605,7.20119288 16.5700605,6.83782762 L16.5700605,6.63205645 C16.5700605,6.45788974 16.501486,6.29072636 16.3791583,6.16675067 C16.2567624,6.04242272 16.0898858,5.97200521 15.9156376,5.97200521 L15.9156376,5.97200521 Z M8.50869456,0.322790659 C7.51495296,1.11258821 5.43661794,2.21946405 3.9422463,3.28553427 L3.94044019,3.28553427 C3.92368112,3.29666499 3.90704805,3.35595178 3.88846186,3.36521337 C3.71238659,3.46532678 3.63264449,3.73792423 2.67221102,3.73792423 L0.799731183,3.73792423 C0.317645329,3.73792423 0.0209803427,3.9640667 0.0209803427,4.47213122 L0.0209803427,8.98296791 C0.0209803427,9.49092742 0.293577789,9.74124244 0.799710181,9.74124244 L2.6796455,9.74124244 C3.63453461,9.74315356 3.71238659,10.015646 3.88848286,10.1139533 C3.90522093,10.1231939 3.921875,10.1824807 3.93852907,10.1936114 L3.94041919,10.1936114 C5.39026798,11.2596816 7.48166583,12.4518859 8.50869456,13.2101394 C8.81842238,13.438172 9.84555612,13.8387097 9.84555612,12.4296035 L9.84555612,1.04586694 C9.84555612,-0.365045363 8.80907678,0.0854124664 8.50869456,0.322790659 L8.50869456,0.322790659 Z M11.4566742,3.43382476 C11.6272471,3.73229587 11.9628276,3.80834173 12.2075353,3.60065944 L14.8309812,1.38886089 C15.077579,1.18300571 15.1368658,0.773269489 14.968225,0.472992272 L14.8718288,0.304246472 C14.703083,0.00577536962 14.3656544,-0.0684643817 14.1208627,0.137390793 L11.4974378,2.34921035 C11.2527722,2.55689264 11.1915533,2.96480175 11.3602991,3.26509997 L11.4566952,3.43384577 L11.4566742,3.43382476 Z M12.2057712,9.87483199 C11.9609795,9.66895581 11.625399,9.74500168 11.4567162,10.0416667 L11.3603201,10.2103075 C11.1915743,10.5088836 11.2527932,10.9186198 11.4974588,11.1263021 L14.1208837,13.3399698 C14.3656754,13.5457409 14.7012559,13.4716062 14.8699387,13.1731351 L14.9663348,13.0043893 C15.1350806,12.7059182 15.0739037,12.2960769 14.8291961,12.0885207 L12.2057502,9.87478999 L12.2057712,9.87483199 Z" id="形状"></path>
                    </g>
                </g>
            </g>
        </g>
    </g>
</svg>