<?xml version="1.0" encoding="UTF-8"?>
<svg width="345px" height="184px" viewBox="0 0 345 184" version="1.1" xmlns="http://www.w3.org/2000/svg" xmlns:xlink="http://www.w3.org/1999/xlink">
    <!-- Generator: Sketch 51.2 (57519) - http://www.bohemiancoding.com/sketch -->
    <title>建设银行</title>
    <desc>Created with Sketch.</desc>
    <defs>
        <linearGradient x1="50%" y1="31.1740451%" x2="64.6104601%" y2="100%" id="linearGradient-1">
            <stop stop-color="#2E6FDF" offset="0%"></stop>
            <stop stop-color="#5E53E2" offset="100%"></stop>
        </linearGradient>
        <rect id="path-2" x="0" y="0" width="345" height="184" rx="10"></rect>
        <linearGradient x1="0%" y1="31.5359933%" x2="58.951029%" y2="70.968192%" id="linearGradient-4">
            <stop stop-color="#EFDAAF" offset="0%"></stop>
            <stop stop-color="#DBB579" offset="100%"></stop>
        </linearGradient>
    </defs>
    <g id="Page-1" stroke="none" stroke-width="1" fill="none" fill-rule="evenodd">
        <g id="银行卡1" transform="translate(-15.000000, -50.000000)">
            <g id="建设银行" transform="translate(15.000000, 50.000000)">
                <g>
                    <g id="建设银行background">
                        <mask id="mask-3" fill="white">
                            <use xlink:href="#path-2"></use>
                        </mask>
                        <use id="Mask" fill="url(#linearGradient-1)" xlink:href="#path-2"></use>
                        <g id="建设银行" opacity="0.130245536" mask="url(#mask-3)" fill="#003B90" fill-rule="nonzero">
                            <g transform="translate(177.000000, 71.000000)" id="Shape">
                                <path d="M77.7170441,6.20164991 C77.7170441,6.20164991 92.6508683,-5.33000304 118.333041,3.06058002 C118.333041,3.06058002 126.970983,6.20164991 136.936028,15.1144357 L167.857898,47.6029144 L151.349612,64.1092367 L104.180558,16.1509889 C104.180558,16.1509889 96.3161042,6.45686184 77.7170441,6.1937972 L77.7170441,6.20164991 Z M145.838998,69.8731 L126.45467,88.7352248 C126.45467,88.7352248 123.3136,93.1896546 120.690807,88.9982894 L85.0514424,54.1520452 C85.0514424,54.1520452 81.9103725,49.96068 79.55457,53.6298423 L43.6482147,90.3057598 C43.6482147,90.3057598 41.2924122,93.974922 44.1802334,95.5415306 L79.287579,130.666545 C79.287579,130.666545 82.1655843,135.37815 84.7844514,131.712914 L121.214973,95.0291437 C121.214973,95.0291437 122.261342,91.8880738 128.027168,92.6733412 L165.233141,92.6733412 C165.233141,92.6733412 166.803676,130.405443 137.980433,153.988989 C137.980433,153.988989 100.507469,191.45999 49.1470502,168.402573 C49.1470502,168.402573 -0.379769497,151.107057 0.144396515,86.9094779 C0.144396515,86.9094779 1.45383009,43.9357152 40.4992921,21.1433268 C40.4992921,21.1433268 69.0614333,-0.0824529571 91.8597113,15.6464545 L145.838998,69.8750631 L145.838998,69.8731 Z"></path>
                            </g>
                        </g>
                    </g>
                    <g id="建设银行-(1)" transform="translate(19.000000, 15.000000)" fill="#FFFFFF" fill-rule="nonzero">
                        <path d="M9,0.800794358 C9,0.800794358 14.3830175,-2.96620063 21,5.84018583 L18.7145813,8 C18.7145813,8 11.6665818,-0.999076502 9,0.800794358 Z" id="Shape"></path>
                        <path d="M19.9170804,11.5235874 C18.7617836,11.4198986 15.6100356,11.5235874 15.6100357,11.5235874 L10.3041432,16.9197387 L5.26116605,11.5752014 L10.4614943,6.17905011 L15.5570669,11.2642578 L18.2887975,8.61802656 L13.4560156,3.48111271 C13.4560156,3.48111271 11.6623571,0.942410661 8.91557262,1.00099869 C3.86761892,1.77265867 0,6.15253649 0,11.4400833 C0,17.2720964 4.70507219,22 10.5100774,22 C16.104172,22 20.6751272,17.6091849 21,12.0706036 C20.9420548,11.8960991 20.7246746,11.5960928 19.9170804,11.5235874 Z" id="Shape"></path>
                        <path d="M39.8964783,3.87895254 C39.873466,3.0941326 39.134905,3.16350442 39.134905,3.16350442 L34.5441013,3.16350442 L34.5441013,2.1026012 L32.3061082,2.1026012 L32.3061082,3.14049238 C32.3061082,3.14049238 28.8682702,3.11772452 27.922751,3.14049238 C26.9766215,3.16350442 27.0230123,3.92506815 27.0230123,3.92506815 L27,10.731134 L32.2599615,10.731134 L32.2599615,12 L34.5674799,12 L34.5674799,10.7545123 L39.8968445,10.7545123 C39.8964783,10.7545123 39.9192464,4.66328415 39.8964783,3.87895254 Z M32.3057419,9.66986458 L29.2830411,9.66986458 L29.2830411,4.24815211 L32.3057419,4.24815211 L32.3057419,9.66986458 Z M37.5894482,9.69263244 L34.5667474,9.69263244 L34.5667474,4.27116412 L37.5894482,4.27116412 L37.5894482,9.69263244 Z M55.2616832,2.0100648 C55.2616832,2.0100648 44.8565167,1.987419 44.1182914,2.0100648 C43.3800968,2.03283266 43.1725281,2.70225674 43.1725281,2.70225674 L43.1725281,11.8615616 L56,11.8615616 L56,2.77162853 C56,2.07958917 55.2616832,2.01006478 55.2616832,2.0100648 Z M53.7392387,10.8463162 L45.4565459,10.8463162 L45.4565459,3.07136474 L53.7392387,3.07136474 L53.7392387,10.8463162 Z" id="Shape"></path>
                        <polygon id="Shape" points="54 5.15428245 54 4 46.0230261 4 46.0230261 5.15428245 48.6662677 5.15428245 48.6662677 6.30856491 46.1185008 6.30856491 46.1185008 7.53673027 48.6662677 7.53673027 48.6662677 9.77183464 46 9.77183464 46 11 53.9762494 11 53.9762494 9.77183464 51.1906305 9.77183464 51.1906305 7.53673027 53.9052498 7.53673027 53.9052498 6.30856491 51.1906305 6.30856491 51.1906305 5.15428245 54 5.15428245"></polygon>
                        <path d="M51,7.3164534 L52.5815029,7.3164534 L52.9767324,8.01816685 L53.4417048,8.01816685 L53.4417048,9.0134231 L52.2090697,9.0134231 C52.2094388,9.0134231 51.7676628,9.2398653 51,7.3164534 Z M72.0235865,7.02255144 L72.0235865,5.37083426 L72.7906648,5.37083426 L72.7906648,4.21695472 L71.9772247,4.21695472 L71.9772247,3.35754581 C71.9310781,2.54326972 71.1164382,2.54326972 71.1164382,2.54326972 L68.418774,2.54326972 L68.418774,2 L66.2788367,2 L66.2788367,2.58840252 L63.604738,2.58840252 L63.604738,3.69693977 L66.2330594,3.69693977 L66.2330594,4.19438831 L63.3491478,4.19438831 L63.3491478,5.30316498 L66.2566249,5.30316498 L66.2566249,5.86864197 L63.6283035,5.86864197 L63.6283035,6.97741861 L66.2330594,6.97741861 L66.2330594,7.47486718 L63.4190752,7.47486718 L63.4190752,8.67435838 L66.2098631,8.67435838 L66.2098631,9.14947998 L63.0698383,9.14947998 L63.0698383,10.3257164 L66.2098323,10.3257164 L66.2098323,10.8457314 L63.6747885,10.8457314 L62.977053,10.7102432 C62.8838063,10.6647512 62.2322174,10.3028208 62.2322174,10.3028208 C62.6513817,9.94121958 62.7913902,8.92267863 62.7913902,8.92267863 L62.86061,5.61963336 L61.8373262,5.61963336 C62.7680708,4.98633743 63.1862814,3.40267863 63.1862814,3.40267863 L63.1862814,2.45267488 L59.0232498,2.45267488 L59.0232498,3.65168722 L61.2788918,3.65168722 C60.8600967,5.6651253 59.1625507,5.64219975 59.1625507,5.64219977 L59.1625507,6.79610924 L61.2092105,6.79610924 L61.2092105,8.51594463 C61.069325,9.12691359 60.9767859,8.99085671 60.9767859,8.99085671 C60.7211957,9.05888514 60.4183514,7.67910213 60.4183514,7.67910213 L59.1625507,7.67910213 L59.1625507,8.10876169 C59.348552,9.03631875 60.0227527,10.1676618 60.0227527,10.1676618 C59.8602554,10.3934156 58.9768571,10.5296221 58.9768571,10.5296221 L58.9768571,11.9548971 C60.3955243,12.0907445 61.3024573,11.2535129 61.3024573,11.2535129 C61.8369878,11.6835017 63.4420254,12 63.4420254,12 L72.6278291,12 L72.6278291,10.8686569 L68.3952085,10.8686569 L68.3952085,10.3708492 L71.9768555,10.3708492 L71.9768555,9.17180694 L68.3488159,9.17180694 L68.3488159,8.62913579 L71.9768555,8.62913579 L71.9768555,7.49779273 L68.3488159,7.49779273 L68.3488159,7.02255144 L72.0235865,7.02255144 Z M68.3952085,3.69693977 L69.7209674,3.69693977 L69.7209674,4.23985035 L68.3952085,4.23985035 L68.3952085,3.69693977 Z M68.3720122,5.34829778 L69.697771,5.34829778 L69.697771,5.89156752 L68.3720122,5.89156752 L68.3720122,5.34829778 Z M75.3260778,2.29426111 L79.4881557,2.29426111 L79.4881557,3.47034792 L75.3260778,3.47034792 L75.3260778,2.29426111 Z M74.6509542,4.53402169 L78.2791168,4.53402169 L78.2791168,9.57925926 L79.9997668,8.15365507 L79.9997668,10.0769472 C79.9997668,10.0769472 78.3484597,11.6603666 76.254915,12 L75.1854847,10.8009577 L76.1856952,10.4386681 L76.1856952,5.50704076 L74.6506158,5.50704076 L74.6506158,4.53402169 L74.6509542,4.53402169 Z M79.8375772,4.85081931 L80.7210062,4.85081931 C80.7210062,4.85081931 80.9070382,4.80535727 80.9070382,4.57924428 L80.9070382,2.02289563 L87.1863186,2.02289563 C87.1863186,2.02289563 87.8843925,2.02289563 87.9304467,2.7468163 C87.9773008,3.47070706 87.9304467,4.76046389 87.9304467,4.76046389 L89,4.76046389 L89,5.95959595 C89,5.95959595 87.5116516,5.98183312 87.0006865,5.95959595 C86.5338068,5.93891507 85.8373942,5.71058734 85.7674361,4.89631125 L85.7674361,3.13131312 L83.0472217,3.13131312 L83.0472217,5.05436588 C83.0472217,5.05436588 83.0933682,5.82350917 82.1632389,5.91413391 C81.2323712,6.00448933 79.8380079,5.91413391 79.8380079,5.91413391 L79.8380079,4.85081931 L79.8375772,4.85081931 Z" id="Shape"></path>
                        <path d="M80.0702729,6.10058003 L89.1335867,6.10058003 L89.1335867,7.27567572 L86.7978948,9.62636456 C86.7978948,9.62636456 86.2838893,9.81475673 89.67148,10.2612203 L89.67148,11.7653416 C89.67148,11.7653416 86.5637138,11.7418975 84.8122694,10.6607336 C84.8122694,10.6607336 83.7609577,11.6011708 80,11.8126028 L80,10.3550277 C80,10.3550277 82.709677,10.0732324 82.8026015,9.74408244 C82.8026015,9.74408244 80.3966677,7.9808948 80.3270129,7.60510545 L82.6861291,7.60510545 L84.7652972,8.80364523 L86.7274984,7.22906739 L80.0702729,7.22906739 L80.0702729,6.10058003 Z M94.0624521,1 L95.7213118,1.65817546 L95.3008799,2.52793842 L97.8474521,2.52793842 L97.8474521,3.63257749 L94.5770756,3.63257749 L94.0155108,4.47889638 L97.6842238,4.47889638 L97.6842238,5.70112895 L95.5573727,5.70112895 L95.5573727,6.61774899 L97.8474212,6.61774899 L97.8474212,7.81628874 L95.5806425,7.81628874 L95.5806425,9.95514136 C95.5806425,9.95514136 96.8661352,9.39111534 97.7771484,8.49790829 L97.7771484,10.2842913 C97.7771484,10.2842913 97.1459287,11.4358185 93.8051867,12 L92.6141019,10.589624 L93.6419892,10.4250491 L93.6419892,7.86317692 L92.2406112,7.86317692 L92.2406112,6.61774899 L93.7356555,6.61774899 L93.7356555,5.67768486 L92.7309452,5.67768486 L92.2640046,6.05372295 C92.2640046,6.05372295 91.2360245,4.78447782 91.1657826,4.69073261 C91.0955406,4.59645879 93.0584835,3.93828333 94.0624521,1 Z M101.934928,9.60254736 C101.934928,9.60254736 101.164059,8.75672596 100.74372,7.22881864 L102.472234,7.22881864 C102.472234,7.22881864 103.056482,8.68592732 103.196286,8.61559508 C103.336183,8.54526284 103.593077,8.61522197 104.341511,7.1579889 L106,7.1579889 C106,7.1579889 105.906457,8.16888274 104.434837,9.67300398 C104.434837,9.67300398 104.761974,10.0962722 106,10.213617 L106,11.8589002 C106,11.8589002 103.827876,11.9526455 101.981931,9.69647914 L101.934928,9.60254736 Z" id="Shape"></path>
                        <path d="M105.772312,6.68323716 C105.772312,6.68323716 105.819961,2.93421229 105.772312,2.24175708 C105.724663,1.54920711 105.037708,1.4777568 105.037708,1.47775683 L98.4737594,1.47775683 L98.4501231,10.3604327 L98,10.3604327 L98.0470217,11.9600099 C101.080298,12.1986514 102.146719,11.2912767 102.146719,11.2912767 L102.146719,9.83504232 L102.07534,9.71561101 C101.602302,10.0496143 100.511241,10.2644391 100.511241,10.2644391 L100.511241,6.75478223 L105.772312,6.68323716 Z M100.534878,2.64758979 L103.663169,2.64758979 L103.663169,3.53117931 L100.534878,3.53117931 L100.534878,2.64758979 Z M100.534878,4.72482905 L103.663169,4.72482905 L103.663169,5.60838698 L100.534878,5.60838698 L100.534878,4.72482905 Z M114.232176,1.69258156 L122.739061,1.69258156 L122.739061,2.9339596 L114.232176,2.9339596 L114.232176,1.69258156 Z M113.73478,4.84463941 L113.73478,6.08601745 L118.995224,6.08601745 L119.01886,6.10983423 L119.01886,10.3362369 C119.01886,10.3362369 118.995224,10.6702402 118.61648,10.7182528 L116.127871,10.7420696 L116.10411,11.9596624 L119.824467,11.9596624 C119.824467,11.9596624 121.412171,11.6970778 121.412171,10.1686666 L121.412171,6.08601745 L123,6.08601745 L123,4.84463941 L113.73478,4.84463941 Z M112.501808,2.05040167 L111.340842,1 C109.848028,3.74597245 108.117661,4.48618754 108.117661,4.48618754 L108.900259,5.91920529 C111.080373,4.86820348 112.501808,2.05040165 112.501808,2.05040167 Z" id="Shape"></path>
                        <path d="M113.625111,4.28330773 L112.318497,3 L112.295228,3.04774062 C110.289079,6.56423384 107.932761,7.13438679 107.932761,7.13438679 L108.819493,8.65510896 C108.959197,8.72632702 109.89225,8.13213091 109.89225,8.13213088 L109.89225,12.1945768 L112.108988,12.1945768 L112.062081,6.42157775 C112.948227,5.63707922 113.625111,4.28330775 113.625111,4.28330773 Z M31.632647,16.557295 C31.4294028,15.7310588 30.8549741,15.3065163 29.9079721,15.2836045 C28.6004015,15.3526854 27.924505,16.1904561 27.8791716,17.7975136 C27.8791716,19.5194755 28.5667641,20.3799693 29.9418564,20.3799693 C30.8888584,20.3570576 31.4743659,19.7718815 31.7005082,18.6241584 L32.5119112,18.6241584 C32.2633336,20.1625437 31.3506788,20.9539566 29.7729594,21 C28.8934484,20.9768997 28.1945303,20.7015191 27.6762977,20.1737638 C27.225556,19.5541416 27,18.7731946 27,17.8321798 C27,16.7995495 27.2820916,15.9841249 27.8456576,15.3872259 C28.3642605,14.8363389 29.0511123,14.5606125 29.9079721,14.5606125 C31.3728672,14.606656 32.2188642,15.2723844 32.4440499,16.5577036 L31.632647,16.5577036 L31.632647,16.557295 Z M37.0866647,20.9295048 L36.3421663,20.9294734 L36.3421663,18.0025248 C36.3648176,17.2907214 36.0604451,16.9462285 35.4293882,16.969926 C34.6181087,16.992272 34.2006649,17.4859268 34.1783531,18.4500733 L34.1783531,20.9295048 L33.4010505,20.9295048 L33.4010505,14.730989 L34.1783531,14.730989 L34.1783531,17.0034292 L34.21233,17.0034292 C34.5728987,16.4987428 35.0122839,16.2463368 35.5305165,16.2463368 C36.0042798,16.2463368 36.3761432,16.3841842 36.6465389,16.6595335 C36.9392463,16.8432358 37.0862944,17.2453066 37.0862944,17.8649288 L37.0862944,20.9294734 L37.0866647,20.9295048 Z M39.0119298,20.9294734 L38.2348741,20.9294734 L38.2348741,16.3841842 L39.0119298,16.3841842 L39.0119298,20.9294734 Z M38.2348741,15.5922056 L38.2348741,14.7310204 L39.0119298,14.7310204 L39.0119298,15.5922056 L38.2348741,15.5922056 Z M43.7819657,20.9298505 L43.0385474,20.9298505 L43.0385474,18.1749441 C43.0837574,17.3256076 42.7564558,16.9238825 42.0575377,16.9695488 C41.7196512,16.9695488 41.4379299,17.0956418 41.2123739,17.3482993 C41.0095,17.5552905 40.8966757,17.9222866 40.8740244,18.4503876 L40.8740244,20.9298505 L40.0963515,20.9298505 L40.0963515,16.3845614 L40.8407265,16.3845614 L40.8407265,17.0386926 C41.2010482,16.5105287 41.6634859,16.2466825 42.2265581,16.2466825 C43.2410819,16.2694057 43.7594379,16.8093554 43.7815954,17.8649288 L43.7815954,20.9298505 L43.7819657,20.9298505 Z M44.8949946,17.7959107 C44.9172756,16.7633433 45.5373772,16.2466825 46.7544045,16.2466825 C47.8365734,16.2927259 48.3886594,16.7290544 48.4109712,17.5556677 L48.4109712,20.1723809 C48.4109712,20.356649 48.5011442,20.4477301 48.6817372,20.4477301 L48.7828655,20.4477301 C48.8507268,20.4253841 48.906892,20.4138497 48.9522254,20.4138497 L48.9522254,20.9298505 L48.5124699,20.9298505 C47.9712157,20.9298505 47.7121766,20.7346452 47.7350747,20.344486 C47.2839936,20.7577455 46.7315063,20.9641081 46.0781376,20.9641081 C45.176469,20.941385 44.7034155,20.5399427 44.6578661,19.7589957 C44.680394,18.9327595 45.1428316,18.4615763 46.0442841,18.3470177 L47.2949488,18.209516 C47.565684,18.1633783 47.70082,17.9802102 47.7008201,17.6586604 C47.7008201,17.1536283 47.3402823,16.9008451 46.6184351,16.9008451 C45.9873782,16.9008451 45.6494917,17.1992632 45.6045286,17.7959107 L44.8949946,17.7959107 Z M47.6675529,18.6223984 C47.4872377,18.7369884 47.0701335,18.840924 46.4161476,18.9327595 C45.7850907,18.9785515 45.4691456,19.2194231 45.4691456,19.6560029 C45.4691456,20.1839468 45.7285551,20.4474159 46.247158,20.4474158 C47.1262988,20.3786493 47.5993214,20.0233447 47.6675529,19.3802766 L47.6675529,18.6223984 Z M56.5563236,16.557295 C56.3534498,15.7310588 55.7783113,15.3065163 54.8319265,15.2836045 C53.524325,15.3526854 52.8486754,16.1904561 52.8028791,17.7975136 C52.8028791,19.5194755 53.4907184,20.3799693 54.8651936,20.3799693 C55.8125659,20.3570576 56.3982894,19.7718815 56.6242157,18.6241584 L57.4358347,18.6241584 C57.1872879,20.1625437 56.2742629,20.9539566 54.696883,21 C53.8173719,20.9768997 53.1188241,20.7015191 52.6002212,20.1737638 C52.1498498,19.5541102 51.9246642,18.7731632 51.9246642,17.8321483 C51.9246642,16.7995181 52.206046,15.9840935 52.769828,15.3871944 C53.288184,14.8363074 53.975653,14.5605811 54.832266,14.5605811 C56.297161,14.6066245 57.1424483,15.272353 57.3683438,16.5576722 L56.5563236,16.5576722 L56.5563236,16.557295 Z M58.6583242,16.935417 C59.0640719,16.4763968 59.5713492,16.2466825 60.1801252,16.2466825 C60.8110895,16.2466825 61.3184593,16.4760197 61.7015558,16.935417 C62.0618776,17.3944685 62.2537962,17.9686444 62.2764475,18.6573788 C62.2764475,19.3690879 62.0957619,19.9426666 61.7351933,20.3786178 C61.3523437,20.7693114 60.8337407,20.9641081 60.1801252,20.9641081 C59.593661,20.9641081 59.1312542,20.8377008 58.7937071,20.585609 C58.3432432,20.1032372 58.1067319,19.4605462 58.0834634,18.6573788 C58.1060838,17.9455755 58.2976321,17.3717453 58.6583242,16.935417 Z M60.179724,20.4138497 C60.9910343,20.3901523 61.4304195,19.8054477 61.4982808,18.6573788 C61.4304195,17.5323474 60.9910343,16.9583915 60.179724,16.935417 C59.368105,16.9583915 58.9283495,17.5325674 58.8611981,18.6573788 C58.9286889,19.8051648 59.368105,20.3901523 60.179724,20.4138497 Z M66.811515,20.9298505 L66.0677264,20.9298505 L66.0677264,18.1749441 C66.1133067,17.3256076 65.7860051,16.9238825 65.0872104,16.9695488 C64.7488301,16.9695488 64.4671089,17.0956418 64.2415837,17.3482993 C64.0387099,17.5552905 63.9259781,17.9222866 63.9036972,18.4503876 L63.9036972,20.9298505 L63.1259317,20.9298505 L63.1259317,16.3845614 L63.8700597,16.3845614 L63.8700597,17.0386926 C64.2302581,16.5105287 64.6923254,16.2466825 65.2561074,16.2466825 C66.2703843,16.2694057 66.7889872,16.8093554 66.811299,17.8649288 L66.811299,20.9298505 L66.811515,20.9298505 Z M70.4961417,17.7277727 C70.4961417,17.1996403 70.1359433,16.935417 69.4137567,16.935417 C68.8506845,16.9583915 68.556897,17.17654 68.5353258,17.5899253 C68.4897455,17.8883748 68.7605115,18.0949574 69.3466053,18.2098931 L70.123661,18.3819353 C70.9799036,18.5656062 71.3975942,18.9674256 71.3754367,19.5876135 C71.3754367,20.0463193 71.2174025,20.4142583 70.9016734,20.6893875 C70.5630462,20.8729327 70.1356039,20.964391 69.6164146,20.964391 C68.3313718,20.964391 67.6777871,20.4712076 67.6554753,19.4839922 L68.3656265,19.4839922 C68.4112067,20.1265889 68.8273235,20.4477301 69.6164146,20.4477301 C70.27074,20.4253841 70.608287,20.1727266 70.6309383,19.6902605 C70.6765186,19.4148484 70.3831014,19.1967314 69.752137,19.0361293 L68.8389886,18.8293896 C68.140163,18.6458444 67.7902411,18.289817 67.7902411,17.7620303 C67.7902411,17.2799099 67.970834,16.8900021 68.3310015,16.5908297 C68.6690115,16.3614925 69.0641742,16.2466825 69.5148851,16.2466825 C70.5970232,16.2694057 71.1721617,16.7633119 71.2396834,17.7277727 L70.4961417,17.7277727 Z M73.1666458,17.041364 L73.1666458,20.0029159 C73.1666458,20.2556991 73.3133544,20.3816979 73.6067717,20.3816979 L73.9111442,20.3816979 L73.9111442,20.9329306 L73.3360057,20.9329306 C72.9527858,20.9329306 72.7049488,20.8756041 72.5915073,20.7607627 C72.4571119,20.5770918 72.3892198,20.3474089 72.3892198,20.0720282 L72.3892198,17.0413326 L71.8140813,17.0413326 L71.8140813,16.3872014 L72.3892198,16.3872014 L72.3892198,15.1472657 L73.166615,15.1472657 L73.166615,16.3872014 L73.9111133,16.3872014 L73.9111133,17.0413326 L73.1666458,17.0413326 L73.1666458,17.041364 Z M75.4967946,20.9298505 L74.7186588,20.9298505 L74.7186588,16.3845614 L75.4624474,16.3845614 L75.4624474,17.1762886 C75.8004574,16.5563207 76.228517,16.2463368 76.7478296,16.2463368 C76.7924224,16.2463368 76.837262,16.2578712 76.8828423,16.2808144 L76.9501172,16.2808144 L76.9501172,17.1074277 L76.646331,17.1074277 C76.3077038,17.1074277 76.0489115,17.1992632 75.8683186,17.3829655 C75.6204817,17.6353401 75.4967946,17.9455755 75.4967946,18.312823 L75.4967946,20.9298505 Z M80.4383814,20.931202 L80.4383814,20.3108884 L80.4041577,20.2770079 C80.0885521,20.7591283 79.6038335,20.9884341 78.9502487,20.9654596 C78.5893406,20.9654596 78.2856779,20.9192904 78.0374706,20.8278321 C77.6994606,20.6212495 77.5188677,20.2313417 77.4965867,19.6567258 L77.4965867,16.38519 L78.2747225,16.38519 L78.2747225,19.4155085 C78.2747225,20.1045886 78.5670597,20.4490816 79.1535238,20.4490816 C79.9202106,20.4261699 80.3374074,19.9093833 80.4045588,18.8996019 L80.4045588,16.3855357 L81.1486869,16.3855357 L81.1486869,20.931202 L80.4383814,20.931202 Z M85.1053757,17.9686444 C85.0378539,17.302633 84.6885183,16.969926 84.0568442,16.969926 C83.2455647,17.0160008 82.8171348,17.5780451 82.772542,18.6573788 C82.772542,19.8508311 83.1897697,20.4473844 84.0242869,20.4473844 C84.6319827,20.4016867 84.9923045,20.034502 85.105746,19.3457676 L85.8495346,19.3457676 C85.6688491,20.4020324 85.0611532,20.941385 84.0242869,20.9640767 C83.3926436,20.9640767 82.8963525,20.8037261 82.5360307,20.4823648 C82.1751226,20.115023 81.9945296,19.551973 81.9945296,18.7945349 C81.9945296,17.9686444 82.187158,17.3371421 82.5696681,16.9011908 C82.9298665,16.4648624 83.4605048,16.2466825 84.1583428,16.2466825 C85.1503387,16.2694057 85.7143676,16.8439587 85.8495037,17.9686444 L85.1053757,17.9686444 Z M87.5060705,17.041364 L87.5060705,20.0029159 C87.5060705,20.2556991 87.6520385,20.3816979 87.9451162,20.3816979 L88.2494888,20.3816979 L88.2494888,20.9329306 L87.6743503,20.9329306 C87.29076,20.9329306 87.0432934,20.8756041 86.9305617,20.7607627 C86.7957959,20.5770918 86.7279347,20.3474089 86.7279347,20.0720282 L86.7279347,17.0413326 L86.1527962,17.0413326 L86.1527962,16.3872014 L86.7279347,16.3872014 L86.7279347,15.1472657 L87.5060705,15.1472657 L87.5060705,16.3872014 L88.2494888,16.3872014 L88.2494888,17.0413326 L87.5060705,17.0413326 L87.5060705,17.041364 Z M89.7725859,20.9294734 L88.9936168,20.9294734 L88.9936168,16.3841842 L89.7725859,16.3841842 L89.7725859,20.9294734 Z M88.9936168,15.5922056 L88.9936168,14.7310204 L89.7725859,14.7310204 L89.7725859,15.5922056 L88.9936168,15.5922056 Z M91.1906972,16.935417 C91.5964449,16.4763968 92.1033519,16.2466825 92.7115106,16.2466825 C93.3431847,16.2466825 93.8504311,16.4760197 94.2336511,16.935417 C94.5938494,17.3944685 94.7855211,17.9686444 94.808049,18.6573788 C94.808049,19.3690879 94.6284436,19.9426666 94.2671651,20.3786178 C93.8840686,20.7693114 93.3654657,20.9641081 92.7115106,20.9641081 C92.1256637,20.9641081 91.6633495,20.8377008 91.3253395,20.585609 C90.8742583,20.1032372 90.6378704,19.4605462 90.6161759,18.6573788 C90.6378704,17.9455755 90.8303754,17.3717453 91.1906972,16.935417 Z M92.7115106,20.4138497 C93.5227901,20.3901523 93.9631628,19.8054477 94.0310241,18.6573788 C93.9631628,17.5323474 93.5231605,16.9583915 92.7115106,16.935417 C91.8998608,16.9583915 91.4604756,17.5325674 91.3932007,18.6573788 C91.4604756,19.8051648 91.8998917,20.3901523 92.7115106,20.4138497 Z M99.3449681,20.9298505 L98.6004697,20.9298505 L98.6004697,18.1749441 C98.64605,17.3256076 98.3191188,16.9238825 97.6205401,16.9695488 C97.2815735,16.9695488 96.9998522,17.0956418 96.7746665,17.3482993 C96.5717926,17.5552905 96.4593078,17.9222866 96.4366565,18.4503876 L96.4366565,20.9298505 L95.6593539,20.9298505 L95.6593539,16.3845614 L96.4020316,16.3845614 L96.4020316,17.0386926 C96.76331,16.5105287 97.225007,16.2466825 97.7888199,16.2466825 C98.803467,16.2694057 99.3213293,16.8093554 99.3449681,17.8649288 L99.3449681,20.9298505 Z M102.956456,14.730989 L105.695038,14.730989 C106.798994,14.7770324 107.374256,15.293379 107.419836,16.2802172 C107.419836,16.9004051 107.149317,17.3364821 106.608433,17.5891395 C107.374503,17.8646773 107.757723,18.3697094 107.757723,19.1044873 C107.757723,19.5635075 107.611014,19.9541696 107.318677,20.2756251 C106.935457,20.7120478 106.371305,20.9298191 105.627516,20.9298191 L102.956796,20.9298191 L102.956796,14.730989 L102.956456,14.730989 Z M103.801373,17.3480479 L105.28892,17.3480479 C106.168431,17.3710225 106.59649,17.0271267 106.573839,16.3154805 C106.573839,15.7181729 106.14578,15.4197549 105.28892,15.4197549 L103.801373,15.4197549 L103.801373,17.3480479 Z M103.801373,20.2411161 L105.59391,20.2411161 C106.450152,20.2183929 106.889537,19.8397053 106.911849,19.1049274 C106.911849,18.4161929 106.415928,18.0719514 105.424673,18.0719514 L103.801373,18.0719514 L103.801373,20.2411161 Z M108.60625,17.7959107 C108.629272,16.7633433 109.248633,16.2466825 110.466771,16.2466825 C111.548199,16.2927259 112.100316,16.7290544 112.122597,17.5556677 L112.122597,20.1723809 C112.122597,20.356649 112.21277,20.4477301 112.393332,20.4477301 L112.494831,20.4477301 C112.561982,20.4253841 112.618518,20.4138497 112.664438,20.4138497 L112.664438,20.9298505 L112.224312,20.9298505 C111.683551,20.9298505 111.423988,20.7346452 111.447009,20.344486 C110.995928,20.7577455 110.443688,20.9641081 109.790442,20.9641081 C108.888033,20.941385 108.415011,20.5399427 108.370048,19.7589957 C108.392359,18.9327595 108.855013,18.4615763 109.756836,18.3470177 L111.007871,18.209516 C111.27839,18.1633783 111.413032,17.9802102 111.413032,17.6586604 C111.413032,17.1536283 111.052464,16.9008451 110.331357,16.9008451 C109.699683,16.9008451 109.361673,17.1992632 109.31671,17.7959107 L108.60625,17.7959107 Z M111.379796,18.6223984 C111.198493,18.7369884 110.781389,18.840924 110.127804,18.9327595 C109.497087,18.9785515 109.181389,19.2194231 109.181389,19.6560029 C109.181389,20.1839468 109.439842,20.4474159 109.958445,20.4474158 C110.837338,20.3786493 111.310608,20.0233447 111.37958,19.3802766 L111.37958,18.6224298 L111.379796,18.6224298 L111.379796,18.6223984 Z M117.098562,20.9298505 L116.355113,20.9298505 L116.355113,18.1749441 C116.399953,17.3256076 116.073021,16.9238825 115.374474,16.9695488 C115.035507,16.9695488 114.754495,17.0956418 114.5286,17.3482993 C114.325726,17.5552905 114.212902,17.9222866 114.19059,18.4503876 L114.19059,20.9298505 L113.413287,20.9298505 L113.413287,16.3845614 L114.156706,16.3845614 L114.156706,17.0386926 C114.517984,16.5105287 114.979681,16.2466825 115.543494,16.2466825 C116.558018,16.2694057 117.075294,16.8093554 117.098562,17.8649288 L117.098562,20.9298505 Z M122,20.9295048 L121.019114,20.9294734 L119.598719,18.6223984 L118.989943,19.2424291 L118.989943,20.9295048 L118.245815,20.9295048 L118.245815,14.730989 L118.989943,14.730989 L118.989943,18.3470177 L120.951253,16.3841842 L121.898501,16.3841842 L120.174197,18.1058004 L122,20.9295048 Z" id="Shape"></path>
                    </g>
                    <g id="银联-(1)" transform="translate(276.000000, 143.000000)" fill="#FFFFFF" fill-rule="nonzero">
                        <path d="M33.6588752,19.2320098 L35.1221803,19.2320098 C35.3312239,18.1867919 35.5402674,17.9777483 35.5402674,17.9777483 L34.0769623,17.9777483 L33.6588752,19.2320098 Z M34.7040931,15.4692253 C34.7040931,15.4692253 34.4950495,15.8873125 34.4950495,16.3053996 C34.2860059,16.7234868 34.2860059,17.141574 34.2860059,17.141574 C34.2860059,17.141574 34.4950495,17.141574 34.7040931,16.9325304 C34.9131367,16.9325304 35.3312239,16.7234868 35.5402674,16.7234868 C35.9583546,16.7234868 35.9583546,16.7234868 35.9583546,16.5144432 C35.9583546,16.5144432 35.9583546,16.3053996 36.1673982,15.8873124 L36.3764418,15.4692253 L34.7040931,15.4692253 Z M35.3312238,13.7968766 C35.1221802,14.2149638 35.1221803,14.6330509 35.1221803,14.6330509 C35.1221803,14.6330509 35.3312239,14.6330509 35.5402674,14.4240073 C35.749311,14.4240073 36.1673982,14.2149638 36.3764418,14.2149638 L36.7945289,14.2149638 L37.2126161,13.1697458 L35.9583546,13.1697458 L35.3312238,13.7968766 Z M26.3423497,14.8420945 L26.1333061,15.2601817 L28.8508727,15.2601817 L29.0599163,14.8420945 L26.3423497,14.8420945 Z M26.9694805,13.1697458 L26.7604369,13.7968766 C26.7604369,14.0059202 26.5513933,14.4240073 26.5513933,14.4240073 C26.5513933,14.4240073 26.7604369,14.4240073 26.9694805,14.2149638 C27.5966112,13.7968766 27.8056548,13.7968766 28.8508727,13.7968766 L29.6870471,13.7968766 C29.8960906,13.3787894 29.8960906,13.1697458 29.8960906,13.1697458 C29.8960906,12.9607022 26.9694805,12.9607022 26.9694805,13.1697458 Z M40.1392263,5.22608963 C39.5120955,5.6441768 38.8849648,7.94365623 39.5120955,8.15269981 C40.1392263,8.57078699 40.9754006,7.31652548 40.9754006,5.85322037 C40.9754006,5.4351332 40.5573135,5.01704604 40.1392263,5.22608963 Z M20.6981729,5.22608963 C20.0710421,5.43513322 19.4439114,7.73461264 20.0710422,8.15269981 C20.4891293,8.3617434 20.9072165,7.94365623 21.1162601,7.10748188 C21.5343473,5.64417678 21.5343473,4.80800245 20.6981729,5.22608963 Z M33.6588752,2.92661019 L33.240788,4.38991528 L33.6588752,4.38991528 C36.1673982,4.38991528 37.2126161,1.67234868 34.7040931,1.46330509 L33.8679187,1.46330509 C34.0769623,1.46330509 34.0769623,1.46330509 33.6588752,2.92661019 Z M30.732265,16.9325304 L30.732265,17.3506175 C30.5232214,18.1867919 30.3141778,18.3958354 29.2689599,18.6048791 L28.6418291,18.6048791 L28.6418291,19.8591406 L29.8960906,19.8591406 L29.4780035,21.1134021 L27.178524,21.1134021 C26.7604369,20.9043585 26.7604369,21.1134021 26.7604369,19.0229662 L26.7604369,17.141574 L28.4327855,17.141574 L28.4327855,17.7687047 L28.8508727,17.7687047 C29.2689599,17.7687047 29.2689599,17.7687047 29.4780035,17.3506175 L29.4780035,17.141574 L30.1051342,17.141574 C30.5232214,16.7234868 30.732265,16.7234868 30.732265,16.9325304 Z M24.2519139,14.4240073 L23.8338267,15.4692253 L21.9524344,15.4692253 C21.7433908,16.096356 21.7433908,16.3053996 21.7433908,16.3053996 L23.8338267,16.3053996 L23.8338267,16.5144432 C23.8338267,16.5144432 23.8338267,16.9325304 23.6247831,17.141574 L23.4157395,17.5596611 L21.3253037,17.5596611 L21.1162601,18.3958355 C20.6981729,19.4410534 20.9072165,19.4410534 22.161478,19.4410534 C22.5795652,19.4410534 22.5795652,19.2320098 22.3705216,20.0681841 L22.161478,20.6953149 L20.6981729,20.6953149 C18.6077371,20.6953149 18.6077371,20.6953149 19.0258242,18.8139226 C19.2348678,18.1867919 19.4439114,17.7687047 19.4439114,17.7687047 L18.1896499,17.7687047 C18.3986935,16.9325304 18.6077371,16.7234868 18.6077371,16.7234868 L19.8619986,16.7234868 L20.0710422,15.6782689 L18.8167806,15.6782689 C18.8167806,15.6782689 19.0258242,14.6330509 19.2348678,14.6330509 C19.4439114,14.4240073 24.4609574,14.4240073 24.2519139,14.4240073 Z M35.9583546,11.7064407 L35.9583546,11.9154843 C35.749311,12.1245279 35.749311,12.1245279 36.1673982,11.9154843 C36.7945289,11.7064407 38.0487905,11.4973972 40.7663571,11.4973972 L41.6025314,11.4973972 L41.6025314,11.9154843 C41.6025314,12.3335715 41.6025314,12.3335715 42.0206186,12.5426151 L42.2296621,12.5426151 L42.0206186,13.1697458 L41.811575,13.7968766 L41.1844442,13.7968766 C39.7211391,13.7968766 39.5120955,13.587833 39.5120955,12.7516587 L39.5120955,12.3335715 L39.5120955,12.7516587 L38.6759212,12.7516587 C38.6759212,12.7516587 37.0035725,17.9777483 36.7945289,18.8139226 L37.0035725,18.8139226 C37.2126161,18.8139226 37.2126161,18.8139226 37.2126161,19.0229662 C37.2126161,19.2320098 37.2126161,19.2320098 37.4216597,19.2320098 C37.6307033,19.2320098 37.8397469,19.2320098 38.0487905,19.0229662 C38.257834,18.8139226 38.257834,19.0229662 39.303052,17.5596611 L39.7211391,16.9325304 L38.8849648,16.9325304 C37.8397469,16.9325304 37.8397469,16.9325304 38.0487905,16.3053996 L38.257834,15.6782689 L40.3482699,15.6782689 C40.5573135,15.0511381 40.5573135,14.8420945 40.5573135,14.8420945 L38.4668776,14.8420945 L38.6759212,14.2149638 L38.8849648,13.587833 L44.7381852,13.587833 C44.7381852,13.587833 44.7381852,13.7968766 44.5291416,14.2149638 L44.320098,14.8420945 L42.2296621,14.8420945 C42.0206186,15.2601817 42.0206186,15.4692253 42.0206186,15.6782689 L42.0206186,15.8873124 L42.8567929,15.8873124 C43.9020108,15.8873124 43.9020108,15.8873124 43.6929672,16.5144432 L43.4839236,16.9325304 L41.3934878,16.9325304 L41.1844442,17.141574 L40.9754006,17.3506175 L41.811575,17.3506175 L42.0206186,18.1867919 C42.2296621,19.0229662 42.2296621,19.0229662 42.6477493,19.0229662 C43.0658365,19.0229662 43.0658365,19.0229662 42.6477493,19.650097 L42.4387057,20.2772277 L41.811575,20.2772277 C40.7663571,20.2772277 40.5573135,20.0681841 40.3482699,19.0229662 L40.1392263,18.3958355 L39.7211391,19.0229662 C38.6759212,20.4862713 38.6759212,20.4862713 37.2126161,20.4862713 C36.3764418,20.4862713 36.3764418,20.4862713 36.3764418,20.2772277 C36.3764418,20.0681842 36.3764418,20.0681841 36.1673982,20.0681841 C35.9583546,20.0681841 35.9583546,20.0681841 35.9583546,20.2772277 L35.9583546,20.4862713 L34.2860059,20.4862713 L34.2860059,20.2772277 C34.2860059,19.8591406 34.4950495,20.0681841 32.6136572,20.0681841 L30.732265,20.0681841 L30.9413086,19.4410534 C31.1503521,18.8139226 31.1503521,18.8139226 31.3593957,18.8139226 C31.5684393,18.8139227 31.5684393,18.8139226 31.5684393,18.6048791 C33.0317444,13.587833 33.6588752,11.9154843 33.6588752,11.7064407 L33.8679187,11.2883536 L34.7040931,11.2883536 C35.5402674,11.7064408 35.9583546,11.7064408 35.9583546,11.7064407 Z M27.3875676,11.7064407 L27.3875676,12.5426151 C27.3875676,12.5426151 27.5966112,12.5426151 27.8056548,12.3335715 C28.4327855,11.9154843 29.0599163,11.7064407 30.9413086,11.7064407 L32.1955701,11.7064407 C32.1955701,11.7064407 31.1503522,15.2601817 30.9413086,15.6782689 C30.732265,16.096356 30.5232214,16.3053996 30.1051342,16.5144432 L29.8960906,16.7234868 L26.1333061,16.7234868 L25.7152189,17.7687047 C25.0880882,19.8591406 25.0880882,19.650097 25.9242625,19.650097 C26.7604369,19.650097 26.5513933,19.4410534 26.3423497,20.2772277 L26.1333061,20.9043585 L25.0880882,20.9043585 C22.9976523,20.9043585 22.7886088,20.9043585 22.9976524,19.8591406 C23.2066959,19.4410534 25.5061754,11.7064407 25.5061754,11.7064407 L27.3875676,11.7064407 Z M22.9976524,11.7064407 C22.9976524,11.7064407 22.9976524,11.9154843 22.7886088,11.9154843 C22.7886088,12.1245279 22.5795652,12.1245279 22.5795652,12.1245279 C24.4609574,12.1245279 24.670001,12.1245279 24.4609574,12.3335715 L24.0428703,13.587833 L21.3253037,13.587833 L21.1162601,13.7968766 C20.6981729,14.2149638 18.8167807,14.6330509 18.8167806,14.2149638 L19.2348678,12.9607022 L19.4439114,12.9607022 C19.8619986,12.9607022 20.0710422,12.9607022 20.4891293,12.1245279 L20.9072165,11.4973972 C22.7886088,11.7064407 22.9976524,11.7064407 22.9976524,11.7064407 Z M17.3534755,5.01704604 L17.3534755,5.22608963 C17.144432,6.27130755 16.7263448,8.3617434 16.5173012,8.77983056 L16.5173012,9.19791773 L15.4720833,9.19791773 C14.2178218,9.19791773 14.2178218,9.19791773 14.4268654,8.57078697 C14.6359089,7.73461264 14.8449525,6.89843829 15.0539961,5.85322037 C15.2630397,5.01704604 15.0539961,5.22608961 15.8901705,5.01704604 C16.3082576,5.01704604 16.7263448,4.80800245 16.9353884,4.80800245 C17.144432,5.01704604 17.3534756,5.01704604 17.3534755,5.01704604 Z M40.7663571,3.9718281 C40.9754006,3.9718281 41.1844442,4.18087169 41.1844442,4.18087169 C41.3934878,4.38991528 41.3934878,4.38991528 41.3934878,4.18087169 C41.3934878,3.9718281 41.3934878,3.9718281 42.6477493,3.76278454 C43.6929672,3.55374095 43.6929672,3.55374095 43.4839236,3.9718281 C43.0658365,5.85322037 42.6477493,7.31652546 42.6477493,8.15269981 C42.4387057,9.40696132 42.6477493,9.19791773 41.3934878,9.19791773 L40.3482699,9.19791773 L40.3482699,8.98887414 C40.3482699,8.77983056 40.3482699,8.77983056 40.1392263,8.98887414 C39.7211391,9.61600491 38.0487904,9.40696132 37.6307033,8.57078697 C36.3764418,7.10748188 38.8849648,3.13565377 40.7663571,3.9718281 Z M21.9524344,3.9718281 C24.4609574,4.38991528 23.6247831,8.77983056 20.9072165,9.40696132 C19.0258242,9.82504849 17.7715627,9.19791773 17.7715627,7.73461264 C17.7715627,5.01704604 19.652955,3.55374095 21.9524344,3.9718281 Z M46.6195774,3.76278454 C46.828621,5.85322039 46.828621,6.27130755 46.828621,6.27130755 C46.828621,6.27130755 47.0376646,5.85322037 47.4557518,5.22608963 C48.0828825,3.97182812 47.8738389,3.97182812 48.7100133,3.9718281 C48.9190569,3.9718281 49.337144,3.9718281 49.5461876,3.76278454 C50.1733184,3.55374095 50.1733184,3.55374095 49.337144,5.01704604 C48.2919261,6.89843831 46.6195774,9.61600491 46.2014902,10.6612228 C44.5291416,13.587833 44.5291416,13.587833 43.0658365,13.7968766 L42.2296621,13.7968766 L42.2296621,13.587833 C42.2296621,13.3787894 42.4387057,13.1697458 42.4387057,12.9607022 L42.6477493,12.5426151 L42.8567929,12.5426151 C43.0658365,12.5426151 43.2748801,12.5426151 43.4839236,12.1245279 C43.4839236,11.9154843 43.6929672,11.7064407 43.9020108,11.4973972 C43.9020108,11.2883536 44.320098,10.8702664 44.5291416,10.2431356 L45.1562723,9.40696132 L44.9472287,8.15269981 C44.7381852,6.68939472 44.5291416,5.01704604 44.5291416,4.59895887 C44.5291416,4.18087169 44.5291416,4.18087169 44.9472287,3.9718281 C45.1562723,3.9718281 45.5743595,3.76278452 45.7834031,3.76278454 L46.6195774,3.76278454 Z M26.7604369,3.9718281 L26.7604369,4.38991528 L27.178524,4.18087169 C29.2689599,3.13565377 29.8960906,3.9718281 29.4780035,6.68939472 C29.2689599,7.31652548 29.2689599,8.15269981 29.0599163,8.57078697 C29.0599163,8.98887414 28.8508727,9.4069613 28.8508727,9.40696132 C28.6418291,9.61600491 26.7604369,9.61600491 26.7604369,9.40696132 C26.7604369,9.40696132 26.9694805,8.77983056 26.9694805,8.15269981 C27.5966112,5.85322039 27.5966112,5.43513322 26.9694805,5.4351332 C26.5513933,5.4351332 26.3423497,5.64417678 26.3423497,5.85322037 C26.3423497,6.27130755 25.7152189,8.57078697 25.7152189,8.98887414 L25.7152189,9.40696132 L24.670001,9.40696132 C23.4157395,9.40696132 23.6247831,9.61600491 23.8338267,8.36174338 C24.0428703,7.10748188 24.4609574,5.85322037 24.4609574,5.01704604 C24.670001,4.18087171 24.4609574,4.18087171 25.2971318,4.18087169 C25.7152189,4.18087169 26.1333061,3.9718281 26.3423497,3.9718281 C26.7604369,3.76278452 26.7604369,3.76278452 26.7604369,3.9718281 Z M11.2912116,3.9718281 L11.2912116,4.38991528 L11.7092988,4.18087169 C12.7545167,3.76278452 13.7997346,3.76278452 14.0087782,4.38991528 C14.2178218,4.80800245 14.2178218,5.01704604 13.590691,7.52556905 C13.590691,7.94365623 13.3816474,8.57078697 13.3816474,8.77983056 C13.1726039,9.40696132 13.3816474,9.40696132 12.1273859,9.40696132 L11.082168,9.40696132 C11.082168,9.40696132 11.2912116,8.77983056 11.2912116,8.15269981 C11.9183424,5.85322039 11.9183424,5.43513322 11.2912116,5.4351332 C11.082168,5.4351332 10.6640808,5.64417678 10.6640808,5.64417678 C10.6640808,5.85322037 10.0369501,8.77983056 10.0369501,8.98887414 L10.0369501,9.19791773 L8.99173216,9.19791773 C7.73747066,9.19791773 7.94651425,9.40696132 8.15555781,8.15269981 C8.57364499,6.68939472 8.78268858,5.6441768 8.78268858,4.80800245 C8.99173216,3.76278454 8.78268858,3.97182812 9.82790649,3.76278454 C10.2459937,3.76278454 10.6640808,3.55374095 10.8731244,3.55374095 C11.2912116,3.76278454 11.2912116,3.76278454 11.2912116,3.9718281 Z M17.144432,3.34469736 C17.3534755,3.34469736 17.7715627,3.76278454 17.7715627,3.9718281 C17.7715627,4.80800243 16.099214,5.4351332 15.4720833,4.80800245 C14.8449525,3.97182812 16.0992141,3.13565377 17.144432,3.34469736 Z M37.2126161,0.209043588 C38.6759212,0.627130763 39.0940084,1.67234868 38.4668776,3.55374095 C37.8397468,5.43513322 36.3764418,6.06226396 33.6588752,6.06226396 C32.8227008,6.06226396 33.0317444,5.85322037 32.4046136,8.36174338 C32.4046136,8.77983056 32.1955701,9.19791771 32.1955701,9.40696132 C32.1955701,9.61600491 29.8960907,9.61600491 29.8960906,9.40696132 C31.7774829,1.04521794 31.9865265,0.418087175 31.9865265,0.209043588 L31.9865265,1.77635684e-14 L34.2860059,1.77635684e-14 C36.3764418,1.77635684e-14 36.7945289,1.77635684e-14 37.2126161,0.209043588 Z M3.97468612,0.209043588 L3.97468612,0.627130763 C3.13851179,3.13565377 2.51138103,6.48035113 2.51138103,7.10748188 C2.72042462,8.36174338 4.60181689,8.36174338 5.22894763,6.89843829 C5.43799122,6.48035111 6.90129631,0.627130742 6.90129631,0.209043588 L9.20077575,0.209043588 L9.20077575,0.418087175 C9.20077575,0.418087175 8.78268858,1.88139227 8.3646014,3.55374095 C7.52842707,7.1074819 7.31938348,7.31652548 6.90129631,7.94365623 C5.43799122,10.2431356 0.420945175,10.0340921 0.00285802062,7.94365623 C0.00285802062,7.52556905 1.04807594,1.88139227 1.46616311,0.209043588 C1.25711953,1.49949497e-14 3.97468612,1.49949497e-14 3.97468612,0.209043588 Z" id="Shape"></path>
                    </g>
                    <rect id="Rectangle-29" fill="url(#linearGradient-4)" x="19" y="56" width="33" height="28" rx="6"></rect>
                </g>
            </g>
        </g>
    </g>
</svg>