<?xml version="1.0" encoding="UTF-8"?>
<svg width="20px" height="20px" viewBox="0 0 20 20" version="1.1" xmlns="http://www.w3.org/2000/svg" xmlns:xlink="http://www.w3.org/1999/xlink">
    <!-- Generator: Sketch 56.3 (81716) - https://sketch.com -->
    <title>reportcenter_icon_dividend</title>
    <desc>Created with Sketch.</desc>
    <defs>
        <linearGradient x1="50%" y1="0%" x2="50%" y2="100%" id="linearGradient-1">
            <stop stop-color="#F5515F" offset="0%"></stop>
            <stop stop-color="#F94B65" offset="100%"></stop>
        </linearGradient>
    </defs>
    <g id="jx1.2" stroke="none" stroke-width="1" fill="none" fill-rule="evenodd">
        <g id="报表中心_彩票" transform="translate(-67.000000, -630.000000)" fill="url(#linearGradient-1)" fill-rule="nonzero">
            <g id="提现转出" transform="translate(16.000000, 612.000000)">
                <g id="实际工资" transform="translate(51.000000, 17.000000)">
                    <g id="reportcenter_icon_dividend" transform="translate(0.000000, 1.000000)">
                        <path d="M2.65476764,13.2762364 C1.19428571,13.6743316 0,15.0005164 0,16.5928973 C0,18.4514745 1.45808376,19.9095582 3.31666093,19.9095582 C5.1752381,19.9095582 6.63332186,18.4514745 6.63332186,16.5928973 C6.63332186,14.8662192 5.43903614,13.5400344 3.97855422,13.2762364 L3.97855422,10.6214687 L15.9214114,10.6214687 L15.9214114,13.2762364 C14.4633276,13.6743316 13.2666437,15.0029145 13.2666437,16.5928973 C13.2666437,18.4514745 14.7247275,19.9095582 16.5833046,19.9095582 C18.4418818,19.9095582 19.9047619,18.4514745 19.9047619,16.5928973 C19.9047619,14.8662192 18.7104762,13.5400344 17.2499943,13.2762364 L17.2499943,10.6214687 C17.2499943,9.82527826 16.7176018,9.29528399 15.9238095,9.29528399 L10.6166724,9.29528399 L10.6166724,6.64051635 C12.0747562,6.24242111 13.27144,4.91383821 13.27144,3.32385542 C13.27144,1.46527826 11.8133563,0.00719449225 9.95477912,0.00719449225 C8.09620195,0.00719449225 6.63811819,1.46527826 6.63811819,3.32385542 C6.63811819,5.05053356 7.8324039,6.3767183 9.29288583,6.64051635 L9.29288583,9.29528399 L3.98095238,9.29528399 C3.1847619,9.29528399 2.65476764,9.82767642 2.65476764,10.6214687 L2.65476764,13.2762364 Z" id="Shape"></path>
                    </g>
                </g>
            </g>
        </g>
    </g>
</svg>