<?xml version="1.0" encoding="UTF-8"?>
<svg width="20px" height="20px" viewBox="0 0 20 20" version="1.1" xmlns="http://www.w3.org/2000/svg" xmlns:xlink="http://www.w3.org/1999/xlink">
    <!-- Generator: Sketch 51.2 (57519) - http://www.bohemiancoding.com/sketch -->
    <title>系统</title>
    <desc>Created with Sketch.</desc>
    <defs>
        <linearGradient x1="50%" y1="31.1740451%" x2="64.6104601%" y2="100%" id="linearGradient-1">
            <stop stop-color="#2E6FDF" offset="0%"></stop>
            <stop stop-color="#5E53E2" offset="100%"></stop>
        </linearGradient>
    </defs>
    <g id="Page-1" stroke="none" stroke-width="1" fill="none" fill-rule="evenodd">
        <g id="设置_初始资料设置_弹出框" transform="translate(-15.000000, -293.000000)" fill="url(#linearGradient-1)" fill-rule="nonzero">
            <g id="系统" transform="translate(15.000000, 292.000000)">
                <g transform="translate(0.000000, 1.000000)" id="Shape">
                    <path d="M6.42016,1.97611429 C6.77677714,1.97611429 7.08192,2.09965714 7.33568,2.34651429 C7.58944,2.59339429 7.71632,2.8952 7.71632,3.25170286 L7.71632,8.39522286 C7.71632,8.75184 7.58944,9.05707429 7.33568,9.31085714 C7.08192,9.56450286 6.77677714,9.69140571 6.42016,9.69140571 L1.27664,9.69140571 C0.920022857,9.69140571 0.618217143,9.56452571 0.371337143,9.31085714 C0.12448,9.05707429 0.00105142857,8.75186286 0.00105142857,8.39522286 L0.00105142857,3.25170286 C0.00105142857,2.89517714 0.12448,2.59339429 0.371337143,2.34651429 C0.618217143,2.09965714 0.920022857,1.97611429 1.27664,1.97611429 L6.42016,1.97611429 Z M6.42016,12.2631086 C6.77677714,12.2631086 7.08192,12.3865371 7.33568,12.6335314 C7.58944,12.8803886 7.71632,13.18208 7.71632,13.5386971 L7.71632,18.7027886 C7.71632,19.0594057 7.58944,19.3612114 7.33568,19.6080914 C7.08192,19.8549486 6.77677714,19.9783771 6.42016,19.9783771 L1.27664,19.9783771 C0.920022857,19.9783771 0.618217143,19.8549257 0.371337143,19.6080914 C0.12448,19.3612114 0.00105142857,19.0594057 0.00105142857,18.7027886 L0.00105142857,13.5386971 C0.00105142857,13.18208 0.12448,12.8803886 0.371337143,12.6335314 C0.618217143,12.38656 0.920022857,12.2631086 1.27664,12.2631086 L6.42016,12.2631086 Z M16.7277257,12.2631086 C17.0843429,12.2631086 17.3860343,12.3865371 17.6329143,12.6335314 C17.8799086,12.8803886 18.0033143,13.18208 18.0033143,13.5386971 L18.0033143,18.7027886 C18.0033143,19.0594057 17.8799086,19.3612114 17.6329143,19.6080914 C17.3860343,19.8549486 17.0843429,19.9783771 16.7277257,19.9783771 L11.5842286,19.9783771 C11.2275886,19.9783771 10.9223543,19.8549257 10.6687086,19.6080914 C10.4149257,19.3612114 10.2880686,19.0594057 10.2880686,18.7027886 L10.2880686,13.5386971 C10.2880686,13.18208 10.4149257,12.8803886 10.6687086,12.6335314 C10.9223543,12.38656 11.2275886,12.2631086 11.5842286,12.2631086 L16.7277257,12.2631086 Z M19.5874971,4.23926857 C19.8618286,4.5136 19.9989257,4.83597714 19.9989257,5.20628571 C19.9989257,5.57657143 19.8618057,5.89204571 19.5874971,6.15270857 L15.7607314,9.97947429 C15.4864,10.2536914 15.1674743,10.3909029 14.8040686,10.3909029 C14.4405486,10.3909029 14.1216229,10.2536914 13.8474057,9.97947429 L10.0206171,6.15270857 C9.75995429,5.89204571 9.62964571,5.57657143 9.62964571,5.20628571 C9.62964571,4.83597714 9.75995429,4.5136 10.0206171,4.23926857 L13.8473829,0.412502857 C14.1216,0.151954286 14.4405257,0.0216457143 14.8040457,0.0216457143 C15.1674514,0.0216457143 15.4863771,0.151954286 15.7607086,0.412502857 L19.5874971,4.23926857 Z"></path>
                </g>
            </g>
        </g>
    </g>
</svg>