<?xml version="1.0" encoding="UTF-8"?>
<svg width="25px" height="25px" viewBox="0 0 25 25" version="1.1" xmlns="http://www.w3.org/2000/svg" xmlns:xlink="http://www.w3.org/1999/xlink">
    <!-- Generator: Sketch 51.2 (57519) - http://www.bohemiancoding.com/sketch -->
    <title>支付宝</title>
    <desc>Created with Sketch.</desc>
    <defs>
        <linearGradient x1="50%" y1="0%" x2="50%" y2="100%" id="linearGradient-1">
            <stop stop-color="#29C7EF" offset="0%"></stop>
            <stop stop-color="#1296DB" offset="100%"></stop>
        </linearGradient>
    </defs>
    <g id="Page-1" stroke="none" stroke-width="1" fill="none" fill-rule="evenodd">
        <g id="充值" transform="translate(-83.000000, -171.000000)" fill="url(#linearGradient-1)" fill-rule="nonzero">
            <g id="支付宝-" transform="translate(15.000000, 158.000000)">
                <g id="Group-4" transform="translate(21.000000, 13.000000)">
                    <g id="支付宝" transform="translate(47.000000, 0.000000)">
                        <path d="M24.9912412,17.1113973 L24.9912412,4.81300547 C24.9912412,2.16207652 22.8389227,0.00975802108 20.1859953,0.00975802108 L4.81200624,0.0097579918 C2.16107728,0.0097579918 0.0087587822,2.16107728 0.0087587822,4.81300544 L0.0087587822,20.1879937 C0.0087587822,22.8389227 2.15907883,24.9912412 4.81200624,24.9912412 L20.1869945,24.9912412 C22.5501483,24.9912412 24.5156128,23.2825761 24.9162998,21.036331 C23.6422951,20.4847619 18.1216081,18.1006245 15.2448556,16.7276971 C13.055566,19.3796253 10.7633568,20.9703825 7.30805621,20.9703825 C3.85275565,20.9703825 1.54655738,18.8420453 1.82334113,16.2380796 C2.00619827,14.5284153 3.17828258,11.7325995 8.27230287,12.2122248 C10.9562061,12.4640281 12.1852459,12.9656362 14.3735363,13.6880718 C14.9400936,12.6508821 15.410726,11.5067759 15.7674473,10.2917252 L6.06103044,10.2917252 L6.06103044,9.32947696 L10.8632787,9.32947696 L10.8632787,7.60282591 L5.0058548,7.60282591 L5.0058548,6.5436534 L10.8642779,6.5436534 L10.8642779,4.04960187 C10.8642779,4.04960187 10.9172365,3.65990632 11.3479001,3.65990632 L13.7500234,3.65990632 L13.7500234,6.54265419 L19.9951444,6.54265419 L19.9951444,7.6018267 L13.7500234,7.6018267 L13.7500234,9.32847775 L18.8450429,9.32847775 C18.376409,11.2349883 17.6659641,12.9866198 16.7756596,14.5164247 C18.2555035,15.0520062 24.9912412,17.1113973 24.9912412,17.1113973 Z M6.92535518,19.3206713 C3.27420764,19.3206713 2.69665884,17.0154723 2.89050741,16.0522248 C3.08235752,15.0939734 4.13953162,13.8419516 6.16994535,13.8419516 C8.50212333,13.8419516 10.591491,14.440484 13.0995316,15.6595316 C11.3379079,17.9547385 9.17359874,19.3206713 6.92535518,19.3206713 Z" id="Shape"></path>
                    </g>
                </g>
            </g>
        </g>
    </g>
</svg>