<?xml version="1.0" encoding="UTF-8"?>
<svg width="25px" height="25px" viewBox="0 0 25 25" version="1.1" xmlns="http://www.w3.org/2000/svg" xmlns:xlink="http://www.w3.org/1999/xlink">
    <!-- Generator: Sketch 51.2 (57519) - http://www.bohemiancoding.com/sketch -->
    <title>网银在线</title>
    <desc>Created with Sketch.</desc>
    <defs>
        <linearGradient x1="50%" y1="31.1740451%" x2="64.6104601%" y2="100%" id="linearGradient-1">
            <stop stop-color="#2E6FDF" offset="0%"></stop>
            <stop stop-color="#5E53E2" offset="100%"></stop>
        </linearGradient>
    </defs>
    <g id="Page-1" stroke="none" stroke-width="1" fill="none" fill-rule="evenodd">
        <g id="充值" transform="translate(-265.000000, -278.000000)" fill="url(#linearGradient-1)" fill-rule="nonzero">
            <g id="网银在线" transform="translate(265.000000, 278.000000)">
                <path d="M12.5,0.0178635294 C5.60135216,0.0178635294 0.00890666667,5.61030902 0.00890666667,12.5089067 C0.00890666667,19.4075043 5.60135216,25 12.5,25 C19.3986478,25 24.9910933,19.4075545 24.9910933,12.5089067 C24.9910933,5.61025882 19.3986478,0.0178635294 12.5,0.0178635294 Z M12.4993475,16.6747796 L8.33317333,12.5115169 L12.5006525,8.34303373 L16.6668267,12.5082039 L12.4993475,16.6747796 Z M18.9886463,16.8142243 C19.0579169,17.1099796 15.8064157,21.7435294 11.3139169,22.1802855 C3.87967686,22.9030588 2.51610039,19.4348612 2.51610039,19.4348612 C12.4370541,23.6153914 18.0526902,12.8209255 18.0526902,12.8209255 L18.9886463,16.8142243 Z M5.84349804,7.95391373 C5.77417725,7.65820863 9.02567843,3.02465882 13.5182275,2.58790275 C20.9524675,1.86512941 22.3160439,5.33332706 22.3160439,5.33332706 C12.3950902,1.15279686 6.77945412,11.9472627 6.77945412,11.9472627 L5.84349804,7.95391373 Z" id="Shape"></path>
            </g>
        </g>
    </g>
</svg>