<?xml version="1.0" encoding="UTF-8"?>
<svg width="25px" height="25px" viewBox="0 0 25 25" version="1.1" xmlns="http://www.w3.org/2000/svg" xmlns:xlink="http://www.w3.org/1999/xlink">
    <!-- Generator: Sketch 56.3 (81716) - https://sketch.com -->
    <title>recharge_wy</title>
    <desc>Created with Sketch.</desc>
    <defs>
        <linearGradient x1="50%" y1="0%" x2="50%" y2="100%" id="linearGradient-1">
            <stop stop-color="#FFF05B" offset="0%"></stop>
            <stop stop-color="#F7B604" offset="100%"></stop>
        </linearGradient>
    </defs>
    <g id="支付渠道" stroke="none" stroke-width="1" fill="none" fill-rule="evenodd">
        <g id="充值" transform="translate(-265.000000, -494.000000)" fill="url(#linearGradient-1)" fill-rule="nonzero">
            <g id="recharge_wy" transform="translate(265.000000, 494.000000)">
                <path d="M12.9458558,17.7083333 C12.8073808,17.4661671 12.702468,17.2058034 12.634375,16.934375 C12.537009,16.5554988 12.4921452,16.1650442 12.5010417,15.7739583 C12.5010417,15.4020833 12.5479167,15.034375 12.640625,14.6697917 C12.734375,14.3052083 12.8770833,13.9666667 13.0708333,13.653125 C13.30625,13.2885417 13.5927083,13 13.9322917,12.784375 C14.2768037,12.5674352 14.6603747,12.4198807 15.0614583,12.35 C15.4113929,12.2834613 15.7696737,12.2729133 16.1229167,12.31875 C16.490625,12.3645833 16.8322917,12.4666667 17.1479167,12.6229167 C17.43125,12.7635417 17.6864583,12.95 17.9125,13.18125 C18.1395833,13.4135417 18.3177083,13.68125 18.446875,13.9875 C18.6489583,14.4427083 18.7177083,14.9260417 18.653125,15.4385417 C18.6476341,15.6061522 18.5756741,15.764689 18.453125,15.8791667 C18.3261877,15.986097 18.1637377,16.0414861 17.9979167,16.034375 L14.4791667,16.034375 C14.4791667,16.2989583 14.5052083,16.5697917 14.5572917,16.846875 C14.609375,17.1239583 14.7177083,17.3739583 14.8802083,17.596875 C14.9085775,17.6365393 14.9380065,17.6736865 14.9684953,17.7083333 L16.4606875,17.7083333 C16.5012863,17.6589127 16.5368523,17.605192 16.5666667,17.5479167 C16.7096785,17.2794485 16.792166,16.9829201 16.8083333,16.6791667 L18.75,16.6791667 C18.7125939,17.0394407 18.6055431,17.3889681 18.4348469,17.7083333 L18.75,17.7083333 C19.3252966,17.7083333 19.7916667,17.2419633 19.7916667,16.6666667 L19.7916667,10.625 C19.7916667,10.5104167 19.6979167,10.4166667 19.5833333,10.4166667 L5.41666667,10.4166667 C5.30208333,10.4166667 5.20833333,10.5104167 5.20833333,10.625 L5.20833333,16.6666667 C5.20833333,17.2419633 5.67470339,17.7083333 6.25,17.7083333 L12.9458558,17.7083333 Z M0,12.5 C0,5.59644063 5.59644063,0 12.5,0 C19.4035594,0 25,5.59644063 25,12.5 C25,19.4035594 19.4035594,25 12.5,25 C5.59644063,25 0,19.4035594 0,12.5 Z M6.04166667,7.29166667 C5.82065293,7.29166667 5.60869133,7.37946403 5.45241101,7.53574435 C5.29613069,7.69202466 5.20833333,7.90398626 5.20833333,8.125 L5.20833333,9.16666667 C5.20833333,9.22192011 5.23028267,9.27491051 5.26935275,9.31398059 C5.30842283,9.35305067 5.36141324,9.375 5.41666667,9.375 L19.5833333,9.375 C19.6385868,9.375 19.6915772,9.35305067 19.7306472,9.31398059 C19.7697173,9.27491051 19.7916667,9.22192011 19.7916667,9.16666667 L19.7916667,8.125 C19.7916667,7.90398626 19.7038693,7.69202466 19.547589,7.53574435 C19.3913087,7.37946403 19.1793471,7.29166667 18.9583333,7.29166667 L6.04166667,7.29166667 Z M7.5,11.4583333 L10.2083333,11.4583333 C10.2635868,11.4583333 10.3165772,11.4802827 10.3556473,11.5193527 C10.3947173,11.5584228 10.4166667,11.6114132 10.4166667,11.6666667 L10.4166667,12.2916667 C10.4166667,12.3469201 10.3947173,12.3999105 10.3556472,12.4389806 C10.3165772,12.4780507 10.2635868,12.5 10.2083333,12.5 L7.5,12.5 C7.38541667,12.5 7.29166667,12.40625 7.29166667,12.2916667 L7.29166667,11.6666667 C7.29166667,11.6114132 7.31361601,11.5584228 7.35268608,11.5193528 C7.39175616,11.4802827 7.44474656,11.4583333 7.5,11.4583333 Z M11.6666667,11.4583333 L12.2916667,11.4583333 C12.3469201,11.4583333 12.3999105,11.4802827 12.4389806,11.5193528 C12.4780507,11.5584228 12.5,11.6114132 12.5,11.6666667 L12.5,12.2916667 C12.5,12.406726 12.406726,12.5 12.2916667,12.5 L11.6666667,12.5 C11.5520833,12.5 11.4583333,12.40625 11.4583333,12.2916667 L11.4583333,11.6666667 C11.4583333,11.6114132 11.4802827,11.5584228 11.5193527,11.5193527 C11.5584228,11.4802827 11.6114132,11.4583333 11.6666667,11.4583333 Z M16.6145833,14.9302083 C16.630746,14.7715912 16.630746,14.6117421 16.6145833,14.453125 C16.6005936,14.2921393 16.5593835,14.1346955 16.4927083,13.9875 C16.3552083,13.6822917 16.1375,13.5041667 15.8375,13.4541667 C15.6723408,13.4299666 15.5037571,13.4471471 15.346875,13.5041667 C15.179306,13.5632766 15.0333984,13.671437 14.928125,13.8145833 C14.8135417,13.9708333 14.7302083,14.1489583 14.6729167,14.3479167 C14.6166667,14.5458333 14.5760417,14.740625 14.5520833,14.93125 L16.6145833,14.93125 L16.6145833,14.9302083 Z" id="形状结合"></path>
            </g>
        </g>
    </g>
</svg>