<?xml version="1.0" encoding="UTF-8"?>
<svg width="20px" height="20px" viewBox="0 0 20 20" version="1.1" xmlns="http://www.w3.org/2000/svg" xmlns:xlink="http://www.w3.org/1999/xlink">
    <!-- Generator: Sketch 51.2 (57519) - http://www.bohemiancoding.com/sketch -->
    <title>Group 2</title>
    <desc>Created with Sketch.</desc>
    <defs>
        <linearGradient x1="20.6419271%" y1="0%" x2="22.3776042%" y2="100%" id="linearGradient-1">
            <stop stop-color="#13A2BA" offset="0%"></stop>
            <stop stop-color="#087C95" offset="100%"></stop>
        </linearGradient>
    </defs>
    <g id="Page-1" stroke="none" stroke-width="1" fill="none" fill-rule="evenodd">
        <g id="首页" transform="translate(-15.000000, -74.000000)">
            <g id="Group-2" transform="translate(15.000000, 74.000000)">
                <circle id="Oval" fill="url(#linearGradient-1)" cx="10" cy="10" r="10"></circle>
                <g id="发布公告" transform="translate(5.000000, 5.000000)" fill="#121C57" fill-rule="nonzero">
                    <path d="M4.82124138,0.215724138 C4.20331034,0.75862069 2.72910345,2.11365517 2.72910345,2.11365517 L0.420689655,2.11365517 C0.264,2.11365517 0.0102068966,2.096 0.0102068966,2.66758621 L0.0102068966,6.03972414 C0.0102068966,6.30896552 0.211034483,6.50096552 0.433931034,6.50096552 L2.60772414,6.50096552 L4.84110345,8.44082759 C5.16551724,8.72331034 5.68413793,8.86896552 5.68413793,8.21351724 L5.68413793,0.390068966 C5.68634483,0.390068966 5.43696552,-0.327172414 4.82124138,0.215724138 Z" id="Shape"></path>
                    <path d="M8.33682759,0.992551724 C7.98151724,0.754206897 7.46068966,1.24193103 7.67696552,1.53765517 C8.59062069,2.30565517 9.13351724,3.38482759 9.07172414,4.56110345 C9.01655172,5.62924138 8.47365517,6.58041379 7.63282759,7.26896552 C7.33931034,7.61986207 8.03668966,8.01710345 8.2662069,7.83834483 C9.27475862,7.01517241 9.9257931,5.8742069 9.992,4.59641379 C10.0648276,3.19724138 9.42262069,1.91062069 8.33682759,0.992551724 Z" id="Shape"></path>
                    <path d="M7.00386207,2.04744828 C6.64413793,1.78041379 6.13655172,2.288 6.36165517,2.52855172 C6.94868966,3.02951724 7.29737931,3.72910345 7.25765517,4.48827586 C7.22234483,5.15917241 6.89351724,5.75944828 6.38151724,6.20303448 C6.12551724,6.51641379 6.68606897,6.93572414 6.99503448,6.70841379 C7.65048276,6.14124138 8.0697931,5.37544828 8.11393103,4.51917241 C8.16248276,3.56358621 7.73213793,2.68303448 7.00386207,2.04744828 Z" id="Shape"></path>
                </g>
            </g>
        </g>
    </g>
</svg>