<?xml version="1.0" encoding="UTF-8"?>
<svg width="30px" height="30px" viewBox="0 0 30 30" version="1.1" xmlns="http://www.w3.org/2000/svg" xmlns:xlink="http://www.w3.org/1999/xlink">
    <!-- Generator: Sketch 56.3 (81716) - https://sketch.com -->
    <title>问题</title>
    <desc>Created with Sketch.</desc>
    <defs>
        <linearGradient x1="50%" y1="0%" x2="50%" y2="100%" id="linearGradient-1">
            <stop stop-color="#FCDB43" offset="0%"></stop>
            <stop stop-color="#FBBC38" offset="100%"></stop>
        </linearGradient>
        <linearGradient x1="50%" y1="0%" x2="50%" y2="100%" id="linearGradient-2">
            <stop stop-color="#FCDB43" offset="0%"></stop>
            <stop stop-color="#FBBC38" offset="100%"></stop>
        </linearGradient>
    </defs>
    <g id="手机邮箱登录" stroke="none" stroke-width="1" fill="none" fill-rule="evenodd">
        <g id="登录_忘记密码" transform="translate(-30.000000, -333.000000)" fill-rule="nonzero">
            <g id="编组" transform="translate(15.000000, 318.000000)">
                <g id="问题" transform="translate(15.000000, 15.000000)">
                    <path d="M22.5078125,22.7773438 L22.5078125,25.4648438 C22.5078125,26.1132812 21.984375,26.6367188 21.3359375,26.6367188 L1.17578125,26.6367188 C0.52734375,26.6367188 0.00390625,26.1132812 0.00390625,25.4648438 L0.00390625,8.11328125 C0.00390625,7.46484375 0.52734375,6.94140625 1.17578125,6.94140625 L3.91796875,6.94140625 L3.91796875,21.6054688 C3.91796875,22.2539062 4.44140625,22.7773438 5.08984375,22.7773438 L22.5078125,22.7773438 Z" id="Combined-Shape" fill="url(#linearGradient-1)"></path>
                    <path d="M8.79296875,24.7070312 L4.6796875,24.7070312 L4.19921875,29.2773438 L8.79296875,24.7070312 Z M28.796875,0.03125 L6.83203125,0.03125 C6.18359375,0.03125 5.66015625,0.5546875 5.66015625,1.203125 L5.66015625,19.9570312 C5.66015625,20.6054687 6.18359375,21.1289062 6.83203125,21.1289062 L28.796875,21.1289062 C29.4453125,21.1289062 29.96875,20.6054687 29.96875,19.9570312 L29.96875,1.203125 C29.96875,0.5546875 29.4414062,0.03125 28.796875,0.03125 L28.796875,0.03125 Z M18.0703125,15.6796875 L16.2890625,15.6796875 L16.2890625,13.953125 L18.0703125,13.953125 L18.0703125,15.6796875 Z M19.0976562,10.28125 C18.2695312,10.8203125 17.875,11.46875 17.9101562,12.2226562 L17.9101562,12.65625 L16.453125,12.65625 L16.453125,12.1171875 C16.4179688,11.0742187 16.8867188,10.2265625 17.8554688,9.58203125 C18.8632812,8.86328125 19.3476562,8.14453125 19.3125,7.421875 C19.203125,6.4140625 18.6289062,5.875 17.5859375,5.8046875 C16.328125,5.8046875 15.5351562,6.5234375 15.2109375,7.96484375 L13.6445312,7.5859375 C14.078125,5.390625 15.4609375,4.34765625 17.8007812,4.45703125 C19.7773437,4.56640625 20.875,5.5 21.09375,7.26171875 C21.1640625,8.4140625 20.5,9.41796875 19.0976562,10.28125 L19.0976562,10.28125 Z" id="Shape" fill="url(#linearGradient-2)"></path>
                </g>
            </g>
        </g>
    </g>
</svg>