<?xml version="1.0" encoding="UTF-8"?>
<svg width="22px" height="22px" viewBox="0 0 22 22" version="1.1" xmlns="http://www.w3.org/2000/svg" xmlns:xlink="http://www.w3.org/1999/xlink">
    <!-- Generator: Sketch 51.2 (57519) - http://www.bohemiancoding.com/sketch -->
    <title>客服</title>
    <desc>Created with Sketch.</desc>
    <defs></defs>
    <g id="Page-1" stroke="none" stroke-width="1" fill="none" fill-rule="evenodd">
        <g id="首页_活动" transform="translate(-338.000000, -30.000000)">
            <g id="客服" transform="translate(338.000000, 30.000000)">
                <path d="M10.9476686,2.80114532 C7.5327534,2.80114532 4.76462042,5.51291692 4.76462042,8.8578587 C4.76462042,12.2027024 7.5327534,14.914474 10.9476686,14.914474 C14.3624858,14.914474 17.1306188,12.2027024 17.1306188,8.8578587 C17.1292698,5.51291692 14.3624858,2.80114532 10.9476686,2.80114532 Z M3.80755631,11.183783 L3.80755631,5.59127837 C3.72929299,5.59127837 3.65105417,5.59400078 3.57548873,5.60081908 C4.84285924,2.84911871 7.66453306,0.932366156 10.9476686,0.932366156 C14.2307061,0.932366156 17.0537044,2.84911871 18.3197014,5.60081908 C18.2428115,5.59537424 18.1659217,5.59127837 18.0876584,5.59127837 L18.0876584,11.1838076 C19.6639617,11.1838076 20.9436935,9.93154525 20.9436935,8.3882297 C20.9436935,7.33919208 20.3532971,6.42610356 19.4813882,5.9468357 C18.2538238,2.48529602 14.9020882,0 10.9476686,0 C6.99315094,0 3.64276429,2.48529602 2.41382649,5.94681117 C1.54191758,6.42470555 0.951496664,7.33916753 0.951496664,8.38683169 C0.951496664,9.93152073 2.22987946,11.183783 3.80755631,11.183783 Z M17.1169086,14.3899307 C15.500799,15.8674422 13.3327013,16.7722409 10.9476932,16.7722409 C8.56675644,16.7722409 6.40138108,15.8715381 4.78662049,14.3982206 C1.89759754,15.8537075 0,18.4474342 0,21.9694066 L21.9694066,21.9694066 C21.9694066,18.4406159 20.0374478,15.8440932 17.1169086,14.3899307 Z" id="Shape" fill="#878E97" fill-rule="nonzero"></path>
                <text id="JX" font-family="PingFang-SC-Medium, PingFang SC" font-size="4" font-weight="400" letter-spacing="-0.04501963" fill="#0E1B2D">
                    <tspan x="8.7704837" y="20.1944444">JX</tspan>
                </text>
            </g>
        </g>
    </g>
</svg>