<?xml version="1.0" encoding="UTF-8"?>
<svg width="346px" height="152px" viewBox="0 0 346 152" version="1.1" xmlns="http://www.w3.org/2000/svg" xmlns:xlink="http://www.w3.org/1999/xlink">
    <!-- Generator: Sketch 54.1 (76490) - https://sketchapp.com -->
    <title>transfer_personal_bg</title>
    <desc>Created with Sketch.</desc>
    <defs>
        <linearGradient x1="50%" y1="0%" x2="50%" y2="100%" id="linearGradient-4">
            <stop stop-color="#FFFFFF" offset="0%"></stop>
            <stop stop-color="#AEF3FF" offset="100%"></stop>
        </linearGradient>
    </defs>
    <g id="Page-1" stroke="none" stroke-width="1" fill="none" fill-rule="evenodd">
        <g id="转账_体育" transform="translate(-15.000000, -117.000000)">
            <g id="Group" transform="translate(15.000000, 117.000000)">
                <g id="transfer_personal_bg">
                    <g id="personalpage_icon_recharge-copy" opacity="0.05" fill="url(#linearGradient-4)" fill-rule="nonzero">
                        <g transform="translate(253.446551, 86.988882) rotate(24.000000) translate(-253.446551, -86.988882) translate(139.946551, 3.988882)" id="Shape">
                            <path d="M211.866667,0 L15.1333334,0 C6.81,0 0,6.79090908 0,15.0909092 L0,150.909091 C0,159.209091 6.81,166 15.1333334,166 L211.866667,166 C220.19,166 227,159.209091 227,150.909091 L227,15.0909092 C227,6.79090908 220.19,6.28285302e-15 211.866667,0 Z M193.411567,100.399818 L183.321417,130.581636 C182.292924,133.662927 179.401058,135.740997 176.144433,135.738954 L131.565417,135.738954 C129.133827,135.738326 126.850693,134.572438 125.428936,132.605346 C124.00718,130.638255 123.620051,128.109662 124.388433,125.809136 L134.478583,95.6273181 C135.507754,92.5459949 138.398696,90.4670691 141.655567,90.4662272 L186.238367,90.4662272 C188.670214,90.4676639 190.953169,91.6345574 192.374228,93.6024681 C193.795287,95.5703788 194.181247,98.0994524 193.411567,100.399818 L193.411567,100.399818 Z M189.128833,45.2727272 L37.7955,45.2727272 C33.6338334,45.2727272 30.2288334,41.8772727 30.2288334,37.7272728 C30.2288334,33.5772728 33.6338334,30.1818183 37.7955,30.1818183 L189.128833,30.1818183 C193.2905,30.1818183 196.6955,33.5772728 196.6955,37.7272728 C196.6955,41.8772727 193.2905,45.2727272 189.128833,45.2727272 Z"></path>
                        </g>
                    </g>
                </g>
            </g>
        </g>
    </g>
</svg>
