<?xml version="1.0" encoding="UTF-8"?>
<svg width="20px" height="20px" viewBox="0 0 20 20" version="1.1" xmlns="http://www.w3.org/2000/svg" xmlns:xlink="http://www.w3.org/1999/xlink">
    <!-- Generator: Sketch 51.2 (57519) - http://www.bohemiancoding.com/sketch -->
    <title>转入</title>
    <desc>Created with Sketch.</desc>
    <defs>
        <linearGradient x1="0%" y1="0%" x2="101.999998%" y2="100.999999%" id="linearGradient-1">
            <stop stop-color="#5F43D4" offset="0%"></stop>
            <stop stop-color="#D94586" offset="100%"></stop>
        </linearGradient>
    </defs>
    <g id="Page-1" stroke="none" stroke-width="1" fill="none" fill-rule="evenodd">
        <g id="资金明细" transform="translate(-44.000000, -472.000000)" fill="url(#linearGradient-1)" fill-rule="nonzero">
            <g id="充值转入" transform="translate(15.000000, 454.000000)">
                <g id="Group-5" transform="translate(29.000000, 17.000000)">
                    <g id="转入" transform="translate(0.000000, 1.000000)">
                        <path d="M16.5332127,0.00325791855 L15.2242534,0.00325791855 C14.760905,0.00325791855 14.3902262,0.373936652 14.3902262,0.837285068 C14.3902262,1.30063348 14.760905,1.67131222 15.2242534,1.67131222 L16.5332127,1.67131222 C17.5178281,1.67131222 18.3171041,2.47058824 18.3171041,3.45520362 L18.3171041,16.5332127 C18.3171041,17.5178281 17.5178281,18.3171041 16.5332127,18.3171041 L3.46678733,18.3171041 C2.48217195,18.3171041 1.68289593,17.5178281 1.68289593,16.5332127 L1.68289593,3.45520362 C1.68289593,2.47058824 2.48217195,1.67131222 3.46678733,1.67131222 L4.77574661,1.67131222 C5.23909502,1.67131222 5.60977376,1.30063348 5.60977376,0.837285068 C5.60977376,0.373936652 5.23909502,0.00325791855 4.77574661,0.00325791855 L3.46678733,0.00325791855 C1.56705882,0.00325791855 0.014841629,1.5438914 0.014841629,3.45520362 L0.014841629,16.5332127 C0.014841629,18.4329412 1.55547511,19.9851584 3.46678733,19.9851584 L16.5332127,19.9851584 C18.4329412,19.9851584 19.9851584,18.4445249 19.9851584,16.5332127 L19.9851584,3.45520362 C19.9851584,1.5438914 18.4445249,0.00325791855 16.5332127,0.00325791855 Z" id="Shape"></path>
                        <path d="M10.8340271,0.837285068 C10.8340271,0.373936652 10.4633484,0.00325791855 10,0.00325791855 C9.53665158,0.00325791855 9.16597285,0.373936652 9.16597285,0.837285068 L9.16597285,4.61357466 C9.16597285,4.94950226 8.8879638,5.23909502 8.54045249,5.23909502 L7.79909502,5.23909502 C7.47475113,5.23909502 7.28941176,5.60977376 7.48633484,5.86461538 L9.47873303,8.52886878 C9.73357466,8.86479638 10.2316742,8.86479638 10.4865158,8.52886878 L12.478914,5.8761991 C12.6758371,5.62135747 12.4904977,5.25067873 12.1661538,5.25067873 L11.4247964,5.25067873 C11.0888688,5.25067873 10.799276,4.97266968 10.799276,4.62515837 L10.799276,0.837285068 L10.8340271,0.837285068 Z M13.4171946,12.2240724 L7.97285068,12.2240724 C7.5558371,12.2240724 7.2199095,11.8881448 7.2199095,11.4711312 C7.2199095,11.0541176 7.5558371,10.71819 7.97285068,10.71819 L13.4171946,10.71819 C13.8342081,10.71819 14.1701357,11.0541176 14.1701357,11.4711312 C14.1701357,11.8765611 13.8226244,12.2240724 13.4171946,12.2240724 Z M12.0271493,14.3786425 L6.58280543,14.3786425 C6.16579186,14.3786425 5.82986425,14.0427149 5.82986425,13.6257014 C5.82986425,13.2086878 6.16579186,12.8727602 6.58280543,12.8727602 L12.0271493,12.8727602 C12.4441629,12.8727602 12.7800905,13.2086878 12.7800905,13.6257014 C12.7800905,14.0427149 12.4441629,14.3786425 12.0271493,14.3786425 Z M12.0271493,16.5332127 L6.58280543,16.5332127 C6.16579186,16.5332127 5.82986425,16.1972851 5.82986425,15.7802715 C5.82986425,15.3632579 6.16579186,15.0273303 6.58280543,15.0273303 L12.0271493,15.0273303 C12.4441629,15.0273303 12.7800905,15.3632579 12.7800905,15.7802715 C12.7800905,16.2088688 12.4441629,16.5332127 12.0271493,16.5332127 Z" id="Shape"></path>
                    </g>
                </g>
            </g>
        </g>
    </g>
</svg>