<?xml version="1.0" encoding="UTF-8"?>
<svg width="20px" height="20px" viewBox="0 0 20 20" version="1.1" xmlns="http://www.w3.org/2000/svg" xmlns:xlink="http://www.w3.org/1999/xlink">
    <!-- Generator: Sketch 51.2 (57519) - http://www.bohemiancoding.com/sketch -->
    <title>温馨提示</title>
    <desc>Created with Sketch.</desc>
    <defs>
        <linearGradient x1="0%" y1="31.5359933%" x2="58.951029%" y2="70.968192%" id="linearGradient-1">
            <stop stop-color="#EFDAAF" offset="0%"></stop>
            <stop stop-color="#DBB579" offset="100%"></stop>
        </linearGradient>
    </defs>
    <g id="Page-1" stroke="none" stroke-width="1" fill="none" fill-rule="evenodd">
        <g id="充值" transform="translate(-15.000000, -646.000000)" fill="url(#linearGradient-1)" fill-rule="nonzero">
            <g id="Group-13" transform="translate(15.000000, 605.000000)">
                <g id="温馨提示" transform="translate(0.000000, 41.000000)">
                    <path d="M9.9902439,0 C4.47075122,0 0,4.47051707 0,9.9902439 C0,15.5099707 4.47075122,19.9804878 9.9902439,19.9804878 C15.5097366,19.9804878 19.9807024,15.5099707 19.9807024,9.9902439 C19.9807024,4.47051707 15.5106341,0 9.9902439,0 Z M9.9902439,16.4781073 C9.37761194,16.4781073 8.88097561,15.981471 8.88097561,15.368839 C8.88097561,14.7562071 9.37761194,14.2595707 9.9902439,14.2595707 C10.6028759,14.2595707 11.0995122,14.7562071 11.0995122,15.368839 C11.0991462,15.9813193 10.6027242,16.4777413 9.9902439,16.4781073 Z M11.0997073,11.156 C11.0997073,11.8637854 10.6049366,12.4331512 9.99045854,12.4331512 C9.37598049,12.4331512 8.88120976,11.8644683 8.88120976,11.156 L8.88120976,4.56185366 C8.88120976,3.8598439 9.37578537,3.28444878 9.99047805,3.28444878 C10.6051707,3.28444878 11.0997268,3.85986341 11.0997268,4.56185366 L11.0997073,11.156 Z" id="Shape"></path>
                </g>
            </g>
        </g>
    </g>
</svg>