<?xml version="1.0" standalone="no"?><!DOCTYPE svg PUBLIC "-//W3C//DTD SVG 1.1//EN" "http://www.w3.org/Graphics/SVG/1.1/DTD/svg11.dtd"><svg t="1595219127645" class="icon" viewBox="0 0 1024 1024" version="1.1" xmlns="http://www.w3.org/2000/svg" p-id="8425" xmlns:xlink="http://www.w3.org/1999/xlink" width="200" height="200"><defs><style type="text/css"></style></defs><path d="M913.850811 717.353514 848.259459 402.404324 177.401081 402.404324 107.658378 718.737297C104.614054 728.700541 92.713514 771.044324 115.407568 803.148108 125.370811 817.262703 146.127568 834.421622 187.364324 834.421622L206.183784 834.421622 206.183784 784.605405 187.364324 784.605405C176.294054 784.605405 161.902703 782.668108 156.090811 774.365405 148.618378 763.848649 152.216216 742.261622 155.260541 733.682162L202.032432 521.40973 282.845405 962.56C282.845405 962.56 297.236757 1022.616216 354.525405 1022.616216L673.349189 1022.616216C734.235676 1022.616216 745.029189 964.220541 745.029189 964.220541L824.181622 531.096216 865.418378 728.700541 866.248649 732.021622C868.185946 737.28 873.721081 761.357838 865.141622 773.811892 858.776216 782.668108 843.554595 784.605405 832.207568 784.605405L815.878919 784.605405 815.878919 834.421622 832.207568 834.421622C874.274595 834.421622 895.308108 816.985946 905.548108 802.594595 928.795676 770.214054 917.171892 727.316757 913.850811 717.353514L913.850811 717.353514ZM664.76973 664.216216 598.071351 729.254054 613.56973 819.476757C615.507027 832.484324 602.776216 840.233514 591.982703 832.484324L512.83027 791.247568 432.294054 833.591351C421.500541 839.126486 410.43027 835.528649 412.367568 820.583784L427.589189 729.254054 362.551351 666.153514C350.097297 654.806486 356.462703 644.28973 371.130811 642.075676L460.246486 629.344865C460.246486 629.344865 478.512432 592.259459 495.117838 558.495135 507.295135 535.801081 520.579459 536.077838 530.542703 558.495135L565.414054 629.344865 658.681081 642.629189C674.456216 645.12 676.393514 652.038919 664.76973 664.216216L664.76973 664.216216Z" p-id="8426" fill="#a2cce8"></path><path d="M576.761081 353.971892 309.414054 353.971892C304.985946 315.779459 298.343784 238.564324 260.981622 168.268108 260.981622 168.268108 248.527568 179.615135 239.117838 162.732973L197.050811 74.724324 283.122162 25.461622 341.241081 103.23027C354.248649 118.175135 338.75027 127.308108 338.75027 127.308108 391.610811 249.081081 515.597838 282.845405 576.761081 353.971892" p-id="8427" fill="#a2cce8"></path></svg>