<?xml version="1.0" encoding="UTF-8"?>
<svg width="20px" height="20px" viewBox="0 0 20 20" version="1.1" xmlns="http://www.w3.org/2000/svg" xmlns:xlink="http://www.w3.org/1999/xlink">
    <!-- Generator: Sketch 54.1 (76490) - https://sketchapp.com -->
    <title>personalcentre_icon_welfare</title>
    <desc>Created with Sketch.</desc>
    <defs>
        <linearGradient x1="50%" y1="0%" x2="50%" y2="100%" id="linearGradient-1">
            <stop stop-color="#FAD961" offset="0%"></stop>
            <stop stop-color="#FF8F4F" offset="100%"></stop>
        </linearGradient>
    </defs>
    <g id="Page-1" stroke="none" stroke-width="1" fill="none" fill-rule="evenodd">
        <g id="首页_个人中心" transform="translate(-36.000000, -294.000000)" fill="url(#linearGradient-1)" fill-rule="nonzero">
            <g id="平台福利" transform="translate(36.000000, 292.000000)">
                <g id="personalcentre_icon_welfare" transform="translate(0.000000, 2.000000)">
                    <path d="M8.0198087,5.55143743 L0.973753488,5.55143743 C0.439961436,5.55143743 0.0129277786,5.97847109 0.0129277786,6.51226314 L0.0129277786,9.07446504 C0.0129277786,9.6082571 0.439961436,10.0352908 0.973753488,10.0352908 L8.0198087,10.0352908 C8.55360075,10.0352908 8.98063441,9.6082571 8.98063441,9.07446504 L8.98063441,6.51226314 C8.98063441,5.97847109 8.55360075,5.55143743 8.0198087,5.55143743 Z M8.0198087,11.1028749 L1.9345792,11.1028749 C1.40078715,11.1028749 0.973753488,11.5299085 0.973753488,12.0637006 L0.973753488,18.1489301 C0.973753488,18.6827221 1.50754554,19.1097558 2.04133761,19.1097558 L8.0198087,19.1097558 C8.55360075,19.1097558 8.98063441,18.6827221 8.98063441,18.1489301 L8.98063441,12.0637006 C8.98063441,11.5299085 8.55360075,11.1028749 8.0198087,11.1028749 Z M4.92381474,0 C4.39002269,0 3.21568015,0.533792053 2.89540491,0.96082571 C1.72106237,2.6689603 2.57512966,5.01764538 6.4184325,5.01764538 C8.01980868,5.01764538 9.40766805,3.62978601 9.40766805,2.98923554 C9.51442646,2.45544347 7.59277504,0.106758414 4.92381474,0 Z M8.0198087,2.98923554 C7.91305028,3.30951079 7.27249982,3.84330284 5.99139886,3.84330284 C4.4967811,3.84330284 3.32243856,3.09599396 3.42919696,2.02840983 C3.42919696,1.38785937 4.39002267,1.06758412 4.92381474,1.06758412 C7.37925821,1.06758412 8.12656711,2.88247713 8.0198087,2.98923554 Z M18.0550994,5.55143743 L11.0090442,5.55143743 C10.4752522,5.55143743 10.0482185,5.97847109 10.0482185,6.51226314 L10.0482185,9.07446504 C10.0482185,9.6082571 10.4752522,10.0352908 11.0090442,10.0352908 L18.0550994,10.0352908 C18.5888915,10.0352908 19.0159251,9.6082571 19.0159251,9.07446504 L19.0159251,6.51226314 C19.1226836,5.97847109 18.6956499,5.55143743 18.0550994,5.55143743 Z M12.503662,5.01764538 C16.2402064,5.01764538 17.0942737,2.6689603 15.9199312,0.96082571 C15.5996559,0.533792053 14.5320718,4.26325641e-14 13.9982798,4.26325641e-14 C11.4360779,0.106758414 9.51442646,2.45544347 9.51442646,2.98923554 C9.51442646,3.62978601 10.9022858,5.01764538 12.503662,5.01764538 Z M13.8915214,1.06758412 C14.4253134,1.06758412 15.2793807,1.38785937 15.3861391,2.02840983 C15.4928975,3.20275237 14.318555,3.84330284 12.9306956,3.84330284 C11.6495947,3.84330284 11.0090442,3.30951079 10.9022858,2.98923554 C10.9022858,2.88247713 11.5428363,1.06758412 13.8915214,1.06758412 L13.8915214,1.06758412 Z M17.0942737,11.1028749 L11.0090442,11.1028749 C10.4752522,11.1028749 10.0482185,11.5299085 10.0482185,12.0637006 L10.0482185,18.1489301 C10.0482185,18.6827221 10.4752522,19.1097558 11.1158026,19.1097558 L17.0942737,19.1097558 C17.6280658,19.1097558 18.0550994,18.6827221 18.0550994,18.1489301 L18.0550994,12.0637006 C18.0550994,11.5299085 17.6280658,11.1028749 17.0942737,11.1028749 L17.0942737,11.1028749 Z" id="Shape"></path>
                </g>
            </g>
        </g>
    </g>
</svg>