<?xml version="1.0" encoding="UTF-8"?>
<svg width="20px" height="20px" viewBox="0 0 20 20" version="1.1" xmlns="http://www.w3.org/2000/svg" xmlns:xlink="http://www.w3.org/1999/xlink">
    <!-- Generator: Sketch 51.2 (57519) - http://www.bohemiancoding.com/sketch -->
    <title>personalpage_icon_agency</title>
    <desc>Created with Sketch.</desc>
    <defs>
        <linearGradient x1="20.6419271%" y1="0%" x2="22.3776042%" y2="100%" id="linearGradient-1">
            <stop stop-color="#13A2BA" offset="0%"></stop>
            <stop stop-color="#087C95" offset="100%"></stop>
        </linearGradient>
    </defs>
    <g id="Page-1" stroke="none" stroke-width="1" fill="none" fill-rule="evenodd">
        <g id="首页_侧滑-" transform="translate(-35.000000, -500.000000)" fill="url(#linearGradient-1)" fill-rule="nonzero">
            <g id="Group-6" transform="translate(15.000000, 321.000000)">
                <g id="personalpage_icon_agency" transform="translate(20.000000, 179.000000)">
                    <path d="M6.32518943,10.2245315 C7.49837188,9.6545966 7.90898575,8.9195471 7.70911022,7.71305203 C7.68122531,7.52191282 7.68122531,7.32773862 7.70911022,7.13659941 C7.78297727,6.61880593 7.56427287,6.26757537 7.18407487,5.92720761 C6.19556002,5.05021751 5.23818519,4.13629389 4.28370711,3.22743959 C4.03169014,2.98700961 3.86223046,2.88634765 3.54793343,3.18181583 C2.50571678,4.16460567 1.44532432,5.12794034 0.367305409,6.07132078 C0.0602502403,6.34071823 -0.00347817555,6.63980733 0.000142755141,7.0178328 C0.0117297452,8.53065882 0.00448788385,10.0471058 0.00448788385,11.5592076 L0.00448788385,15.2771822 C0.00448788385,17.1441355 0.00448788385,17.1441355 1.87578632,17.3085259 C3.09241998,17.4113604 3.18077076,17.3230096 3.29953739,16.1252048 C3.36543838,15.4394 3.43930543,14.7521468 3.60224743,14.0866192 C4.00634361,12.4521298 4.78339594,10.971168 6.32518943,10.2245315 Z M1.68315266,7.11414963 C1.70560244,5.96776209 2.68108194,5.03935472 3.84267741,5.06470125 C5.01513569,5.09149617 5.95078491,6.04525005 5.92543838,7.19236179 C5.90371277,8.33223167 4.91881885,9.2671567 3.7615685,9.24832785 C2.60793907,9.23022318 1.66070287,8.26126137 1.68315266,7.11414963 Z" id="Shape"></path>
                    <path d="M16.066951,12.2023717 C15.1805464,11.5107734 14.9879128,11.5839162 14.5316751,12.6202274 C14.0645747,13.6818851 13.6047161,14.7428186 13.0717147,15.9529346 C12.5720259,14.8579643 12.1990698,13.9635938 12.828388,12.9786998 C13.057231,12.6245725 12.9377402,12.2994127 12.5944757,12.052465 C12.1954488,11.7642387 11.781214,11.7157182 11.3655309,11.9959785 C11.0447162,12.215407 10.7818364,12.5840181 11.0121278,12.9062812 C11.7674545,13.94911 11.0896157,14.8847592 10.8520825,15.8761708 C10.1278958,14.767441 9.6644163,13.5645669 9.23642197,12.3486574 C9.11041347,11.9894608 9.01409664,11.7859643 8.55206553,11.9807706 C6.02175719,13.0547394 4.42782224,14.8557918 4.0657289,17.6330478 C3.87671616,19.0828696 4.02445026,19.2791242 5.46340923,19.5405556 C8.10451814,20.0221397 10.7716978,20.0865923 13.4453951,19.9591355 C15.0950924,19.8823717 16.7447897,19.7607083 18.3235167,19.2197408 C19.7081617,18.7475711 19.9826285,18.2138455 19.5068378,16.850202 C18.8463795,14.9506602 17.6398845,13.4320407 16.066951,12.2023717 Z M11.0077826,11.0740888 C11.4227416,11.3623151 11.8956355,11.5592939 12.4011179,11.2935174 C14.310074,10.287622 15.7135478,8.76682996 16.7375478,6.89118639 C16.970736,6.46608879 17.0149114,5.83314962 16.5927105,5.5999615 C16.0966426,5.32694311 16.2458251,5.0119219 16.2487218,4.66069134 C16.2342381,3.38467437 15.9981532,2.18324863 14.973429,1.29539572 C13.4939156,0.0114126913 11.7993187,-0.369509507 9.97943751,0.385093048 C8.16390145,1.1396956 7.53820412,2.72349192 7.38684911,4.56509869 C7.36802026,4.78669982 7.557033,5.07854707 7.22752804,5.21976348 C6.41861149,5.56013123 6.52868787,6.22203788 6.88788448,6.70651879 C8.07772323,8.32580026 9.33998066,9.90163053 11.0077826,11.0740888 Z" id="Shape"></path>
                </g>
            </g>
        </g>
    </g>
</svg>