<?xml version="1.0" encoding="UTF-8"?>
<svg width="20px" height="15px" viewBox="0 0 20 15" version="1.1" xmlns="http://www.w3.org/2000/svg" xmlns:xlink="http://www.w3.org/1999/xlink">
    <!-- Generator: Sketch 51.2 (57519) - http://www.bohemiancoding.com/sketch -->
    <title>personalpage_icon_withdraw</title>
    <desc>Created with Sketch.</desc>
    <defs>
        <linearGradient x1="20.6419271%" y1="0%" x2="22.3776042%" y2="100%" id="linearGradient-1">
            <stop stop-color="#FFFFFF" offset="0%"></stop>
            <stop stop-color="#FFEBC9" offset="100%"></stop>
        </linearGradient>
    </defs>
    <g id="Page-1" stroke="none" stroke-width="1" fill="none" fill-rule="evenodd">
        <g id="首页_侧滑-" transform="translate(-245.000000, -272.000000)" fill="url(#linearGradient-1)" fill-rule="nonzero">
            <g id="personalpage_btn_withdraw" transform="translate(195.000000, 257.000000)">
                <g id="Group-6" transform="translate(50.000000, 10.000000)">
                    <g id="Group-9">
                        <g id="personalpage_icon_withdraw" transform="translate(0.000000, 5.000000)">
                            <path d="M19.1999909,3.75000001 L19.1999909,0.83332017 C19.1999909,0.370678004 18.8417962,0 18.3996176,0 L0.800373266,2.31682542e-08 C0.358194688,2.31682542e-08 0,0.373119962 0,0.833320193 L0,14.1666798 C0,14.6293457 0.358194688,15 0.800373266,15 L18.3996176,15 C18.8417962,15 19.1999909,14.6268801 19.1999909,14.1666798 L19.1999909,10.4167035 L11.60193,10.4167035 C11.1589548,10.4167035 10.8000091,10.0439629 10.8000091,9.58580161 L10.8000091,4.58090192 C10.8000091,4.12193452 11.1589548,3.75002371 11.60193,3.75002371 L19.1999909,3.75002371 L19.1999909,3.75000001 Z M12,5.83335967 C12,5.37315944 12.3593554,5.0000158 12.7964586,5.0000158 L19.2034959,5.0000158 C19.643353,5.0000158 20,5.36988771 20,5.83335967 L20,8.33336758 C20,8.79354409 19.640599,9.16666403 19.2034959,9.16666403 L12.7964586,9.16666403 C12.3566015,9.16666403 12,8.79679212 12,8.33336758 L12,5.83335967 Z M13.9999772,7.91669564 C14.4417916,7.91669564 14.7999863,7.5435757 14.7999863,7.08335177 C14.7999863,6.62315153 14.4417916,6.2500316 13.9999772,6.2500316 C13.5581628,6.2500316 13.1999681,6.62315153 13.1999681,7.08335177 C13.1999681,7.543552 13.5581628,7.91669564 13.9999772,7.91669564 Z" id="Shape"></path>
                        </g>
                    </g>
                </g>
            </g>
        </g>
    </g>
</svg>