<?xml version="1.0" encoding="UTF-8"?>
<svg width="18px" height="18px" viewBox="0 0 18 18" version="1.1" xmlns="http://www.w3.org/2000/svg" xmlns:xlink="http://www.w3.org/1999/xlink">
    <!-- Generator: Sketch 51.2 (57519) - http://www.bohemiancoding.com/sketch -->
    <title>personalpage_icon_cs</title>
    <desc>Created with Sketch.</desc>
    <defs></defs>
    <g id="Page-1" stroke="none" stroke-width="1" fill="none" fill-rule="evenodd">
        <g id="首页_侧滑-" transform="translate(-339.000000, -63.000000)">
            <g id="icon" transform="translate(339.000000, 30.000000)">
                <g id="personalpage_icon_cs" transform="translate(0.000000, 33.000000)">
                    <path d="M8.95718344,2.29184617 C6.16316187,2.29184617 3.8983258,4.51056839 3.8983258,7.24733894 C3.8983258,9.98402924 6.16316187,12.2027514 8.95718344,12.2027514 C11.7511247,12.2027514 14.0159608,9.98402922 14.0159608,7.24733894 C14.0148571,4.51056839 11.7511247,2.29184617 8.95718344,2.29184617 Z M3.11527334,9.15036795 L3.11527334,4.5746823 C3.05123972,4.5746823 2.98722614,4.57690973 2.92539987,4.58248834 C3.96233938,2.33109712 6.27098159,0.762845037 8.95718344,0.762845037 C11.643305,0.762845037 13.9530308,2.33109712 14.9888466,4.58248834 C14.9259367,4.57803347 14.8630268,4.5746823 14.7989932,4.5746823 L14.7989932,9.15038801 C16.088696,9.15038801 17.1357492,8.12580975 17.1357492,6.86309703 C17.1357492,6.00479352 16.6526976,5.2577211 15.9393176,4.86559284 C14.9349468,2.03342402 12.1926177,0 8.95718344,0 C5.72166895,0 2.98044351,2.03342402 1.97494894,4.86557278 C1.26156893,5.25657726 0.778497271,6.00477343 0.778497271,6.8619532 C0.778497271,8.12578969 1.82444683,9.15036795 3.11527334,9.15036795 Z M14.0047434,11.7735796 C12.6824719,12.9824527 10.9085738,13.7227426 8.95720351,13.7227426 C7.00916436,13.7227426 5.23749361,12.9858039 3.91632586,11.7803623 C1.55257981,12.9712152 0,15.0933552 0,17.974969 L17.974969,17.974969 C17.974969,15.0877766 16.3942755,12.963349 14.0047434,11.7735796 Z" id="Shape" fill="#878E97" fill-rule="nonzero"></path>
                    <text id="JX" font-family="PingFang-SC-Medium, PingFang SC" font-size="4" font-weight="400" letter-spacing="-0.04501963" fill="#0E1B2D">
                        <tspan x="6.32603926" y="17.25">JX</tspan>
                    </text>
                </g>
            </g>
        </g>
    </g>
</svg>