<?xml version="1.0" encoding="UTF-8"?>
<svg width="17px" height="20px" viewBox="0 0 17 20" version="1.1" xmlns="http://www.w3.org/2000/svg" xmlns:xlink="http://www.w3.org/1999/xlink">
    <!-- Generator: Sketch 54.1 (76490) - https://sketchapp.com -->
    <title>personal_icon_report</title>
    <desc>Created with Sketch.</desc>
    <defs>
        <linearGradient x1="58.951029%" y1="0%" x2="58.951029%" y2="130.369552%" id="linearGradient-1">
            <stop stop-color="#EFDAAF" offset="0%"></stop>
            <stop stop-color="#DBB579" offset="100%"></stop>
        </linearGradient>
    </defs>
    <g id="Page-1" stroke="none" stroke-width="1" fill="none" fill-rule="evenodd">
        <g id="首页_个人中心" transform="translate(-39.000000, -677.000000)" fill="url(#linearGradient-1)" fill-rule="nonzero">
            <g id="Group-11" transform="translate(35.000000, 538.000000)">
                <g id="分红记录-copy" transform="translate(4.000000, 136.000000)">
                    <g id="personal_icon_report" transform="translate(0.000000, 3.000000)">
                        <path d="M15.5555556,20 L1.11111111,20 C0.497777793,20 0,19.5022222 0,18.8888889 L0,3.33333334 C0,2.72 0.497777793,2.22222223 1.11111111,2.22222223 L3.33333334,2.22222223 C3.33333334,2.83555555 3.83111111,3.33333334 4.44444445,3.33333334 L12.2222222,3.33333334 C12.8355556,3.33333334 13.3333333,2.83555555 13.3333333,2.22222223 L15.5555556,2.22222223 C16.1688889,2.22222223 16.6666667,2.72 16.6666667,3.33333334 L16.6666667,18.8888889 C16.6666667,19.5022222 16.1688889,20 15.5555556,20 Z M13.3333333,5.55555555 L3.33333334,5.55555555 C2.72,5.55555555 2.22222222,6.05333334 2.22222222,6.66666666 C2.22222222,7.28 2.72,7.77777777 3.33333334,7.77777777 L13.3333333,7.77777777 C13.9466667,7.77777777 14.4444444,7.28 14.4444444,6.66666666 C14.4444444,6.05333334 13.9466667,5.55555555 13.3333333,5.55555555 Z M13.3333333,10 L3.33333334,10 C2.72,10 2.22222222,10.4977778 2.22222222,11.1111111 C2.22222222,11.7244445 2.72,12.2222222 3.33333334,12.2222222 L13.3333333,12.2222222 C13.9466667,12.2222222 14.4444444,11.7244445 14.4444444,11.1111111 C14.4444444,10.4977778 13.9466667,10 13.3333333,10 Z M13.3333333,14.4444445 L3.33333334,14.4444445 C2.72,14.4444445 2.22222222,14.9422222 2.22222222,15.5555555 C2.22222222,16.1688889 2.72,16.6666667 3.33333334,16.6666667 L13.3333333,16.6666667 C13.9466667,16.6666667 14.4444444,16.1688889 14.4444444,15.5555555 C14.4444444,14.9422222 13.9466667,14.4444445 13.3333333,14.4444445 Z M11.1111111,2.22222223 L5.55555556,2.22222223 C4.94222222,2.22222223 4.44444445,1.72444445 4.44444445,1.11111111 C4.44444445,0.497777773 4.94222222,0 5.55555556,0 L11.1111111,0 C11.7244444,0 12.2222222,0.497777773 12.2222222,1.11111111 C12.2222222,1.72444445 11.7244444,2.22222223 11.1111111,2.22222223 Z" id="Shape"></path>
                    </g>
                </g>
            </g>
        </g>
    </g>
</svg>