<?xml version="1.0" encoding="UTF-8"?>
<svg width="20px" height="20px" viewBox="0 0 20 20" version="1.1" xmlns="http://www.w3.org/2000/svg" xmlns:xlink="http://www.w3.org/1999/xlink">
    <!-- Generator: Sketch 51.2 (57519) - http://www.bohemiancoding.com/sketch -->
    <title>personalpage_icon_record</title>
    <desc>Created with Sketch.</desc>
    <defs>
        <linearGradient x1="20.6419271%" y1="0%" x2="22.3776042%" y2="100%" id="linearGradient-1">
            <stop stop-color="#13A2BA" offset="0%"></stop>
            <stop stop-color="#087C95" offset="100%"></stop>
        </linearGradient>
    </defs>
    <g id="Page-1" stroke="none" stroke-width="1" fill="none" fill-rule="evenodd">
        <g id="首页_侧滑-" transform="translate(-35.000000, -392.000000)" fill="url(#linearGradient-1)" fill-rule="nonzero">
            <g id="Group-6" transform="translate(15.000000, 321.000000)">
                <g id="personalpage_icon_record" transform="translate(20.000000, 71.000000)">
                    <path d="M3.58638328,17.6584485 C4.60305256,17.1392197 5.73054747,16.874487 6.8720635,16.8869796 C9.42512583,16.8869796 11.561928,18.1080094 12.1169415,19.7508496 C12.9967187,19.5601001 13.8463348,19.2501303 14.6422532,18.8295271 C13.9856812,16.8667411 14.356652,14.7055233 15.6301773,13.0740365 C16.651294,11.6297726 18.2281389,10.676425 19.9814836,10.4432723 L19.9814836,9.99371135 C19.9804364,9.32092447 19.9135155,8.64985657 19.7816787,7.99011243 C18.3353375,7.57711536 17.1105935,6.60968728 16.3738955,5.29829671 C15.7415469,4.22200099 15.472961,2.97054627 15.6079768,1.72955958 C11.2037903,-1.2651133 5.22473806,-0.27829739 2.01643093,3.97278362 C-1.19187621,8.22386464 -0.501239013,14.2443207 3.58638328,17.6584485 Z M8.4205513,1.48535362 C12.2521203,1.48535362 15.3582207,4.591454 15.3582207,8.423023 C15.3582207,12.254592 12.2521203,15.3606924 8.4205513,15.3606924 C4.58898231,15.3606924 1.48288193,12.254592 1.48288193,8.423023 C1.48288193,4.591454 4.58898231,1.48535362 8.4205513,1.48535362 Z" id="Shape"></path>
                    <path d="M11.8599675,10.593561 C11.8322168,12.2586016 10.6777886,13.135523 8.38558266,13.1632737 C6.16552846,13.1077724 5.05550136,12.2808022 5,10.6712629 C5.05180126,9.53163505 5.70116712,8.77681662 6.94809756,8.40680759 C5.80476965,8.11080036 5.23310569,7.42998374 5.23310569,6.36435772 C5.39405962,4.87137127 6.47078591,4.0777019 8.45773442,4 C10.4446829,4.0777019 11.5214092,4.87137127 11.6879133,6.36435772 C11.6879133,7.37448238 11.0440976,8.02939837 9.7675664,8.40680759 C11.1662005,8.72871545 11.8599675,9.44468293 11.8599675,10.593561 Z M9.85636856,10.715664 C9.85636856,9.92199458 9.36795664,9.42248238 8.38558266,9.20047696 C7.46426016,9.44468293 6.99804878,9.93864499 6.99804878,10.6712629 C6.9998417,11.0397723 7.15549204,11.3907798 7.42740586,11.6395072 C7.69931968,11.8882346 8.06277376,12.0120668 8.42998374,11.9810949 C9.35685637,11.9533442 9.82861789,11.5315339 9.85636856,10.715664 Z M9.72316531,6.42540921 C9.69541463,5.68724119 9.27360434,5.31538211 8.45773442,5.2820813 C7.6418645,5.24878049 7.24780488,5.7038916 7.19230352,6.3921084 C7.13680217,7.0803252 7.58636314,7.5021355 8.45773442,7.70194038 C9.28285456,7.47993496 9.70466486,7.05442457 9.72316531,6.42540921 Z" id="Shape"></path>
                </g>
            </g>
        </g>
    </g>
</svg>