<?xml version="1.0" encoding="UTF-8"?>
<svg width="20px" height="20px" viewBox="0 0 20 20" version="1.1" xmlns="http://www.w3.org/2000/svg" xmlns:xlink="http://www.w3.org/1999/xlink">
    <!-- Generator: Sketch 56.3 (81716) - https://sketch.com -->
    <title>recharegline_selected</title>
    <desc>Created with Sketch.</desc>
    <defs>
        <linearGradient x1="20.6419271%" y1="0.00111690602%" x2="22.3776042%" y2="99.9988831%" id="linearGradient-1">
            <stop stop-color="#13A2BA" offset="0%"></stop>
            <stop stop-color="#087C95" offset="100%"></stop>
        </linearGradient>
    </defs>
    <g id="支付渠道" stroke="none" stroke-width="1" fill="none" fill-rule="evenodd">
        <g id="充值_支付宝_扫码" transform="translate(-30.000000, -383.000000)" fill="url(#linearGradient-1)">
            <g id="recharegline_selected" transform="translate(30.000000, 383.000000)">
                <path d="M9.9600611,-9.96671042e-08 C4.45775721,0.00222854696 -0.000668302975,4.46377277 0,9.96563112 C0.000668302975,15.4674895 4.46087592,19.9279199 9.96295705,19.9285882 C15.4650382,19.9292565 19.9261369,15.4706082 19.928811,9.96852707 C19.9299335,7.3243267 18.8800113,4.7881065 17.0102582,2.91839521 C15.1405051,1.04868392 12.6042614,-0.00118163753 9.9600611,-9.96671042e-08 Z M15.6786701,7.38155318 L9.23005907,13.8254862 C9.06012833,14.0007899 8.82640465,14.099739 8.58225747,14.099739 C8.33811029,14.099739 8.1043866,14.0007899 7.93445586,13.8254862 L4.22407637,10.1155522 C3.8662439,9.75771974 3.8662439,9.17755869 4.22407636,8.81972622 C4.58190882,8.46189375 5.16206988,8.46189375 5.51990234,8.81972621 L8.59517787,11.8950017 L14.4002199,6.11156799 C14.6311161,5.87725768 14.9699029,5.78471165 15.2878559,5.86909335 C15.605809,5.95347504 15.8541233,6.20183206 15.9384503,6.51979961 C16.0227773,6.83776717 15.9301731,7.17653797 15.6958231,7.40739397 L15.6786701,7.38155318 Z" id="形状"></path>
            </g>
        </g>
    </g>
</svg>