<?xml version="1.0" encoding="UTF-8"?>
<svg width="23px" height="18px" viewBox="0 0 23 18" version="1.1" xmlns="http://www.w3.org/2000/svg" xmlns:xlink="http://www.w3.org/1999/xlink">
    <!-- Generator: Sketch 56.3 (81716) - https://sketch.com -->
    <title>reportcenter_icon_bonus</title>
    <desc>Created with Sketch.</desc>
    <defs>
        <linearGradient x1="50%" y1="0%" x2="50%" y2="100%" id="linearGradient-1">
            <stop stop-color="#FAD961" offset="0%"></stop>
            <stop stop-color="#F7A71C" offset="100%"></stop>
        </linearGradient>
    </defs>
    <g id="jx1.2" stroke="none" stroke-width="1" fill="none" fill-rule="evenodd">
        <g id="报表中心_彩票" transform="translate(-248.000000, -631.000000)" fill="url(#linearGradient-1)" fill-rule="nonzero">
            <g id="提现转出-copy" transform="translate(197.000000, 612.000000)">
                <g id="Group-3" transform="translate(51.000000, 17.000000)">
                    <g id="reportcenter_icon_bonus" transform="translate(0.000000, 2.000000)">
                        <path d="M18.5806452,12.7091613 C18.8614194,12.7091613 19.0967742,12.7669677 19.2867097,12.8825806 C19.4766452,12.9981935 19.6294194,13.1468387 19.7450323,13.3285161 C19.8606452,13.5101935 19.9432258,13.7166452 19.9927742,13.947871 C20.0423226,14.1790968 20.0670968,14.4103226 20.0670968,14.6415484 L20.0670968,16.3757419 C20.0670968,16.8051613 19.9225806,17.1809032 19.6335484,17.5029677 C19.3445161,17.8250323 18.9357419,17.9860645 18.4072258,17.9860645 L1.46167742,17.9860645 C1.09832258,17.9860645 0.763870968,17.8539355 0.458322581,17.5896774 C0.152774194,17.3254194 0,16.9703226 0,16.5243871 L0,14.468129 C0,13.956129 0.161032258,13.5349677 0.483096774,13.2046452 C0.80516129,12.8743226 1.19741935,12.7091613 1.65987097,12.7091613 L18.5806452,12.7091613 L18.5806452,12.7091613 Z M18.4072258,6.58993548 C18.7045161,6.58993548 18.9563871,6.6436129 19.1628387,6.75096774 C19.3692903,6.85832258 19.5427097,6.99458065 19.6830968,7.15974194 C19.8234839,7.32490323 19.9225806,7.51483871 19.9803871,7.72954839 C20.0381935,7.94425806 20.0670968,8.15070968 20.0670968,8.34890323 L20.0670968,9.73625806 C20.0670968,10.2152258 19.9390968,10.6157419 19.6830968,10.9378065 C19.4270968,11.259871 18.9852903,11.4209032 18.3576774,11.4209032 L1.58554839,11.4209032 C1.1396129,11.4209032 0.763870968,11.259871 0.458322581,10.9378065 C0.152774194,10.6157419 0,10.2565161 0,9.86012903 L0,8.12593548 C0,7.69651613 0.144516129,7.33316129 0.433548387,7.03587097 C0.722580645,6.73858065 1.08180645,6.58993548 1.51122581,6.58993548 L18.4072258,6.58993548 L18.4072258,6.58993548 Z M21.0828387,0 C21.5452903,0 21.9334194,0.185806452 22.2472258,0.557419355 C22.5610323,0.929032258 22.7179355,1.35432258 22.7179355,1.83329032 L22.7179355,3.34451613 C22.7179355,3.87303226 22.5651613,4.33135484 22.2596129,4.71948387 C21.9540645,5.1076129 21.5618065,5.30167742 21.0828387,5.30167742 L4.2116129,5.30167742 C3.78219355,5.30167742 3.41058065,5.14890323 3.09677419,4.84335484 C2.78296774,4.53780645 2.62606452,4.17032258 2.62606452,3.74090323 L2.62606452,1.61032258 C2.62606452,1.14787097 2.76645161,0.763870968 3.04722581,0.458322581 C3.328,0.152774194 3.68309677,0 4.11251613,0 L21.0828387,0 L21.0828387,0 Z" id="Shape"></path>
                    </g>
                </g>
            </g>
        </g>
    </g>
</svg>