<?xml version="1.0" encoding="UTF-8"?>
<svg width="20px" height="20px" viewBox="0 0 20 20" version="1.1" xmlns="http://www.w3.org/2000/svg" xmlns:xlink="http://www.w3.org/1999/xlink">
    <!-- Generator: Sketch 56.3 (81716) - https://sketch.com -->
    <title>reportcenter_icon_bet</title>
    <desc>Created with Sketch.</desc>
    <defs>
        <linearGradient x1="20.6419271%" y1="0.00631532413%" x2="22.3776042%" y2="99.9936847%" id="linearGradient-1">
            <stop stop-color="#13A2BA" offset="0%"></stop>
            <stop stop-color="#087C95" offset="100%"></stop>
        </linearGradient>
    </defs>
    <g id="jx1.2" stroke="none" stroke-width="1" fill="none" fill-rule="evenodd">
        <g id="报表中心_彩票" transform="translate(-52.000000, -419.000000)" fill="url(#linearGradient-1)" fill-rule="nonzero">
            <g id="奖金派送" transform="translate(16.000000, 402.000000)">
                <g id="有效人数">
                    <g id="reportcenter_icon_bet" transform="translate(36.000000, 17.000000)">
                        <path d="M0.00615384615,17.0343195 C0.129861933,16.6404734 0.423984221,16.4119921 0.768599606,16.222643 C1.325286,15.9146351 1.91100592,15.6419724 2.41972387,15.2670611 C2.9966075,14.8403945 3.51794872,14.3329389 4.03676529,13.8330572 C4.80426036,13.0933333 5.54903353,12.3283629 6.30390533,11.5747535 C6.33167653,11.5469822 6.35566075,11.5179487 6.38848126,11.4838659 C5.49980276,10.593925 4.61491124,9.71029586 3.74390533,8.83928994 C5.89869822,6.68575937 8.02698225,4.55747535 10.1413807,2.44560158 C12.6041815,4.90840237 15.0897041,7.39392505 17.5613412,9.86556213 C15.4570414,11.9698619 13.3300197,14.098146 11.206785,16.2213807 C10.3458777,15.3604734 9.46098619,14.4755819 8.58745562,13.600789 C8.52433925,13.6310848 8.50287968,13.6361341 8.49025641,13.6487574 C7.36930966,14.7899014 6.2382643,15.9222091 5.13499014,17.0810256 C4.84844181,17.3827219 4.63637081,17.7601578 4.41420118,18.1173964 C4.18571992,18.4872584 3.98122288,18.8722682 3.77546351,19.2560158 C3.59242604,19.5981065 3.36142012,19.8821302 2.9738856,20.000789 C2.87037475,20.000789 2.76560158,20.000789 2.66209073,20.000789 C1.37956607,19.5135306 0.494674556,18.6286391 0.00741617357,17.3461144 C0.00615384615,17.2426036 0.00615384615,17.1378304 0.00615384615,17.0343195 Z M13.9371992,8.31542406 C13.8690335,8.24094675 13.8311637,8.19676529 13.7907692,8.15637081 C13.404497,7.77009862 13.0144379,7.38635108 12.633215,6.99502959 C12.5398028,6.89783037 12.4602761,6.87510848 12.3289941,6.91928994 C11.4945957,7.20710059 10.6564103,7.4835503 9.81822485,7.76378698 C9.64781065,7.82059172 9.47739645,7.87865878 9.25017751,7.95439842 C9.74122288,8.44039448 10.1994477,8.89483235 10.6690335,9.36063116 C9.69325444,9.77088757 8.73136095,10.1748323 7.76946746,10.5800394 C7.77451677,10.593925 7.77956607,10.6078107 7.78461538,10.6216963 C9.42690335,10.5295464 11.0704536,10.4373964 12.7127416,10.3452465 C12.7203156,10.3263116 12.7266272,10.3086391 12.7342012,10.2897041 C12.2570414,9.81633136 11.7798817,9.34295858 11.283787,8.84938856 C12.1737278,8.67013807 13.0371598,8.49719921 13.9371992,8.31542406 Z M8.67329389,0.0143589744 C8.87147929,0.155739645 9.0835503,0.280710059 9.26280079,0.443550296 C9.56071006,0.713688363 9.83589744,1.00654832 10.1085602,1.27668639 C7.60788955,3.777357 5.12236686,6.26287968 2.66714004,8.71810651 C2.2922288,8.36591716 1.88575937,8.01120316 1.51463511,7.62366864 C1.29751479,7.3964497 1.32276134,7.01143984 1.51211045,6.75392505 C1.57017751,6.67566075 1.63960552,6.60623274 1.70903353,6.53806706 C3.74138067,4.50445759 5.77246548,2.4695858 7.81112426,0.443550296 C7.98027613,0.273136095 8.20118343,0.155739645 8.39936884,0.0143589744 C8.49025641,0.0143589744 8.58114398,0.0143589744 8.67329389,0.0143589744 Z M19.9938462,11.607574 C19.8524655,11.8057594 19.735069,12.027929 19.5659172,12.1970809 C17.5247337,14.2496252 15.4759763,16.2933333 13.4310059,18.3420907 C13.1848521,18.5882446 12.9121893,18.7106903 12.5713609,18.5920316 C12.4703748,18.5566864 12.3681262,18.4960947 12.2923866,18.4216174 C11.9401972,18.0757396 11.5955819,17.7210256 11.2686391,17.3890335 C13.7541617,14.9035108 16.2434714,12.4142012 18.7239448,9.93372781 C19.0723471,10.2745562 19.45357,10.6368442 19.8209073,11.0117554 C19.9029586,11.095069 19.9370414,11.2250888 19.9938462,11.3323866 C19.9938462,11.4257988 19.9938462,11.5166864 19.9938462,11.607574 Z" id="Shape"></path>
                    </g>
                </g>
            </g>
        </g>
    </g>
</svg>