<?xml version="1.0" encoding="UTF-8"?>
<svg width="20px" height="23px" viewBox="0 0 20 23" version="1.1" xmlns="http://www.w3.org/2000/svg" xmlns:xlink="http://www.w3.org/1999/xlink">
    <!-- Generator: Sketch 51.2 (57519) - http://www.bohemiancoding.com/sketch -->
    <title>账户安全 (1)</title>
    <desc>Created with Sketch.</desc>
    <defs>
        <linearGradient x1="20.6419271%" y1="0%" x2="22.3776042%" y2="100%" id="linearGradient-1">
            <stop stop-color="#13A2BA" offset="0%"></stop>
            <stop stop-color="#087C95" offset="100%"></stop>
        </linearGradient>
    </defs>
    <g id="Page-1" stroke="none" stroke-width="1" fill="none" fill-rule="evenodd">
        <g id="设置_初始资料设置_弹出框" transform="translate(-15.000000, -119.000000)" fill="url(#linearGradient-1)" fill-rule="nonzero">
            <g id="账户安全-(1)" transform="translate(15.000000, 119.000000)">
                <path d="M19.5470716,3.44295011 C16.659436,2.33232104 14.1049892,2.22125813 11.9947939,0.66637744 C10.773102,-0.222125813 9.21822126,-0.222125813 7.99652928,0.66637744 C5.88633406,2.22125813 3.3318872,2.33232104 0.444251627,3.44295011 C0.222125813,3.55401302 0,3.77613883 0,4.10932755 L0,11.4394794 C0,16.659436 8.55184382,22.2125813 9.99566161,22.2125813 C11.4394794,22.2125813 19.9913232,16.659436 19.9913232,11.4394794 L19.9913232,4.10932755 C19.9913232,3.77613883 19.7691974,3.55401302 19.5470716,3.44295011 Z M13.105423,10.773102 L9.66247289,15.5488069 C9.44034707,15.7709328 8.88503254,15.6598698 8.88503254,15.3266811 L8.88503254,12.4390456 C8.88503254,12.2169197 8.66290672,12.1058568 8.55184382,12.1058568 L7.10802603,12.1058568 C6.99696312,12.1058568 6.88590022,11.9947939 6.77483731,11.883731 C6.6637744,11.7726681 6.77483731,11.6616052 6.77483731,11.5505423 L10.3288503,6.6637744 C10.5509761,6.33058568 10.9952278,6.5527115 10.9952278,6.88590022 L10.9952278,9.77353579 C10.9952278,9.99566161 11.2173536,10.1067245 11.3284165,10.1067245 L12.7722343,10.1067245 C13.105423,10.2177874 13.3275488,10.5509761 13.105423,10.773102 Z" id="Shape"></path>
            </g>
        </g>
    </g>
</svg>